<svg width="56" height="56" viewBox="0 0 56 56" fill="none" xmlns="http://www.w3.org/2000/svg">
<path d="M28 16V28L32 30" stroke="#FFB800" stroke-width="1.75" stroke-linecap="round" stroke-linejoin="round"/>
<path d="M28.674 47.988C24.5872 48.1255 20.5563 47.007 17.1247 44.7833C13.6931 42.5595 11.0256 39.3372 9.48162 35.5507C7.93767 31.7642 7.59147 27.5955 8.48968 23.6062C9.3879 19.6169 11.4874 15.9987 14.5051 13.2393C17.5229 10.48 21.3141 8.71191 25.3676 8.17344C29.4212 7.63498 33.5424 8.35198 37.1759 10.2278C40.8095 12.1037 43.7807 15.0482 45.6892 18.6647C47.5978 22.2811 48.3519 26.3957 47.85 30.454" stroke="#FFB800" stroke-width="1.75" stroke-linecap="round" stroke-linejoin="round"/>
<path d="M32 40L40 48L48 40" stroke="#FFB800" stroke-width="1.75" stroke-linecap="round" stroke-linejoin="round"/>
<path d="M40 32V48" stroke="#FFB800" stroke-width="1.75" stroke-linecap="round" stroke-linejoin="round"/>
</svg>
