<svg width="56" height="56" viewBox="0 0 56 56" fill="none" xmlns="http://www.w3.org/2000/svg">
<g clip-path="url(#clip0_2123_432)">
<path d="M19.3265 48.4423H33.1878C33.5792 48.4423 33.9119 48.3052 34.1857 48.0308C34.4601 47.7569 34.5973 47.4243 34.5973 47.0328V43.9787C34.5973 43.5873 34.4601 43.2544 34.1857 42.98C33.9119 42.7061 33.5792 42.5692 33.1878 42.5692H19.3265C18.9351 42.5692 18.6022 42.7061 18.3278 42.98C18.054 43.2544 17.917 43.5873 17.917 43.9787V47.0328C17.917 47.4243 18.054 47.7569 18.3278 48.0308C18.6022 48.3052 18.9351 48.4423 19.3265 48.4423ZM18.6806 25.0659H33.129C33.3718 25.0659 33.5988 24.9595 33.8101 24.7467C34.0213 24.5335 34.1269 24.3044 34.1269 24.0596C34.1269 23.8142 34.0213 23.5879 33.8101 23.3808C33.5988 23.1731 33.3718 23.0693 33.129 23.0693H18.6806C18.4378 23.0693 18.2105 23.1759 17.9987 23.3892C17.7875 23.6019 17.6819 23.831 17.6819 24.0764C17.6819 24.3212 17.7875 24.5475 17.9987 24.7551C18.2105 24.9623 18.4378 25.0659 18.6806 25.0659ZM18.6806 18.6056H33.129C33.3718 18.6056 33.5988 18.499 33.8101 18.2857C34.0213 18.0729 34.1269 17.8439 34.1269 17.5985C34.1269 17.3537 34.0213 17.1274 33.8101 16.9197C33.5988 16.7126 33.3718 16.609 33.129 16.609H18.6806C18.4378 16.609 18.2105 16.7154 17.9987 16.9281C17.7875 17.1414 17.6819 17.3705 17.6819 17.6153C17.6819 17.8607 17.7875 18.0869 17.9987 18.2941C18.2105 18.5018 18.4378 18.6056 18.6806 18.6056ZM43.6421 27.5329V25.1835H48.5761C49.1243 25.1835 49.5746 25.0074 49.9268 24.6551C50.279 24.3029 50.4552 23.8526 50.4552 23.3044V18.3704C50.4552 17.8222 50.279 17.372 49.9268 17.0198C49.5746 16.6675 49.1243 16.4914 48.5761 16.4914H43.6421V14.142H48.5761C49.7087 14.142 50.6964 14.5635 51.5394 15.4064C52.3828 16.2499 52.8046 17.2379 52.8046 18.3704V19.6631H58.3257C58.6586 19.6631 58.9375 19.7759 59.1625 20.0014C59.3875 20.2269 59.5 20.5063 59.5 20.8397C59.5 21.1752 59.3875 21.4544 59.1625 21.6773C58.9375 21.9003 58.6586 22.0118 58.3257 22.0118H52.8046V23.3044C52.8046 24.437 52.3828 25.425 51.5394 26.2685C50.6964 27.1114 49.7087 27.5329 48.5761 27.5329H43.6421ZM32.0127 40.2198H29.6633V30.1175H39.4137C39.9614 30.1175 40.4116 29.9413 40.7644 29.5891C41.1166 29.2363 41.2927 28.7858 41.2927 28.2376V13.4372C41.2927 12.889 41.1166 12.4385 40.7644 12.0858C40.4116 11.7335 39.9614 11.5574 39.4137 11.5574H17.3291C15.4177 11.5574 13.8044 12.2151 12.4891 13.5304C11.1737 14.8452 10.5161 16.4586 10.5161 18.3704V23.3044C10.5161 25.2163 11.1737 26.8297 12.4891 28.1445C13.8044 29.4598 15.4177 30.1175 17.3291 30.1175H22.8503V40.2198H20.5009V32.4669H17.3291C14.8095 32.4669 12.6525 31.5697 10.8582 29.7754C9.06384 27.9811 8.16669 25.8241 8.16669 23.3044V18.3704C8.16669 15.8508 9.06384 13.6938 10.8582 11.8995C12.6525 10.1052 14.8095 9.20801 17.3291 9.20801H39.4137C40.5462 9.20801 41.534 9.62974 42.3769 10.4732C43.2204 11.3166 43.6421 12.3047 43.6421 13.4372V28.2376C43.6421 29.3702 43.2204 30.3582 42.3769 31.2017C41.534 32.0451 40.5462 32.4669 39.4137 32.4669H32.0127V40.2198ZM18.7684 50.7917C17.8791 50.7917 17.1232 50.4805 16.5007 49.8579C15.8787 49.2354 15.5676 48.4798 15.5676 47.591V43.3618C15.5676 42.4888 15.8787 41.7469 16.5007 41.1361C17.1232 40.5252 17.8791 40.2198 18.7684 40.2198H33.804C34.6769 40.2198 35.4188 40.5252 36.0297 41.1361C36.641 41.7469 36.9467 42.4888 36.9467 43.3618V47.591C36.9467 48.4798 36.641 49.2354 36.0297 49.8579C35.4188 50.4805 34.6769 50.7917 33.804 50.7917H18.7684ZM33.1878 48.4423H17.917H34.5973H33.1878Z" fill="#371B01"/>
</g>
<defs>
<clipPath id="clip0_2123_432">
<rect width="56" height="56" fill="white"/>
</clipPath>
</defs>
</svg>
