<svg width="56" height="56" viewBox="0 0 56 56" fill="none" xmlns="http://www.w3.org/2000/svg">
<path d="M44 29.9999C44 39.9999 37 44.9999 28.68 47.8999C28.2443 48.0476 27.7711 48.0405 27.34 47.8799C19 44.9999 12 39.9999 12 29.9999V15.9999C12 15.4695 12.2107 14.9608 12.5858 14.5857C12.9609 14.2106 13.4696 13.9999 14 13.9999C18 13.9999 23 11.5999 26.48 8.55992C26.9037 8.19792 27.4427 7.99902 28 7.99902C28.5573 7.99902 29.0963 8.19792 29.52 8.55992C33.02 11.6199 38 13.9999 42 13.9999C42.5304 13.9999 43.0391 14.2106 43.4142 14.5857C43.7893 14.9608 44 15.4695 44 15.9999V29.9999Z" stroke="#FFB800" stroke-width="1.75" stroke-linecap="round" stroke-linejoin="round"/>
<path d="M22 28L26 32L34 24" stroke="#FFB800" stroke-width="1.75" stroke-linecap="round" stroke-linejoin="round"/>
</svg>
