<svg width="64" height="64" viewBox="0 0 64 64" fill="none" xmlns="http://www.w3.org/2000/svg">
<g clip-path="url(#clip0_2151_15290)">
<path d="M43.6667 20.0013H20.3333C19.8747 20.0013 19.5013 20.3747 19.5013 20.8333V44.1667C19.5013 44.3853 19.5867 44.5987 19.7467 44.7587C19.9067 44.9187 20.1147 45.004 20.3387 45.004H43.672C43.8907 45.004 44.104 44.9187 44.264 44.7587C44.424 44.5987 44.5093 44.3907 44.5093 44.1667V20.8333C44.5093 20.6147 44.424 20.4013 44.264 20.2413C44.104 20.0813 43.896 19.996 43.672 19.996L43.6667 20.0013ZM42.8347 43.3347H21.1653V21.6653H42.8293V43.3293L42.8347 43.3347ZM56.168 33.3347C56.6267 33.3347 57 32.9613 57 32.5027C57 32.044 56.6267 31.6707 56.168 31.6707H52.0027V27.5053H56.168C56.6267 27.5053 57 27.132 57 26.6733C57 26.2147 56.6267 25.8413 56.168 25.8413H52.0027V21.676H56.168C56.6267 21.676 57 21.3027 57 20.844C57 20.3853 56.6267 20.012 56.168 20.012H52.0027V18.348C52.0027 15.1267 49.3893 12.5187 46.168 12.5133H44.504V8.332C44.504 7.87333 44.1307 7.5 43.672 7.5C43.2133 7.5 42.84 7.87333 42.84 8.332V12.4973H38.6747V8.332C38.6747 7.87333 38.3013 7.5 37.8427 7.5C37.384 7.5 37.0107 7.87333 37.0107 8.332V12.4973H32.8453V8.332C32.8453 7.87333 32.472 7.5 32.0133 7.5C31.5547 7.5 31.1813 7.87333 31.1813 8.332V12.4973H27.016V8.332C27.016 7.87333 26.6427 7.5 26.184 7.5C25.7253 7.5 25.352 7.87333 25.352 8.332V12.4973H21.1867V8.332C21.1867 7.87333 20.8133 7.5 20.3547 7.5C19.896 7.5 19.5227 7.87333 19.5227 8.332V12.4973H17.8587C14.6373 12.4973 12.0293 15.1107 12.024 18.332V19.996H7.832C7.37333 19.996 7 20.3693 7 20.828C7 21.2867 7.37333 21.66 7.832 21.66H11.9973V25.8253H7.832C7.37333 25.8253 7 26.1987 7 26.6573C7 27.116 7.37333 27.4893 7.832 27.4893H11.9973V31.6547H7.832C7.37333 31.6547 7 32.028 7 32.4867C7 32.9453 7.37333 33.3187 7.832 33.3187H11.9973V37.484H7.832C7.37333 37.484 7 37.8573 7 38.316C7 38.7747 7.37333 39.148 7.832 39.148H11.9973V43.3133H7.832C7.37333 43.3133 7 43.6867 7 44.1453C7 44.604 7.37333 44.9773 7.832 44.9773H11.9973V46.6413C11.9973 49.8627 14.6107 52.4707 17.832 52.476H19.496V56.6413C19.496 57.1 19.8693 57.4733 20.328 57.4733C20.7867 57.4733 21.16 57.1 21.16 56.6413V52.476H25.3253V56.6413C25.3253 57.1 25.6987 57.4733 26.1573 57.4733C26.616 57.4733 26.9893 57.1 26.9893 56.6413V52.476H31.1547V56.6413C31.1547 57.1 31.528 57.4733 31.9867 57.4733C32.4453 57.4733 32.8187 57.1 32.8187 56.6413V52.476H36.984V56.6413C36.984 57.1 37.3573 57.4733 37.816 57.4733C38.2747 57.4733 38.648 57.1 38.648 56.6413V52.476H42.8133V56.6413C42.8133 57.1 43.1867 57.4733 43.6453 57.4733C44.104 57.4733 44.4773 57.1 44.4773 56.6413V52.476H46.1413C49.3627 52.476 51.9707 49.8627 51.976 46.6413V44.9773H56.1413C56.6 44.9773 56.9733 44.604 56.9733 44.1453C56.9733 43.6867 56.6 43.3133 56.1413 43.3133H51.976V39.148H56.1413C56.6 39.148 56.9733 38.7747 56.9733 38.316C56.9733 37.8573 56.6 37.484 56.1413 37.484H51.976V33.3187H56.1413L56.168 33.3347ZM50.3333 46.668C50.3333 48.9667 48.4667 50.8333 46.168 50.8333H17.832C15.5333 50.8333 13.6667 48.9667 13.6667 46.668V18.332C13.6667 16.0333 15.5333 14.1667 17.832 14.1667H46.1627C48.4613 14.1667 50.328 16.0333 50.328 18.332V46.6627L50.3333 46.668ZM34.4987 34.9987C34.4987 34.076 33.752 33.3347 32.8347 33.3347H31.1707C29.3307 33.3347 27.8373 31.8413 27.8373 30.0013C27.8373 28.1613 29.3307 26.668 31.1707 26.668V25.004C31.1707 24.5453 31.544 24.172 32.0027 24.172C32.4613 24.172 32.8347 24.5453 32.8347 25.004V26.668H35.336C35.7947 26.668 36.168 27.0413 36.168 27.5C36.168 27.9587 35.7947 28.332 35.336 28.332H31.1707C30.248 28.332 29.5067 29.0787 29.5067 29.996C29.5067 30.9133 30.2533 31.66 31.1707 31.66H32.8347C34.6747 31.66 36.168 33.1533 36.168 34.9933C36.168 36.8333 34.6747 38.3267 32.8347 38.3267V39.9907C32.8347 40.4493 32.4613 40.8227 32.0027 40.8227C31.544 40.8227 31.1707 40.4493 31.1707 39.9907V38.3267H28.6693C28.2107 38.3267 27.8373 37.9533 27.8373 37.4947C27.8373 37.036 28.2107 36.6627 28.6693 36.6627H32.8347C33.7573 36.6627 34.4987 35.916 34.4987 34.9987Z" fill="#FFB800"/>
</g>
<defs>
<clipPath id="clip0_2151_15290">
<rect width="50" height="50" fill="white" transform="translate(7 7.5)"/>
</clipPath>
</defs>
</svg>
