<svg width="48" height="48" viewBox="0 0 48 48" fill="none" xmlns="http://www.w3.org/2000/svg">
<path d="M18.8615 5.09259V3.24609H29.1385V5.09259H18.8615ZM23.0865 27.1076H24.9325V16.8616H23.0865V27.1076ZM24.0015 41.6926C21.8295 41.6926 19.7895 41.2813 17.8815 40.4586C15.9731 39.6363 14.3068 38.5114 12.8825 37.0841C11.4578 35.6564 10.3341 33.9888 9.51148 32.0811C8.68848 30.1734 8.27698 28.1339 8.27698 25.9626C8.27698 23.8016 8.68848 21.7659 9.51148 19.8556C10.3341 17.9453 11.4578 16.2773 12.8825 14.8516C14.3068 13.4263 15.9725 12.3024 17.8795 11.4801C19.7865 10.6574 21.8266 10.2461 24 10.2461C25.9756 10.2461 27.843 10.5964 29.602 11.2971C31.361 11.9978 32.981 12.9648 34.462 14.1981L36.577 12.0751L37.894 13.3926L35.771 15.5156C37.0006 16.9706 37.9666 18.5828 38.669 20.3521C39.3716 22.1214 39.723 23.9938 39.723 25.9691C39.723 28.1411 39.3118 30.1799 38.4895 32.0856C37.6668 33.9913 36.5436 35.6569 35.12 37.0826C33.696 38.5086 32.03 39.6334 30.122 40.4571C28.2136 41.2808 26.1735 41.6926 24.0015 41.6926ZM24.01 39.8461C27.8456 39.8461 31.1156 38.4904 33.82 35.7791C36.5246 33.0681 37.877 29.7948 37.877 25.9591C37.877 22.1238 36.5213 18.8538 33.81 16.1491C31.0986 13.4448 27.8253 12.0926 23.99 12.0926C20.1543 12.0926 16.8843 13.4483 14.18 16.1596C11.4753 18.8706 10.123 22.1439 10.123 25.9796C10.123 29.8149 11.4786 33.0849 14.19 35.7896C16.9013 38.4939 20.1746 39.8461 24.01 39.8461Z" fill="#009F44"/>
</svg>
