<svg width="48" height="48" viewBox="0 0 48 48" fill="none" xmlns="http://www.w3.org/2000/svg">
<path d="M11.3445 41.6927C10.4861 41.6927 9.76031 41.396 9.16698 40.8027C8.57364 40.2093 8.27698 39.4833 8.27698 38.6247V13.3142C8.27698 12.4555 8.57364 11.7295 9.16698 11.1362C9.76031 10.5428 10.4893 10.2462 11.354 10.2462H15.046V5.78467H17.046V10.2462H31.1075V5.78467H32.954V10.2462H36.646C37.5106 10.2462 38.2396 10.5428 38.833 11.1362C39.4263 11.7295 39.723 12.4555 39.723 13.3142V38.6247C39.723 39.4833 39.4263 40.2093 38.833 40.8027C38.2396 41.396 37.5138 41.6927 36.6555 41.6927H11.3445ZM11.354 39.8462H36.646C36.9536 39.8462 37.2358 39.718 37.4925 39.4617C37.7488 39.2053 37.877 38.9233 37.877 38.6157V21.2927H10.123V38.6157C10.123 38.9233 10.2511 39.2053 10.5075 39.4617C10.7641 39.718 11.0463 39.8462 11.354 39.8462ZM10.123 19.4462H37.877V13.3232C37.877 13.0155 37.7488 12.7335 37.4925 12.4772C37.2358 12.2208 36.9536 12.0927 36.646 12.0927H11.354C11.0463 12.0927 10.7641 12.2208 10.5075 12.4772C10.2511 12.7335 10.123 13.0155 10.123 13.3232V19.4462ZM24.0025 28.2772C23.5918 28.2772 23.2375 28.129 22.9395 27.8327C22.6415 27.5363 22.4925 27.1828 22.4925 26.7722C22.4925 26.3615 22.6406 26.007 22.937 25.7087C23.2333 25.4107 23.5868 25.2617 23.9975 25.2617C24.4081 25.2617 24.7625 25.4098 25.0605 25.7062C25.3585 26.0025 25.5075 26.356 25.5075 26.7667C25.5075 27.1773 25.3593 27.5318 25.063 27.8302C24.7666 28.1282 24.4131 28.2772 24.0025 28.2772ZM16.0025 28.2772C15.5918 28.2772 15.2375 28.129 14.9395 27.8327C14.6415 27.5363 14.4925 27.1828 14.4925 26.7722C14.4925 26.3615 14.6406 26.007 14.937 25.7087C15.2333 25.4107 15.5868 25.2617 15.9975 25.2617C16.4081 25.2617 16.7625 25.4098 17.0605 25.7062C17.3585 26.0025 17.5075 26.356 17.5075 26.7667C17.5075 27.1773 17.3593 27.5318 17.063 27.8302C16.7666 28.1282 16.4131 28.2772 16.0025 28.2772ZM32.0025 28.2772C31.5918 28.2772 31.2375 28.129 30.9395 27.8327C30.6415 27.5363 30.4925 27.1828 30.4925 26.7722C30.4925 26.3615 30.6406 26.007 30.937 25.7087C31.2333 25.4107 31.5868 25.2617 31.9975 25.2617C32.4081 25.2617 32.7625 25.4098 33.0605 25.7062C33.3585 26.0025 33.5075 26.356 33.5075 26.7667C33.5075 27.1773 33.3593 27.5318 33.063 27.8302C32.7666 28.1282 32.4131 28.2772 32.0025 28.2772ZM24.0025 35.9692C23.5918 35.9692 23.2375 35.821 22.9395 35.5247C22.6415 35.2287 22.4925 34.8752 22.4925 34.4642C22.4925 34.0535 22.6406 33.6992 22.937 33.4012C23.2333 33.1032 23.5868 32.9542 23.9975 32.9542C24.4081 32.9542 24.7625 33.1023 25.0605 33.3987C25.3585 33.695 25.5075 34.0485 25.5075 34.4592C25.5075 34.8698 25.3593 35.2242 25.063 35.5222C24.7666 35.8202 24.4131 35.9692 24.0025 35.9692ZM16.0025 35.9692C15.5918 35.9692 15.2375 35.821 14.9395 35.5247C14.6415 35.2287 14.4925 34.8752 14.4925 34.4642C14.4925 34.0535 14.6406 33.6992 14.937 33.4012C15.2333 33.1032 15.5868 32.9542 15.9975 32.9542C16.4081 32.9542 16.7625 33.1023 17.0605 33.3987C17.3585 33.695 17.5075 34.0485 17.5075 34.4592C17.5075 34.8698 17.3593 35.2242 17.063 35.5222C16.7666 35.8202 16.4131 35.9692 16.0025 35.9692ZM32.0025 35.9692C31.5918 35.9692 31.2375 35.821 30.9395 35.5247C30.6415 35.2287 30.4925 34.8752 30.4925 34.4642C30.4925 34.0535 30.6406 33.6992 30.937 33.4012C31.2333 33.1032 31.5868 32.9542 31.9975 32.9542C32.4081 32.9542 32.7625 33.1023 33.0605 33.3987C33.3585 33.695 33.5075 34.0485 33.5075 34.4592C33.5075 34.8698 33.3593 35.2242 33.063 35.5222C32.7666 35.8202 32.4131 35.9692 32.0025 35.9692Z" fill="#009F44"/>
</svg>
