<svg width="48" height="48" viewBox="0 0 48 48" fill="none" xmlns="http://www.w3.org/2000/svg">
<path d="M6.3075 37.6926V35.8461H24.446V37.6926H6.3075ZM11.3845 33.0771C10.5198 33.0771 9.79083 32.7804 9.19749 32.1871C8.60416 31.5938 8.30749 30.8678 8.30749 30.0091V13.3761C8.30749 12.5171 8.60416 11.7909 9.19749 11.1976C9.79083 10.6043 10.5173 10.3076 11.377 10.3076H36.6155C37.2628 10.3076 37.8348 10.4791 38.3315 10.8221C38.8285 11.1651 39.1795 11.6091 39.3845 12.1541H11.3845C11.0768 12.1541 10.7948 12.2823 10.5385 12.5386C10.2822 12.795 10.154 13.0769 10.154 13.3846V30.0001C10.154 30.3078 10.2822 30.5898 10.5385 30.8461C10.7948 31.1028 11.0768 31.2311 11.3845 31.2311H24.446V33.0771H11.3845ZM40.323 35.1926V20.0386C40.323 19.859 40.259 19.7051 40.131 19.5771C40.0027 19.4488 39.8487 19.3846 39.669 19.3846H32.331C32.1513 19.3846 31.9973 19.4488 31.869 19.5771C31.741 19.7051 31.677 19.859 31.677 20.0386V35.1926C31.677 35.372 31.741 35.5258 31.869 35.6541C31.9973 35.7821 32.1513 35.8461 32.331 35.8461H39.669C39.8487 35.8461 40.0027 35.7821 40.131 35.6541C40.259 35.5258 40.323 35.372 40.323 35.1926ZM32.156 37.6926C31.528 37.6926 30.9835 37.462 30.5225 37.0006C30.0615 36.5396 29.831 35.9953 29.831 35.3676V19.8386C29.831 19.2083 30.0615 18.6673 30.5225 18.2156C30.9835 17.7643 31.528 17.5386 32.156 17.5386H39.8735C40.5008 17.5386 41.0403 17.7643 41.492 18.2156C41.9433 18.6673 42.169 19.2083 42.169 19.8386V35.3676C42.169 35.9953 41.9433 36.5396 41.492 37.0006C41.0403 37.462 40.5008 37.6926 39.8735 37.6926H32.156ZM35.982 24.6061C36.3427 24.6061 36.649 24.4825 36.901 24.2351C37.153 23.9878 37.279 23.6976 37.279 23.3646C37.279 23.0036 37.1525 22.6971 36.8995 22.4451C36.6465 22.1934 36.3412 22.0676 35.9835 22.0676C35.6368 22.0676 35.343 22.1941 35.102 22.4471C34.861 22.7001 34.7405 23.0053 34.7405 23.3626C34.7405 23.7093 34.8642 24.0031 35.1115 24.2441C35.3585 24.4854 35.6487 24.6061 35.982 24.6061Z" fill="#009F44"/>
</svg>
