<svg width="80" height="80" viewBox="0 0 80 80" fill="none" xmlns="http://www.w3.org/2000/svg">
<path d="M35.8253 8.04046C33.9829 8.08427 32.6314 8.14904 30.1536 8.30183C29.0076 8.37021 27.7566 8.47091 26.8756 8.55905C26.6545 8.58309 26.1919 8.62743 25.8501 8.65975C24.4141 8.80065 22.2822 9.06976 21.3855 9.22268C21.1961 9.255 20.9187 9.29934 20.7622 9.32338C20.6093 9.34368 20.3355 9.39162 20.1586 9.42408C19.9818 9.4564 19.684 9.51275 19.4951 9.54454C18.8311 9.65726 17.7012 9.8867 17.0617 10.0396C16.8844 10.084 16.5667 10.1601 16.3575 10.2087C16.1483 10.2566 15.9596 10.301 15.9356 10.3051C14.7566 10.5864 13.5861 11.154 12.6853 11.89C11.8083 12.6021 11.0243 13.7525 10.63 14.895C10.5659 15.0719 10.5011 15.2529 10.4814 15.2972C10.413 15.4501 10.1152 16.7371 9.90181 17.7915C9.87003 17.9683 9.81368 18.2296 9.78136 18.3747C9.74891 18.5192 9.70524 18.7727 9.67693 18.9376C9.6525 19.1024 9.62058 19.3038 9.60028 19.3799C9.53979 19.6097 9.29462 21.1782 9.13758 22.3166C8.98481 23.419 8.88412 24.2198 8.79599 25.032C8.75165 25.43 8.70732 25.8203 8.69944 25.8969C8.68742 25.9731 8.65097 26.3634 8.61491 26.762C8.58259 27.16 8.53465 27.6468 8.51008 27.8482C8.42555 28.5879 8.2163 31.8104 8.11214 34.0834C8.03175 35.7684 7.97954 39.377 8.00772 41.3442C8.03589 43.7979 8.09585 45.9906 8.1522 46.7548C8.17263 47.0642 8.2127 47.7163 8.23673 48.203C8.26077 48.6897 8.29308 49.3131 8.31338 49.5906C8.40579 50.9825 8.4783 51.8955 8.51422 52.185C8.53465 52.3624 8.58259 52.833 8.61491 53.2269C8.64723 53.6213 8.6953 54.0919 8.7156 54.2729C8.73963 54.454 8.78397 54.8441 8.81575 55.142C8.91644 56.0952 8.99309 56.7186 9.05732 57.1333C9.08964 57.3545 9.14599 57.7327 9.17777 57.9779C9.29462 58.8627 9.43122 59.7235 9.57999 60.5124C9.6123 60.6892 9.66452 60.9871 9.70097 61.176C9.76934 61.5781 9.92625 62.3789 10.039 62.8855C10.4249 64.6598 10.5939 65.1903 11.0484 66.0636C11.173 66.3047 11.3337 66.5864 11.4062 66.6871C11.4745 66.7878 11.5752 66.9323 11.6274 67.0089C11.8568 67.3507 12.5126 68.0184 12.8746 68.2762C12.9346 68.32 13.0514 68.4044 13.1275 68.465C13.2085 68.5292 13.2846 68.5776 13.3049 68.5776C13.321 68.5776 13.3612 68.6058 13.393 68.6383C13.5501 68.791 14.6564 69.3181 15.1306 69.4588C15.2193 69.487 15.3278 69.5229 15.3722 69.5434C15.477 69.5914 16.0679 69.7401 16.7801 69.9013C17.0899 69.9738 17.4076 70.0499 17.4838 70.0702C17.6689 70.1183 18.8352 70.3515 19.7163 70.5127C20.2228 70.605 21.2087 70.762 21.8278 70.8507C22.0611 70.8825 22.3589 70.9268 22.4915 70.9509C22.9781 71.0354 24.9894 71.2691 26.2523 71.3896C26.7067 71.4339 27.2658 71.4862 27.499 71.5101C27.8772 71.5503 28.2632 71.5826 30.1134 71.7152C30.3909 71.7355 31.0226 71.7716 31.5213 71.796C32.02 71.82 32.7159 71.8561 33.07 71.8764C35.9338 72.0412 44.1229 72.0412 46.9465 71.8764C47.3006 71.8524 47.9965 71.82 48.4952 71.796C49.3517 71.7559 49.6657 71.7355 51.0089 71.6348C52.7302 71.5023 55.2608 71.2566 56.1173 71.1361C56.3625 71.1001 56.785 71.0437 57.0625 71.0072C58.088 70.8747 59.4959 70.6613 60.3002 70.5127C61.1813 70.3515 62.3476 70.1183 62.5328 70.0702C62.6089 70.0499 62.9266 69.9738 63.2366 69.9013C63.9323 69.7442 64.5359 69.5914 64.6443 69.5434C64.778 69.4952 64.912 69.4482 65.0465 69.4025C65.3762 69.294 66.4706 68.7749 66.5629 68.6862C66.591 68.658 66.6714 68.5981 66.7398 68.5573C67.0537 68.3606 67.1982 68.248 67.4841 67.9903C67.806 67.6964 68.2525 67.2141 68.3609 67.0491C68.397 66.9928 68.4935 66.8561 68.5738 66.7476C68.6583 66.635 68.7267 66.5343 68.7267 66.5181C68.7267 66.5018 68.7913 66.3892 68.8674 66.2686C68.9442 66.1482 69.0365 65.9708 69.0731 65.8742C69.1132 65.782 69.1532 65.6813 69.1695 65.6615C69.2456 65.5608 69.5274 64.76 69.6478 64.3055C69.8372 63.6017 70.1908 61.9403 70.3197 61.1555C70.352 60.9547 70.388 60.7658 70.4 60.7335C70.4365 60.6448 70.6578 59.265 70.8585 57.8574C70.9028 57.5476 70.9472 57.2378 70.9592 57.1735C70.9916 56.9883 71.1361 55.7534 71.2007 55.1018C71.2325 54.78 71.2769 54.4096 71.3009 54.277C71.3255 54.144 71.3693 53.7099 71.4016 53.3114C71.4339 52.9134 71.4782 52.4225 71.4981 52.2252C71.5222 52.0244 71.5586 51.5659 71.5825 51.1995C71.6066 50.8333 71.643 50.3831 71.6629 50.1939C71.6874 50.0049 71.7313 49.309 71.7636 48.6453C71.8001 47.9813 71.8403 47.1648 71.8643 46.8352C72.0452 43.9105 72.0452 36.2353 71.8643 33.2185C71.8439 32.8762 71.8079 32.2048 71.7839 31.73C71.7595 31.2552 71.7234 30.6277 71.7031 30.3419C71.6791 30.0523 71.627 29.3402 71.5825 28.7532C71.5382 28.1659 71.4939 27.6144 71.4818 27.5263C71.4698 27.4375 71.4339 27.0474 71.4016 26.6613C71.3693 26.2753 71.3332 25.9131 71.3212 25.8569C71.3092 25.8005 71.2648 25.43 71.2205 25.032C71.1163 24.0705 70.9873 23.0088 70.9592 22.8842C70.9472 22.8279 70.9028 22.506 70.8585 22.1757C70.6614 20.6717 70.2958 18.5755 69.9817 17.1477C69.9373 16.9463 69.8654 16.6207 69.821 16.4236C69.7083 15.9086 69.5753 15.3896 69.5315 15.2972C69.5112 15.2529 69.4752 15.1444 69.447 15.0558C69.3583 14.7583 68.9118 13.7646 68.7992 13.6075C68.7829 13.5835 68.6547 13.3946 68.5174 13.1855C68.2321 12.755 67.5003 11.9907 67.0616 11.6688C66.1931 11.0293 65.2275 10.5947 63.9809 10.289C63.766 10.2364 63.5515 10.1827 63.3372 10.1278C63.1885 10.084 62.8906 10.0193 62.2511 9.8867C62.0699 9.8487 61.8889 9.80975 61.7081 9.76985C60.9318 9.581 58.4057 9.17046 56.7609 8.96131C56.4307 8.92111 56.1053 8.87677 56.0369 8.86115C55.9159 8.83657 55.3327 8.77661 54.1465 8.65975C53.8163 8.62743 53.362 8.57935 53.1409 8.55905C52.9197 8.53501 52.5212 8.49895 52.2562 8.47451C51.9906 8.45475 51.5562 8.41815 51.2907 8.39839C50.3897 8.32173 47.888 8.17722 46.5042 8.11659C43.8292 7.99986 38.89 7.9638 35.8253 8.04046ZM18.1034 35.2218C18.1275 35.2415 18.2443 35.2781 18.3606 35.3062C18.5781 35.3584 18.8838 35.4993 19.1127 35.6521C19.2938 35.7727 19.7204 36.2312 19.8044 36.3924C19.8451 36.4728 19.8889 36.5453 19.901 36.5573C19.9135 36.5693 19.9494 36.6496 19.9818 36.7383C20.0099 36.8264 20.0459 36.9194 20.0663 36.9391C20.1184 37.0158 20.179 37.4942 20.179 37.8485C20.179 38.1944 20.1262 38.6007 20.058 38.7494C19.841 39.2481 19.7362 39.4129 19.4628 39.703C19.2092 39.9644 19.1049 40.0448 18.7591 40.2139C18.4773 40.3546 18.2761 40.4271 18.1154 40.4428C17.9866 40.4589 17.8739 40.4871 17.8618 40.5034C17.8338 40.5519 16.961 40.5519 16.961 40.5034C16.961 40.4871 16.8603 40.4589 16.7315 40.4428C16.6069 40.4271 16.4504 40.3907 16.382 40.3625C16.2948 40.3232 16.2062 40.287 16.1165 40.2539C16.0399 40.2259 15.9674 40.1934 15.9553 40.1814C15.9433 40.1654 15.8828 40.1293 15.8145 40.097C15.5813 39.9805 15.0987 39.4453 14.9579 39.1516C14.8813 38.9946 14.8093 38.8417 14.789 38.8099C14.6523 38.5362 14.6282 37.2892 14.7566 36.9996C14.7932 36.923 14.8452 36.7946 14.8734 36.7178C14.9016 36.6417 14.9339 36.5692 14.9459 36.5573C14.9579 36.5453 15.006 36.4643 15.0504 36.3762C15.127 36.227 15.6053 35.7122 15.6737 35.7122C15.6897 35.7122 15.7263 35.684 15.7545 35.6481C15.8306 35.5634 16.2208 35.3745 16.4582 35.3142C16.5708 35.2859 16.6955 35.2457 16.7399 35.2254C16.7842 35.2056 16.8926 35.1853 16.9809 35.1733C17.2182 35.1492 18.0512 35.1853 18.1034 35.2218ZM61.9292 38.0253V40.0567H54.1262V37.3376L54.5608 37.2689C55.5221 37.1202 56.1214 37.0195 56.1575 36.9955C56.1815 36.9793 56.3786 36.9474 56.5997 36.9194C56.8209 36.8912 57.0223 36.8546 57.0422 36.8384C57.0666 36.8228 57.2554 36.7863 57.4647 36.7582C57.6738 36.7341 57.9471 36.6856 58.0683 36.6537C58.1887 36.6257 58.4422 36.5812 58.631 36.5573C58.8203 36.5327 59.0092 36.4968 59.0535 36.4805C59.0978 36.4607 59.2987 36.4243 59.4959 36.3961C59.6971 36.3721 59.922 36.336 59.9987 36.3116C60.0748 36.2917 60.3648 36.2354 60.6423 36.191C60.92 36.1466 61.282 36.0868 61.4468 36.0585C61.6115 36.0262 61.7885 36.0021 61.8407 35.998L61.9292 35.9938V38.0253ZM28.6252 39.8193V42.229H32.6474V45.8095H28.6215L28.6373 49.5385C28.6497 53.5572 28.6413 53.3599 28.8589 53.8545C29.0237 54.2369 29.49 54.6271 29.8922 54.7236C29.9606 54.7398 30.0373 54.7717 30.0696 54.7961C30.1457 54.8562 31.7749 54.8562 31.8474 54.792C31.8791 54.768 32.0242 54.7356 32.1769 54.7195L32.4467 54.6913V58.2195L32.3377 58.2676C32.2376 58.3118 31.7749 58.3843 31.1395 58.4606C30.2345 58.5654 28.585 58.5774 28.4885 58.4766C28.4645 58.4568 28.4004 58.4407 28.3399 58.4407C28.1828 58.4407 27.5313 58.3197 27.4828 58.2836C27.4588 58.2676 27.3504 58.2273 27.2377 58.2033C27.1292 58.1752 27.0207 58.1386 26.9962 58.123C26.9763 58.1026 26.884 58.0666 26.7954 58.0384C26.7067 58.0104 26.6263 57.9738 26.6143 57.9618C26.6023 57.9497 26.5298 57.9054 26.4531 57.861C26.1193 57.6842 26.0191 57.6201 25.8418 57.4708C25.7375 57.3864 25.6409 57.3144 25.6206 57.3144C25.5805 57.3101 25.2748 56.9763 25.0338 56.6707C24.8487 56.4332 24.5748 55.9789 24.4824 55.7452C24.4501 55.669 24.4141 55.5964 24.4021 55.5844C24.386 55.5723 24.3458 55.4477 24.3056 55.3027C24.2691 55.1582 24.221 55.0053 24.2007 54.9609C24.181 54.9166 24.1324 54.7356 24.1006 54.5588C24.0665 54.3907 24.0302 54.223 23.9916 54.0559C23.9634 53.9354 23.9435 52.5189 23.9315 49.8401L23.9155 45.8095H21.5863V42.229H23.9196V38.174L24.1929 38.1459C24.3416 38.1302 24.4824 38.102 24.5027 38.0858C24.5267 38.0697 24.7239 38.0337 24.9451 38.0054C25.1662 37.9774 25.3676 37.9366 25.3875 37.921C25.4115 37.9049 25.665 37.8604 25.9508 37.8244C26.2403 37.7837 26.4938 37.7399 26.5136 37.7237C26.5376 37.7076 26.6707 37.6794 26.8151 37.6674C27.0042 37.6447 27.1921 37.6139 27.3785 37.5751C27.8089 37.4864 28.561 37.3694 28.5971 37.3899C28.6132 37.3977 28.6252 38.4922 28.6252 39.8193ZM41.9591 41.8467C42.522 41.879 43.1579 41.9515 43.2058 41.9876C43.2298 42.0036 43.3264 42.0319 43.4271 42.0439C43.6565 42.0804 44.2157 42.2452 44.5532 42.3818C44.835 42.4947 45.4625 42.8081 45.5589 42.8891C45.5913 42.9131 45.6633 42.961 45.7196 42.9855C45.7759 43.0137 45.9533 43.154 46.1097 43.2913C46.2668 43.4321 46.4118 43.5527 46.4315 43.5604C46.4922 43.5886 47.2078 44.4578 47.2078 44.5057C47.2078 44.5177 47.2444 44.5825 47.2887 44.6425C47.3731 44.7635 47.731 45.4594 47.731 45.5038C47.731 45.5194 47.7633 45.6081 47.8071 45.7005C47.8473 45.7933 47.8958 45.9342 47.9121 46.0103C47.9281 46.087 47.9564 46.1674 47.972 46.1913C47.988 46.2117 48.0246 46.3401 48.0528 46.4731C48.0768 46.6056 48.1092 46.7429 48.1212 46.7747C48.1373 46.807 48.1733 46.9797 48.2057 47.157C48.2538 47.4225 48.2657 48.4242 48.2818 52.8571L48.298 58.2393H43.9099L43.9059 57.7646C43.9017 57.5074 43.8896 57.1333 43.8735 56.9361L43.8495 56.5741L43.7327 56.7348C43.5481 56.9805 42.9403 57.5595 42.6993 57.7203C42.172 58.0666 42.0316 58.1506 41.8866 58.1992C41.7979 58.2232 41.6816 58.2717 41.6253 58.3034C41.5648 58.3317 41.4161 58.3802 41.2951 58.4042C41.1746 58.4323 41.0541 58.4688 41.0338 58.4845C40.8288 58.6374 38.2947 58.6337 38.0975 58.4809C38.0777 58.4647 37.9327 58.4288 37.7756 58.4005C37.6229 58.3724 37.4418 58.328 37.3736 58.2956C37.3095 58.2676 37.1361 58.1949 36.9958 58.1386C36.834 58.0683 36.6757 57.9905 36.5212 57.9054C36.4143 57.8394 36.3055 57.7764 36.1951 57.7165C36.0262 57.6237 35.9698 57.5715 35.5114 57.1129C35.0408 56.6424 34.9803 56.5783 34.9803 56.5339C34.9803 56.5178 34.9281 56.4291 34.8681 56.3367C34.8034 56.2444 34.7111 56.0753 34.6625 55.9663C34.6145 55.8541 34.5499 55.7211 34.5217 55.6648C34.4899 55.6084 34.4456 55.4639 34.4174 55.3429C34.3893 55.2223 34.3533 55.1018 34.337 55.0815C34.2927 55.0252 34.2161 54.4538 34.2161 54.2045C34.2161 54.0883 34.1963 53.9713 34.1723 53.9474C34.1238 53.8988 34.1357 53.7381 34.2604 52.7683C34.2844 52.5794 34.3209 52.4063 34.337 52.3864C34.3532 52.3624 34.3891 52.2576 34.4132 52.1491C34.4654 51.9398 34.5745 51.6664 34.687 51.4609C34.7231 51.3927 34.7712 51.3002 34.7956 51.2518C34.8196 51.1997 34.852 51.1595 34.8717 51.1595C34.8879 51.1595 34.8999 51.1354 34.8999 51.1073C34.8999 51.0629 35.3423 50.4876 35.419 50.4354C35.435 50.4233 35.4633 50.3833 35.4753 50.3429C35.4913 50.2986 35.5394 50.2585 35.5837 50.2465C35.6281 50.2345 35.6641 50.2099 35.6641 50.1938C35.6641 50.1537 36.3401 49.6226 36.5691 49.4899C36.7339 49.3894 37.1043 49.2005 37.6432 48.9428C37.7198 48.9027 38.4715 48.6615 38.8017 48.5688C38.9222 48.5328 39.1596 48.4841 39.3244 48.4602C39.4892 48.4321 39.6462 48.3997 39.6665 48.3841C39.6906 48.3678 39.9316 48.3314 40.2096 48.3073C40.4871 48.2833 40.8288 48.2432 40.9737 48.2228C41.545 48.1384 43.5517 48.1545 43.7651 48.2432C43.8376 48.275 43.8412 48.2592 43.8131 47.9171C43.7974 47.7199 43.7692 47.5509 43.753 47.5388C43.7327 47.5268 43.7087 47.4507 43.6925 47.3699C43.6644 47.2211 43.5115 46.8957 43.367 46.674C43.2742 46.5336 42.884 46.1308 42.8396 46.1308C42.824 46.1308 42.7556 46.0907 42.6869 46.0385C42.5099 45.9096 42.2247 45.7813 42.0515 45.749C41.967 45.7328 41.8986 45.7046 41.8986 45.6885C41.8986 45.5116 39.3004 45.4835 38.5201 45.6566C38.4194 45.6765 38.1863 45.7207 37.9973 45.7531C37.8079 45.7849 37.6191 45.8292 37.5748 45.8497C37.5305 45.8694 37.386 45.906 37.253 45.9299C37.1205 45.954 36.9755 45.9904 36.9311 46.0103C36.8868 46.0306 36.7262 46.075 36.5733 46.111C36.4205 46.1471 36.2755 46.1872 36.2514 46.2075C36.2274 46.2238 36.119 46.2638 36.0063 46.292C35.8978 46.3202 35.7851 46.3604 35.7648 46.3765C35.7408 46.3927 35.6322 46.4286 35.5233 46.4569C35.4111 46.481 35.254 46.5372 35.1738 46.5774C35.0893 46.6217 35.0126 46.6541 35.0006 46.6541C34.9886 46.6541 34.9803 45.8131 34.9803 44.7875C34.9803 43.3351 34.9927 42.913 35.0329 42.8806C35.0611 42.8566 35.1738 42.8165 35.2822 42.7884C35.3949 42.7643 35.5035 42.7279 35.5233 42.7117C35.5478 42.6955 35.6803 42.6476 35.8253 42.611C35.9698 42.5708 36.1064 42.5269 36.1268 42.5108C36.1509 42.4904 36.2755 42.4581 36.4043 42.4304C36.5373 42.4024 36.6741 42.3658 36.7059 42.3459C36.7423 42.3299 36.9071 42.2854 37.072 42.2495C37.2001 42.2245 37.3276 42.1963 37.4543 42.1649C37.4981 42.1524 37.7236 42.1165 37.9567 42.084C38.1904 42.0522 38.4356 42.0079 38.4997 41.9876C38.7334 41.9155 40.8407 41.7826 41.3154 41.8107C41.4479 41.8185 41.738 41.8348 41.9591 41.8468V41.8467ZM19.7762 50.2345V58.2393H15.0706V42.229H19.7762V50.2345ZM55.3327 47.217C55.3327 51.98 55.353 52.9014 55.4496 53.0302C55.4694 53.0501 55.4939 53.1303 55.5101 53.2071C55.5664 53.5085 55.8278 53.9474 56.125 54.2448C56.2821 54.4059 56.4589 54.5467 56.5152 54.5624C56.5757 54.575 56.62 54.599 56.62 54.6152C56.62 54.6308 56.7609 54.6872 56.9336 54.7434C57.1913 54.8243 57.3279 54.8399 57.7301 54.8399C58.0119 54.8399 58.257 54.8202 58.3133 54.7961C58.3654 54.7681 58.4901 54.7278 58.5908 54.6996C58.6915 54.6715 58.8726 54.587 58.993 54.5061C59.2183 54.3616 59.6367 53.9756 59.6367 53.9108C59.6367 53.891 59.693 53.8024 59.7572 53.7178C59.8255 53.6291 59.8782 53.541 59.8782 53.517C59.8782 53.4924 59.9143 53.408 59.9543 53.3276C59.9987 53.2472 60.0468 53.1106 60.0629 53.026C60.0749 52.9373 60.103 52.8492 60.1234 52.8289C60.2241 52.7 60.2402 51.8877 60.2402 47.1689V42.229H64.9458V58.2394H62.7176C60.9763 58.2394 60.4771 58.2274 60.4532 58.1872C60.437 58.1631 60.4172 57.7808 60.4089 57.3425C60.4009 56.908 60.3807 56.5501 60.365 56.5501C60.3489 56.5501 60.3003 56.5982 60.2524 56.6585C60.027 56.9644 59.6728 57.3103 59.1179 57.7688C59.0375 57.8329 58.8727 57.9215 58.5107 58.0985C58.3458 58.1788 58.1648 58.2716 58.1085 58.2998C58.0521 58.328 57.8993 58.3723 57.7662 58.4005C57.6337 58.4287 57.5169 58.4646 57.5049 58.4809C57.4648 58.541 56.7528 58.6013 56.049 58.6013C55.3573 58.6013 54.7941 58.5533 54.6291 58.4845C54.5848 58.4647 54.432 58.4162 54.287 58.3802C54.1425 58.3441 54.0095 58.2956 53.9855 58.2795C53.9657 58.2633 53.8692 58.2231 53.7764 58.1949C53.6798 58.1709 53.6037 58.135 53.6037 58.1188C53.6037 58.1026 53.5312 58.0667 53.4425 58.0384C53.3544 58.0104 53.2817 57.9738 53.2817 57.9576C53.2817 57.942 53.2374 57.9095 53.1853 57.8855C52.8395 57.7286 52.0549 56.9924 51.7252 56.5178C51.5239 56.2282 51.214 55.6486 51.1499 55.4357C51.1259 55.3512 51.0774 55.2266 51.0493 55.1619C51.0211 55.0936 50.9731 54.9491 50.9486 54.8401C50.9245 54.7279 50.8885 54.6109 50.8682 54.5708C50.8484 54.5342 50.8118 54.3454 50.7879 54.1483C50.7639 53.9551 50.7196 53.758 50.6955 53.7137C50.6591 53.6536 50.6429 52.2174 50.635 47.9291L50.623 42.229H55.3329L55.3327 47.217Z" fill="#6F6F6F"/>
<path d="M41.5124 50.7027C41.3088 50.7218 41.1002 50.7526 41.0543 50.7718C41.0084 50.7952 40.8587 50.8297 40.721 50.8567C40.588 50.8797 40.4086 50.9261 40.3254 50.9607C39.7002 51.2111 39.3961 51.3771 39.1881 51.5775C38.9881 51.7704 38.7877 52.1288 38.7547 52.3522C38.746 52.4291 38.7168 52.5296 38.6921 52.5717C38.6462 52.6606 38.6629 52.9341 38.738 53.2924C38.8211 53.6817 39.1546 54.1561 39.4501 54.2986C39.9753 54.549 40.0753 54.5874 40.3671 54.63C40.8916 54.703 41.8918 54.661 42.1084 54.553C42.1458 54.5336 42.3003 54.468 42.45 54.4065C42.6002 54.3411 42.7957 54.2366 42.8876 54.1711C42.9794 54.1057 43.0832 54.0286 43.1209 54.0016C43.3582 53.8362 43.7959 53.1654 43.8542 52.888C43.8666 52.8185 43.9001 52.7375 43.925 52.7066C43.954 52.672 43.9748 52.3172 43.9834 51.6814L44 50.7101L43.7748 50.6872C43.4705 50.6523 41.9711 50.6642 41.5124 50.7027Z" fill="#6F6F6F"/>
</svg>
