<svg width="172" height="80" viewBox="0 0 172 80" fill="none" xmlns="http://www.w3.org/2000/svg">
<g clip-path="url(#clip0_4003_13670)">
<path d="M72.6402 57.3511C72.5446 57.171 72.467 57.035 72.248 56.9389C72.0111 56.8309 71.6707 56.7769 71.392 56.7769C70.8087 56.7769 70.4882 56.9569 70.4882 57.279C70.4882 57.5171 70.6196 57.5891 71.2785 57.7452L72.1405 57.9492C72.8472 58.1173 73.2633 58.4694 73.2633 59.0235C73.2633 59.3096 73.1558 59.6797 72.9129 59.9378C72.4789 60.4039 71.7543 60.5 71.1113 60.5C69.9049 60.5 69.1385 60.1419 68.7742 59.1976L69.7735 58.9995C69.9467 59.4717 70.4444 59.7278 71.171 59.7278C71.824 59.7278 72.2241 59.5137 72.2241 59.1656C72.2241 58.8795 71.9992 58.8315 71.611 58.7415L71.0575 58.6154C70.2911 58.4414 69.4411 58.2273 69.4411 57.4271C69.4411 57.021 69.6262 56.0347 71.4438 56.0347C72.0151 56.0347 72.4371 56.1127 72.8353 56.2847C73.2633 56.4708 73.5002 56.7149 73.6794 57.151L72.6382 57.3491L72.6402 57.3511Z" fill="#6F6F6F"/>
<path d="M77.3722 60.3738H76.4027L76.5042 59.9377C76.1598 60.3318 75.7617 60.4698 75.2202 60.4698C74.4 60.4698 73.9421 60.0997 73.9421 59.4475C73.9421 59.2915 73.966 59.1074 74.0317 58.8193L74.3582 57.3789H75.3396L75.0012 58.8733C74.9773 58.9694 74.9654 59.0874 74.9654 59.1714C74.9654 59.5595 75.2142 59.7576 75.7079 59.7576C76.1718 59.7576 76.5938 59.5655 76.7431 58.8973L77.0875 57.3789H78.057L77.3742 60.3718L77.3722 60.3738Z" fill="#6F6F6F"/>
<path d="M80.8719 60.374C80.866 60.326 80.866 60.296 80.866 60.266C80.866 60.194 80.8719 60.146 80.8898 60.056C80.5932 60.336 80.1234 60.4681 79.5521 60.4681C78.708 60.4681 78.2501 60.158 78.2501 59.5838C78.2501 59.2557 78.4114 58.9496 78.6841 58.7716C78.9748 58.5735 79.4386 58.4915 80.1891 58.4915H81.2541C81.2541 58.4915 81.284 58.3835 81.284 58.2814C81.284 58.0434 81.065 57.9413 80.5116 57.9413C80.0716 57.9413 79.7989 58.0014 79.6854 58.2214C79.6854 58.2214 78.7996 58.2094 78.698 58.2094C78.9011 57.5712 79.5123 57.2651 80.6072 57.2651C81.7021 57.2651 82.2714 57.5452 82.2714 58.1734C82.2714 58.3294 82.2595 58.4055 82.1878 58.7056L81.9031 59.9419C81.8733 60.074 81.8673 60.122 81.8673 60.164C81.8673 60.23 81.8792 60.278 81.939 60.374H80.8739H80.8719ZM80.8839 58.9896C79.9383 58.9896 79.2793 59.0196 79.2793 59.4738C79.2793 59.6998 79.4585 59.8079 79.8447 59.8079C80.4638 59.8079 81.0093 59.4918 81.1168 59.0797L81.1407 58.9896H80.8859H80.8839Z" fill="#6F6F6F"/>
<path d="M87.8992 58.3676C87.7379 58.0755 87.3995 57.9915 87.1088 57.9915C86.432 57.9915 85.998 58.3676 85.998 58.9598C85.998 59.4559 86.3364 59.754 86.8899 59.754C87.2701 59.754 87.6145 59.64 87.8175 59.3419L88.793 59.5159C88.4128 60.1621 87.6762 60.4962 86.8481 60.4962C85.7133 60.4962 84.9987 59.928 84.9987 59.0198C84.9987 57.9555 85.8487 57.2393 87.1029 57.2393C88.0604 57.2393 88.7014 57.6034 88.9463 58.2916L87.8992 58.3696V58.3676Z" fill="#6F6F6F"/>
<path d="M91.0605 60.4878C89.866 60.4878 89.1514 59.9376 89.1514 59.0113C89.1514 57.935 90.0014 57.2368 91.3093 57.2368C92.5396 57.2368 93.2583 57.775 93.2583 58.6892C93.2583 59.7776 92.3903 60.4878 91.0585 60.4878H91.0605ZM91.2815 57.955C90.6046 57.955 90.1587 58.3491 90.1587 58.9413C90.1587 59.4555 90.5389 59.7716 91.1461 59.7716C91.805 59.7716 92.2569 59.3654 92.2569 58.7733C92.2569 58.2711 91.8767 57.955 91.2815 57.955Z" fill="#6F6F6F"/>
<path d="M95.2231 57.3812L95.1216 57.8113C95.472 57.4232 95.8403 57.2852 96.3997 57.2852C97.2199 57.2852 97.6837 57.6553 97.6837 58.3075C97.6837 58.4635 97.6538 58.6476 97.5881 58.9356L97.2617 60.3761H96.2802L96.6187 58.8816C96.6425 58.7796 96.6545 58.6676 96.6545 58.5775C96.6545 58.1954 96.4116 57.9974 95.9179 57.9974C95.3764 57.9974 95.0141 58.2414 94.8708 58.8756L94.5324 60.3761H93.5629L94.2517 57.3832H95.2212L95.2231 57.3812Z" fill="#6F6F6F"/>
<path d="M99.2226 59.0415C99.2584 59.5377 99.5908 59.7878 100.204 59.7878C100.65 59.7878 100.953 59.6557 101.15 59.3696L102.143 59.4717C101.763 60.1639 101.102 60.5 100.098 60.5C98.9339 60.5 98.2133 59.9378 98.2133 59.0235C98.2133 57.9492 99.0454 57.249 100.329 57.249C101.811 57.249 102.215 58.0913 102.215 58.8675V59.0415H99.2246H99.2226ZM101.215 58.5054C101.12 58.1173 100.823 57.9252 100.317 57.9252C99.8118 57.9252 99.4734 58.1353 99.3181 58.5054H101.215Z" fill="#6F6F6F"/>
<path d="M105.127 58.7793L106.363 60.3737H105.103L104.42 59.3094L103.262 60.3737H101.9L103.879 58.7373L102.792 57.3809H104.082L104.618 58.2411L105.515 57.3809H106.859L105.129 58.7793H105.127Z" fill="#6F6F6F"/>
<path d="M109.216 60.3742C109.21 60.3262 109.21 60.2961 109.21 60.2661C109.21 60.1941 109.216 60.1461 109.234 60.0561C108.937 60.3362 108.468 60.4682 107.896 60.4682C107.052 60.4682 106.594 60.1581 106.594 59.5839C106.594 59.2558 106.755 58.9498 107.028 58.7717C107.319 58.5736 107.783 58.4916 108.533 58.4916H109.598C109.598 58.4916 109.628 58.3836 109.628 58.2816C109.628 58.0435 109.409 57.9415 108.856 57.9415C108.416 57.9415 108.143 58.0015 108.03 58.2215C108.03 58.2215 107.144 58.2095 107.042 58.2095C107.245 57.5713 107.856 57.2653 108.951 57.2653C110.046 57.2653 110.616 57.5453 110.616 58.1735C110.616 58.3296 110.604 58.4056 110.532 58.7057L110.247 59.942C110.217 60.0741 110.211 60.1221 110.211 60.1641C110.211 60.2301 110.223 60.2781 110.283 60.3742H109.218H109.216ZM109.228 58.9898C108.282 58.9898 107.623 59.0198 107.623 59.4739C107.623 59.7 107.803 59.808 108.189 59.808C108.808 59.808 109.353 59.4919 109.461 59.0798L109.485 58.9898H109.23H109.228ZM110.303 56.397C110.048 56.8211 109.726 56.9832 109.423 56.9832C109.079 56.9832 108.882 56.6611 108.603 56.6611C108.448 56.6611 108.223 56.7511 108.055 56.9772L107.747 56.6971C107.962 56.345 108.3 56.0869 108.627 56.0869C109.001 56.0869 109.192 56.379 109.471 56.379C109.614 56.379 109.827 56.307 109.971 56.1109L110.303 56.397Z" fill="#6F6F6F"/>
<path d="M113.02 60.4878C111.826 60.4878 111.111 59.9376 111.111 59.0113C111.111 57.935 111.961 57.2368 113.269 57.2368C114.499 57.2368 115.218 57.775 115.218 58.6892C115.218 59.7776 114.35 60.4878 113.018 60.4878H113.02ZM113.239 57.955C112.562 57.955 112.117 58.3491 112.117 58.9413C112.117 59.4555 112.497 59.7716 113.104 59.7716C113.763 59.7716 114.215 59.3654 114.215 58.7733C114.215 58.2711 113.835 57.955 113.239 57.955Z" fill="#6F6F6F"/>
<path d="M120.772 58.3676C120.611 58.0755 120.273 57.9915 119.982 57.9915C119.305 57.9915 118.871 58.3676 118.871 58.9598C118.871 59.4559 119.21 59.754 119.763 59.754C120.143 59.754 120.488 59.64 120.691 59.3419L121.666 59.5159C121.286 60.1621 120.549 60.4962 119.721 60.4962C118.587 60.4962 117.872 59.928 117.872 59.0198C117.872 57.9555 118.722 57.2393 119.976 57.2393C120.934 57.2393 121.575 57.6034 121.819 58.2916L120.772 58.3696V58.3676Z" fill="#6F6F6F"/>
<path d="M123.934 60.4878C122.739 60.4878 122.025 59.9376 122.025 59.0113C122.025 57.935 122.875 57.2368 124.182 57.2368C125.413 57.2368 126.131 57.775 126.131 58.6892C126.131 59.7776 125.263 60.4878 123.932 60.4878H123.934ZM124.155 57.955C123.478 57.955 123.032 58.3491 123.032 58.9413C123.032 59.4555 123.412 59.7716 124.019 59.7716C124.678 59.7716 125.13 59.3654 125.13 58.7733C125.13 58.2711 124.75 57.955 124.155 57.955Z" fill="#6F6F6F"/>
<path d="M128.096 57.3812L127.995 57.8113C128.297 57.4592 128.654 57.2852 129.147 57.2852C129.677 57.2852 130.021 57.4772 130.218 57.8773C130.533 57.4892 130.985 57.2852 131.562 57.2852C132.323 57.2852 132.774 57.6673 132.774 58.3075C132.774 58.4635 132.745 58.6476 132.679 58.9356L132.352 60.3761H131.371L131.715 58.8816C131.739 58.7796 131.751 58.6676 131.751 58.5835C131.751 58.2254 131.542 58.0214 131.18 58.0214C130.656 58.0214 130.366 58.2654 130.216 58.8996L129.878 60.3761H128.897L129.235 58.8816C129.259 58.7796 129.271 58.6676 129.271 58.5835C129.271 58.2254 129.068 58.0214 128.705 58.0214C128.182 58.0214 127.879 58.2835 127.742 58.8756L127.403 60.3761H126.434L127.123 57.3832H128.092L128.096 57.3812Z" fill="#6F6F6F"/>
<path d="M137.465 60.4878C136.27 60.4878 135.556 59.9376 135.556 59.0113C135.556 57.935 136.406 57.2368 137.714 57.2368C138.944 57.2368 139.662 57.775 139.662 58.6892C139.662 59.7776 138.794 60.4878 137.463 60.4878H137.465ZM137.684 57.955C137.007 57.955 136.561 58.3491 136.561 58.9413C136.561 59.4555 136.941 59.7716 137.548 59.7716C138.207 59.7716 138.659 59.3654 138.659 58.7733C138.659 58.2711 138.279 57.955 137.684 57.955Z" fill="#6F6F6F"/>
<path d="M144.799 56.8088C144.697 56.7728 144.631 56.7608 144.526 56.7608C144.259 56.7608 144.11 56.8628 144.026 57.2089L143.984 57.3829H144.667L144.536 57.9691H143.853L143.294 60.3758H142.312L142.872 57.9691H142.396L142.527 57.3829H143.003L143.069 57.0969C143.236 56.3807 143.592 56.0806 144.287 56.0806C144.512 56.0806 144.685 56.1046 144.946 56.1706L144.797 56.8108L144.799 56.8088Z" fill="#6F6F6F"/>
<path d="M148.117 60.3738H147.148L147.249 59.9377C146.905 60.3318 146.507 60.4698 145.965 60.4698C145.145 60.4698 144.687 60.0997 144.687 59.4475C144.687 59.2915 144.711 59.1074 144.777 58.8193L145.103 57.3789H146.085L145.746 58.8733C145.722 58.9694 145.71 59.0874 145.71 59.1714C145.71 59.5595 145.959 59.7576 146.453 59.7576C146.917 59.7576 147.339 59.5655 147.488 58.8973L147.833 57.3789H148.802L148.119 60.3718L148.117 60.3738Z" fill="#6F6F6F"/>
<path d="M151.195 57.9673H150.482L150.186 59.2457C150.168 59.3177 150.162 59.3958 150.162 59.4438C150.162 59.5998 150.245 59.6658 150.446 59.6658C150.518 59.6658 150.671 59.6538 150.773 59.6418L150.606 60.352C150.42 60.382 150.112 60.4001 149.911 60.4001C149.387 60.4001 149.121 60.19 149.121 59.7779C149.121 59.6338 149.144 59.5558 149.21 59.2697L149.507 57.9673H149.061L149.192 57.3812H149.644L149.835 56.5449H150.811L150.62 57.3812H151.326L151.195 57.9673Z" fill="#6F6F6F"/>
<path d="M154.9 60.3738H153.93L154.032 59.9377C153.687 60.3318 153.289 60.4698 152.748 60.4698C151.927 60.4698 151.469 60.0997 151.469 59.4475C151.469 59.2915 151.493 59.1074 151.559 58.8193L151.886 57.3789H152.867L152.529 58.8733C152.505 58.9694 152.493 59.0874 152.493 59.1714C152.493 59.5595 152.742 59.7576 153.235 59.7576C153.699 59.7576 154.121 59.5655 154.27 58.8973L154.615 57.3789H155.584L154.902 60.3718L154.9 60.3738Z" fill="#6F6F6F"/>
<path d="M157.294 57.3808L157.175 57.901C157.454 57.4649 157.864 57.2788 158.549 57.2788H158.584L158.381 58.1691C158.274 58.1571 158.232 58.1571 158.145 58.1571C157.306 58.1571 157.052 58.4672 156.908 59.0713L156.606 60.3737H155.618L156.307 57.3808H157.294Z" fill="#6F6F6F"/>
<path d="M160.512 60.4878C159.317 60.4878 158.602 59.9376 158.602 59.0113C158.602 57.935 159.452 57.2368 160.76 57.2368C161.991 57.2368 162.709 57.775 162.709 58.6892C162.709 59.7776 161.841 60.4878 160.51 60.4878H160.512ZM160.731 57.955C160.054 57.955 159.608 58.3491 159.608 58.9413C159.608 59.4555 159.988 59.7716 160.595 59.7716C161.254 59.7716 161.706 59.3654 161.706 58.7733C161.706 58.2711 161.326 57.955 160.731 57.955Z" fill="#6F6F6F"/>
<path d="M163.936 60.3738H162.96L163.157 59.5195H164.133L163.936 60.3738Z" fill="#6F6F6F"/>
<path d="M53.3698 26.0459C52.1933 24.7375 50.6903 24.4554 50.0891 24.3534C49.2132 24.1993 47.9849 24.1733 47.8097 24.1733H36.2893L32.2083 42.2746H38.4691L39.9463 35.8127H46.6332C47.2344 35.8127 50.4395 35.8888 52.5178 34.0442C53.7958 32.8899 54.5464 31.0434 54.5464 29.2488C54.5464 27.4543 53.8695 26.6081 53.3698 26.0439V26.0459ZM47.9291 30.9173C47.3538 31.6855 46.5277 31.7115 46.227 31.7376C46.0519 31.7636 45.9006 31.7636 45.7254 31.7896H40.9177L41.72 28.2265H46.3525C46.9039 28.2265 47.5051 28.2525 47.9311 28.6627C48.3313 29.0208 48.3313 29.5349 48.3313 29.689C48.3313 30.3291 48.0804 30.7153 47.9311 30.9193L47.9291 30.9173Z" fill="#6F6F6F"/>
<path d="M63.441 29.7929C63.0846 30.101 62.7781 30.4591 62.4735 30.8172L62.9572 28.6926H57.0965L53.9869 42.2666H59.8736C60.1284 41.0882 61.1218 36.4528 61.5299 35.3265C61.5816 35.1985 61.7847 34.6343 62.141 34.2762C62.9313 33.482 64.3069 33.456 64.5876 33.456C65.4277 33.456 66.3972 33.686 66.5744 33.7381L67.7987 28.4105C67.4921 28.3585 67.1875 28.3345 66.881 28.3345C65.6328 28.3345 64.3587 28.9487 63.441 29.7949V29.7929Z" fill="#6F6F6F"/>
<path d="M87.0771 31.0995C86.7207 30.6134 86.2609 30.2033 85.7273 29.8692C83.8421 28.5628 81.497 28.3067 79.2535 28.2807C76.7312 28.2547 74.3105 28.4848 72.0669 29.7411C68.7802 31.5857 68.3462 34.2484 68.3462 35.7589C68.3462 38.0135 69.3137 39.446 69.8233 40.0621C70.4862 40.8304 71.3522 41.2925 71.6588 41.4446C72.8313 42.0587 74.5892 42.6229 77.5454 42.6229C78.5388 42.6229 82.4386 42.6989 85.5223 40.2922C87.943 38.3977 88.2755 35.989 88.2755 34.8106C88.2755 34.4005 88.2496 33.6323 87.9192 32.684C87.74 32.0958 87.4852 31.5837 87.0771 31.0955V31.0995ZM80.5793 38.1176C79.5859 38.9118 78.2601 38.9378 77.852 38.9378C77.418 38.9378 76.0165 38.9638 75.049 37.8375C74.5911 37.2993 74.3861 36.6071 74.3861 35.8909C74.3861 34.6606 75.0231 33.3302 76.0683 32.638C77.0358 31.9978 78.2342 31.9458 78.6164 31.9458C79.4326 31.9458 79.9681 32.0738 80.2727 32.2018C80.8839 32.4579 82.0305 33.2522 82.0305 35.0187C82.0305 36.171 81.495 37.4014 80.5773 38.1176H80.5793Z" fill="#6F6F6F"/>
<path d="M105.263 24.1855L103.887 29.9992C103.326 29.5891 103.021 29.3851 102.714 29.231C101.108 28.3348 99.2226 28.3088 98.6373 28.3088C94.8151 28.3088 92.6233 30.0753 91.6538 31.2536C90.0234 33.1742 89.8184 35.2748 89.8184 36.2231C89.8184 40.2943 92.7487 42.651 96.571 42.651C98.3805 42.651 99.7561 42.1128 100.343 41.7807C100.572 41.6787 100.853 41.4986 101.337 41.1405L101.082 42.2668H106.994L111.199 24.1855H105.261H105.263ZM101.617 37.7835C101.287 38.1156 100.445 38.7558 99.0435 38.7558C97.5663 38.7558 96.776 38.1156 96.4694 37.7055C96.2405 37.3974 95.9339 36.8352 95.9339 35.887C95.9339 34.2485 96.8258 33.3762 97.3095 32.9921C98.3029 32.2499 99.4237 32.2499 99.8318 32.2499C100.544 32.2499 102.762 32.404 102.762 34.9387C102.762 35.911 102.302 37.0893 101.615 37.7815L101.617 37.7835Z" fill="#6F6F6F"/>
<path d="M129.587 32.5858C129.052 31.4075 128.16 30.5892 127.804 30.3071C125.815 28.6426 123.344 28.3105 120.82 28.3105C118.296 28.3105 115.979 28.6947 113.94 30.1551C112.055 31.4875 110.805 33.5101 110.805 35.8668C110.805 36.4049 110.88 37.5833 111.543 38.8636C111.697 39.1457 111.977 39.6579 112.537 40.222C113.251 40.9382 114.066 41.3744 114.398 41.5284C116.665 42.6547 119.265 42.6307 120.004 42.6307C123.088 42.6307 124.973 42.0666 126.171 41.5044C128.261 40.5301 128.922 39.3278 129.408 38.4315L123.215 38.0474C122.833 38.3795 122.552 38.5595 122.349 38.6876C121.61 39.1237 120.768 39.1477 120.464 39.1477C118.857 39.1477 117.916 38.4315 117.559 37.9194C117.304 37.5352 117.177 37.1251 117.024 36.665H130.276C130.2 35.2566 130.149 33.8482 129.587 32.5938V32.5858ZM117.432 33.9942C117.585 33.6861 117.713 33.38 117.967 33.0979C118.401 32.6118 119.369 31.9196 120.975 31.9196C122.122 31.9196 123.37 32.2517 124.007 33.2C124.135 33.404 124.21 33.5581 124.364 33.9942H117.432Z" fill="#6F6F6F"/>
<path d="M145.706 34.6604C144.866 34.3523 143.26 34.0722 142.444 33.9442L139.589 33.4841C139.232 33.406 138.85 33.304 138.619 32.9459C138.518 32.7919 138.492 32.6898 138.492 32.6138C138.492 32.3317 138.721 31.8956 139.308 31.6915C139.768 31.5375 140.507 31.5635 140.556 31.5635C141.958 31.5635 142.824 31.8456 143.182 32.4338C143.31 32.6638 143.31 32.7919 143.361 33.0739L148.993 32.8439C148.866 32.0236 148.738 31.2554 148.278 30.6152C147.948 30.1791 147.462 29.771 146.953 29.4629C145.296 28.4646 143.333 28.3105 141.625 28.3105C139.28 28.3105 137.905 28.4646 136.86 28.7207C136.451 28.8227 134.106 29.3609 133.113 31.1794C132.705 31.8956 132.653 32.5378 132.653 32.8439C132.653 33.382 132.781 33.8422 133.035 34.3043C133.877 35.9428 135.89 36.3529 137.495 36.685L140.628 37.2992C141.239 37.4272 141.52 37.5292 141.699 37.8373C141.751 37.9394 141.801 38.1194 141.801 38.2475C141.801 38.5035 141.647 38.9657 141.062 39.1697C140.628 39.3238 140.196 39.3238 140.043 39.3238C138.998 39.3238 138.285 39.1697 137.851 39.0157C137.035 38.7076 136.907 38.1714 136.832 37.8113L130.74 38.0414C130.893 38.9377 131.021 39.6799 131.556 40.3461C132.167 41.1403 133.161 41.6004 133.493 41.7285C135.761 42.7268 138.514 42.6768 138.972 42.6768C140.935 42.6768 143.228 42.5747 145.215 41.6525C146.947 40.8842 147.534 39.8859 147.789 39.1177C147.966 38.6056 147.992 38.1694 147.992 37.9134C147.992 37.1971 147.763 36.607 147.635 36.3769C147.406 35.8387 146.947 35.1465 145.698 34.6604H145.706Z" fill="#6F6F6F"/>
<path d="M167.075 29.4869C166.362 28.9748 165.086 28.3346 162.946 28.3086C160.882 28.3086 159.506 28.9488 158.817 29.3589C158.537 29.5129 158.282 29.693 158.053 29.8711L158.308 28.6927H152.421L148.217 46.9521H154.103L155.557 40.7022C157.442 42.5728 160.195 42.6488 160.959 42.6488C161.927 42.6488 164.859 42.5208 167.127 40.3701C168.681 38.8837 169.625 36.7591 169.625 34.5564C169.625 31.6616 167.995 30.1251 167.077 29.4849L167.075 29.4869ZM161.316 38.3215C160.679 38.5776 159.99 38.5776 159.761 38.5776C158.539 38.5776 157.798 38.1675 157.416 37.8354C156.727 37.1952 156.677 36.2209 156.677 35.9408C156.677 34.8145 157.416 32.3298 160.627 32.3818C162.257 32.3818 163.482 33.228 163.482 35.0206C163.482 36.403 162.616 37.8114 161.316 38.3235V38.3215Z" fill="#6F6F6F"/>
<path d="M20.4967 28.7207C19.5272 28.7207 18.6294 29.0288 17.8928 29.549L15.1098 26.7142C15.6493 25.9659 15.9658 25.0457 15.9658 24.0514C15.9658 21.5366 13.9372 19.498 11.4349 19.498C8.9325 19.498 6.90394 21.5366 6.90394 24.0514C6.90394 26.5661 8.9325 28.6047 11.4349 28.6047C12.4661 28.6047 13.4176 28.2586 14.1781 27.6744L16.9253 30.4733C16.3241 31.2455 15.9658 32.2178 15.9658 33.2741C15.9658 33.9583 16.1171 34.6065 16.3858 35.1886L10.2165 39.2738C9.39037 38.3836 8.21185 37.8254 6.90593 37.8254C4.40356 37.8254 2.375 39.864 2.375 42.3787C2.375 44.8935 4.40356 46.9321 6.90593 46.9321C9.40829 46.9321 11.4369 44.8935 11.4369 42.3787C11.4369 41.6605 11.2696 40.9803 10.975 40.3762L17.1204 36.307C17.9506 37.2392 19.155 37.8254 20.4967 37.8254C22.9991 37.8254 25.0276 35.7868 25.0276 33.2721C25.0276 30.7573 22.9991 28.7187 20.4967 28.7187V28.7207Z" fill="#6F6F6F"/>
</g>
<defs>
<clipPath id="clip0_4003_13670">
<rect width="172" height="41" fill="white" transform="translate(0 19.5)"/>
</clipPath>
</defs>
</svg>
