<svg width="172" height="80" viewBox="0 0 172 80" fill="none" xmlns="http://www.w3.org/2000/svg">
<g clip-path="url(#clip0_6008_1121)">
<path fill-rule="evenodd" clip-rule="evenodd" d="M21.0409 55.6365C24.8257 62.1173 31.0173 62.1173 34.8021 55.6365L36.9192 52.0094L17.9776 19.5H-0.0118408L21.0409 55.6365ZM60.9466 41.7491C59.5628 44.1105 56.3102 44.1105 54.9264 41.7491L41.9459 19.5H23.9682L45.0387 55.6482C48.8235 62.129 55.0033 62.129 58.7881 55.6482L72.8923 31.4361L65.9555 19.5H47.9838L60.9466 41.7491Z" fill="#6F6F6F"/>
<path d="M79.8231 20.4727L83.3891 34.2136L86.6771 20.4552L90.3672 20.5958L93.8741 33.9499L97.1621 20.4552L100.557 20.4434L95.5417 39.1064L91.8752 38.9834L88.7587 25.8929C88.0668 25.8285 88.3329 25.8753 88.2383 26.2797C87.2566 30.5162 86.2158 34.7176 84.9621 38.8838C84.6073 39.2998 81.5913 39.294 81.2838 38.8838L76.4405 20.8243C76.4109 20.2794 76.4405 20.4903 76.8308 20.4376C77.2211 20.3849 79.7167 20.3673 79.829 20.4669L79.8231 20.4727Z" fill="#6F6F6F"/>
<path d="M81.1596 41.4854V54.0836C81.1596 54.1949 81.8397 55.6423 81.9876 55.8591C83.5606 58.1854 87.6351 57.7107 88.9894 55.3493C89.0958 55.1676 89.5453 53.9195 89.5453 53.8258V41.4912H92.9516V53.3101C92.9516 60.4062 82.916 63.1133 79.1017 57.4236C78.7646 56.9197 77.7474 54.5582 77.7474 54.0895V41.4912H81.1537L81.1596 41.4854Z" fill="#6F6F6F"/>
<path d="M113.135 33.4341H102.39C103.129 37.2429 108.209 37.6648 110.113 34.5006L112.603 35.901C109.912 40.2665 103.23 40.8056 100.231 36.4811C97.2331 32.1567 99.8469 25.5705 105.388 25.1134C110.592 24.6856 113.301 28.6233 113.129 33.4341H113.135ZM102.39 30.8383H109.729C109.126 26.801 103.194 26.7717 102.39 30.8383Z" fill="#6F6F6F"/>
<path d="M147.996 33.4345H137.511C137.689 37.2315 143.437 37.712 144.998 34.4541L147.458 35.5205C147.115 37.9054 143.821 39.3293 141.58 39.4172C131.533 39.8039 131.74 25.0962 141.042 25.1079C145.767 25.1079 148.398 29.0339 147.99 33.4345H147.996ZM144.59 30.8387C144.365 26.8424 137.736 26.8424 137.511 30.8387H144.59Z" fill="#6F6F6F"/>
<path d="M120.941 46.2319C130.935 45.0541 132 59.2579 123.206 60.4181C112.922 61.7717 111.603 47.3335 120.941 46.2319ZM120.929 49.3375C115.329 50.3688 118.008 59.9611 123.898 56.9551C127.825 54.9511 126.216 48.3648 120.929 49.3375Z" fill="#6F6F6F"/>
<path d="M107.895 60.1835H104.489V51.2241C104.489 50.1577 102.538 49.0092 101.473 49.0092C100.332 49.0092 98.1969 50.31 98.1969 51.4819V60.1835H94.7906V46.4192H97.6765L97.8066 48.2416C99.8232 45.4524 104.678 45.4465 106.701 48.2533C107.091 48.7982 107.895 50.6382 107.895 51.2241V60.1835Z" fill="#6F6F6F"/>
<path d="M158.221 25.3833H161.107L161.237 26.942C163.573 24.1059 169.173 24.4927 170.681 27.9792C170.817 28.2956 171.332 29.9832 171.332 30.1882V39.1477H167.925V30.4461C167.925 30.1121 167.222 28.9284 166.867 28.6413C165.69 27.6862 163.484 27.7799 162.414 28.8815C162.041 29.2683 161.373 31.032 161.373 31.4832V39.1418H158.227V25.3833H158.221Z" fill="#6F6F6F"/>
<path d="M143.803 60.1837H140.657V52.5251C140.657 52.4372 140.332 50.9781 140.279 50.8258C139.587 48.939 136.991 48.5991 135.43 49.6832C135.087 49.9234 134.111 51.2125 134.111 51.4879V60.1895H130.705V46.4252H133.59V48.2417C136.122 45.2415 141.604 45.4466 143.259 49.1792C143.366 49.4195 143.809 50.5973 143.809 50.7086V60.1895L143.803 60.1837Z" fill="#6F6F6F"/>
<path d="M124.933 29.5374L122.059 30.0589C121.834 29.0042 121.574 27.9377 120.332 27.7385C119.09 27.5393 116.849 27.7795 117.724 29.5433C118.434 30.973 125.027 30.6507 125.465 34.3423C126.328 41.6493 113.845 39.9793 113.933 35.3678C113.951 34.5064 116.352 34.4654 117.05 34.5064C116.937 37.2721 122.816 37.2721 122.011 34.6587C121.603 33.3227 116.204 33.2934 114.856 31.0902C111.024 24.8204 124.838 22.2773 124.939 29.5433L124.933 29.5374Z" fill="#6F6F6F"/>
<path d="M130.959 21.4863V25.383L133.017 25.4182L133.318 27.9788L131.385 28.014L130.994 28.4007C131.059 29.5434 130.663 36.1413 131.255 36.5105L133.313 36.5456L133.324 38.9715C132.248 40.0204 128.073 39.2997 128.073 37.7176V27.9788H126.5V25.383H128.073L128.185 22.2539L130.953 21.4922L130.959 21.4863Z" fill="#6F6F6F"/>
<path d="M149.309 25.3832H152.195V26.6841C153.62 25.4711 155.045 25.2074 156.914 25.3832V28.2427C155.79 27.8853 152.721 28.5299 152.721 29.9303V39.1475H149.315V25.3832H149.309Z" fill="#6F6F6F"/>
<path d="M113.135 46.4194V60.1838H109.989V47.0699C109.989 47.0054 109.776 46.9175 109.788 46.812L110.154 46.4546L113.135 46.4253V46.4194Z" fill="#6F6F6F"/>
<path d="M110.704 41.5381C114.211 40.5127 114.17 46.0676 110.77 45.0012C109.214 44.5148 109.392 41.9248 110.704 41.5381Z" fill="#6F6F6F"/>
</g>
<defs>
<clipPath id="clip0_6008_1121">
<rect width="172" height="41" fill="white" transform="translate(0 19.5)"/>
</clipPath>
</defs>
</svg>
