<svg width="172" height="80" viewBox="0 0 172 80" fill="none" xmlns="http://www.w3.org/2000/svg">
<path d="M141.497 32.1631H145.023V42.1775C145.023 43.2839 145.166 44.1067 145.424 44.6173C145.854 45.5251 146.772 45.979 148.177 45.979C149.581 45.979 150.499 45.5251 150.9 44.6173C151.158 44.1067 151.301 43.2839 151.301 42.1775V32.1631H154.828V42.1775C154.828 43.9081 154.541 45.2698 153.996 46.206C152.964 47.9649 151.043 48.8444 148.177 48.8444C145.31 48.8444 143.36 47.9649 142.328 46.206C141.783 45.2414 141.497 43.9081 141.497 42.1775V32.1631ZM134.731 37.2412C134.473 36.1348 133.842 35.3405 132.81 34.9149C132.237 34.6596 131.606 34.5461 130.918 34.5461C129.571 34.5461 128.481 35.0568 127.621 36.0497C126.761 37.0426 126.331 38.5179 126.331 40.5037C126.331 42.518 126.79 43.9364 127.736 44.7592C128.653 45.5819 129.714 46.0074 130.918 46.0074C132.094 46.0074 133.04 45.667 133.785 45.0145C134.53 44.362 134.989 43.4825 135.161 42.4328H131.32V39.7094H138.229V48.4472H135.935L135.591 46.4046C134.932 47.1706 134.33 47.7379 133.785 48.05C132.868 48.589 131.75 48.8727 130.402 48.8727C128.195 48.8727 126.417 48.1351 125.012 46.6315C123.55 45.1279 122.834 43.0854 122.834 40.4754C122.834 37.837 123.579 35.7377 125.041 34.1206C126.503 32.5319 128.481 31.7376 130.889 31.7376C132.982 31.7376 134.674 32.2766 135.964 33.3262C137.254 34.3759 137.971 35.6809 138.171 37.2412H134.731ZM120.512 35.0568H111.739V38.5179H119.795V41.3548H111.739V45.5535H120.913V48.4755H108.356V32.1915H120.512V35.0568ZM95.398 43.4258C95.5127 44.1634 95.7133 44.7308 96.0287 45.0996C96.6021 45.7804 97.5481 46.0925 98.9242 46.0925C99.7269 46.0925 100.415 46.0074 100.902 45.8372C101.877 45.4968 102.336 44.8726 102.336 43.9364C102.336 43.3974 102.106 42.9719 101.619 42.6882C101.132 42.4045 100.386 42.1492 99.3542 41.9222L97.6055 41.525C95.8854 41.1279 94.6813 40.7307 94.0219 40.2768C92.9038 39.5392 92.3591 38.3476 92.3591 36.759C92.3591 35.3121 92.9038 34.0922 93.9646 33.1277C95.054 32.1631 96.6307 31.6808 98.7235 31.6808C100.472 31.6808 101.963 32.1347 103.196 33.0425C104.429 33.9504 105.088 35.2554 105.145 36.9859H101.82C101.762 35.993 101.332 35.3121 100.53 34.8866C99.9849 34.6029 99.3256 34.4894 98.5228 34.4894C97.6341 34.4894 96.9174 34.6596 96.3727 35.0284C95.828 35.3688 95.57 35.8795 95.57 36.5036C95.57 37.0994 95.828 37.5249 96.344 37.8086C96.6881 38.0072 97.4048 38.2342 98.4942 38.4895L101.361 39.1704C102.622 39.4541 103.568 39.8512 104.199 40.3619C105.174 41.1279 105.69 42.2343 105.69 43.6811C105.69 45.1563 105.117 46.4046 103.941 47.3975C102.794 48.3904 101.16 48.8727 99.0389 48.8727C96.8887 48.8727 95.1973 48.3904 93.9359 47.4259C92.7031 46.4613 92.0724 45.128 92.0724 43.4258H95.398ZM87.7435 47.0003C86.4821 48.277 84.676 48.9011 82.3252 48.9011C79.9457 48.9011 78.1396 48.277 76.9069 47.0003C75.2154 45.44 74.384 43.1988 74.384 40.2768C74.384 37.298 75.2154 35.0568 76.9069 33.5532C78.1683 32.2766 79.9744 31.6524 82.3252 31.6524C84.7047 31.6524 86.5108 32.2766 87.7435 33.5532C89.4063 35.0568 90.2377 37.298 90.2377 40.2768C90.2663 43.2272 89.435 45.44 87.7435 47.0003ZM85.5934 44.5322C86.3961 43.5393 86.7975 42.1208 86.7975 40.2768C86.7975 38.4611 86.3961 37.0426 85.5934 36.0497C84.7907 35.0568 83.7013 34.5461 82.3252 34.5461C80.9491 34.5461 79.8597 35.0568 79.057 36.0497C78.2256 37.0426 77.8242 38.4611 77.8242 40.3051C77.8242 42.1492 78.2256 43.5676 79.057 44.5606C79.8884 45.5535 80.9778 46.0641 82.3252 46.0641C83.7013 46.0358 84.7907 45.5251 85.5934 44.5322ZM69.2524 32.5886C69.8544 32.844 70.4278 33.2411 70.8578 33.7234C71.2305 34.149 71.4885 34.6029 71.7179 35.0852C71.9186 35.5958 72.0332 36.1632 72.0332 36.7873C72.0332 37.5533 71.8326 38.3193 71.4312 39.0853C71.0298 39.8229 70.3705 40.3619 69.4531 40.6739C70.2271 40.986 70.7431 41.4115 71.0872 41.9789C71.4025 42.518 71.5745 43.369 71.5745 44.5322V45.6386C71.5745 46.3762 71.6032 46.8869 71.6605 47.1422C71.7465 47.5677 71.9472 47.8798 72.2912 48.0784V48.4755H68.4783C68.3637 48.1067 68.3063 47.8231 68.249 47.5961C68.163 47.1422 68.1057 46.6599 68.1057 46.206L68.077 44.7024C68.0483 43.6527 67.8763 42.9719 67.5036 42.6314C67.1309 42.291 66.4429 42.1208 65.4108 42.1208H61.8273V48.5039H58.4444V32.2198H66.5862C67.733 32.1915 68.6217 32.3333 69.2524 32.5886ZM61.8273 35V39.369H65.7548C66.5289 39.369 67.1309 39.2838 67.5036 39.1136C68.1917 38.8016 68.5357 38.2058 68.5357 37.2696C68.5357 36.2767 68.1917 35.6242 67.5323 35.2837C67.1596 35.0852 66.5862 35 65.8409 35C65.8695 35 61.8273 35 61.8273 35ZM54.2875 41.4115C53.2841 42.2059 51.8793 42.6031 50.0446 42.6031H46.547V48.4472H43.1068V32.1631H50.3312C51.994 32.1631 53.3128 32.5886 54.3162 33.4114C55.2909 34.2624 55.8069 35.5391 55.8069 37.298C55.7782 39.2555 55.2909 40.6172 54.2875 41.4115ZM51.6787 35.5391C51.22 35.1703 50.5893 35 49.7865 35H46.547V39.7945H49.7865C50.5893 39.7945 51.2486 39.5959 51.6787 39.1987C52.1374 38.8016 52.3667 38.1774 52.3667 37.3547C52.3667 36.5036 52.1374 35.9079 51.6787 35.5391ZM168.99 32.5886C169.592 32.844 170.165 33.2411 170.595 33.7234C170.968 34.149 171.226 34.6029 171.455 35.0852C171.656 35.5958 171.771 36.1632 171.771 36.7873C171.771 37.5533 171.57 38.3193 171.169 39.0853C170.767 39.8229 170.108 40.3619 169.19 40.6739C169.965 40.986 170.481 41.4115 170.796 41.9789C171.111 42.518 171.283 43.369 171.283 44.5322V45.6386C171.283 46.3762 171.312 46.8869 171.369 47.1422C171.455 47.5677 171.685 47.8798 172 48.0784V48.4755H168.187C168.072 48.1067 168.015 47.8231 167.958 47.5961C167.872 47.1422 167.814 46.6599 167.814 46.206L167.786 44.7024C167.757 43.6527 167.585 42.9719 167.212 42.6314C166.84 42.291 166.152 42.1208 165.148 42.1208H161.565V48.5039H158.182V32.2198H166.295C167.47 32.1915 168.388 32.3333 168.99 32.5886ZM161.593 35V39.369H165.492C166.266 39.369 166.868 39.2838 167.241 39.1136C167.929 38.8016 168.273 38.2058 168.273 37.2696C168.273 36.2767 167.929 35.6242 167.27 35.2837C166.897 35.0852 166.324 35 165.578 35H161.593ZM18.71 31.2553L13.3777 33.695L15.8145 38.8299L22.2075 35.9079C21.2615 34.1773 20.0861 32.617 18.71 31.2553ZM18.882 30.3758L23.6123 28.1914C20.5734 26.2055 16.8465 25.6381 13.091 26.5459C14.4671 27.1417 16.6745 28.3048 18.882 30.3758ZM13.0623 33.0425L18.1366 30.7163C16.5312 29.241 14.6964 28.0495 12.6896 27.1701C12.4316 27.0566 12.2023 26.9715 11.9442 26.8864C11.4282 27.0566 10.9122 27.2552 10.3961 27.4821L13.0623 33.0425ZM24.673 44.3052L19.5414 46.6599L22.2362 52.3338C22.8096 52.0785 23.3543 51.7664 23.8703 51.426C23.9276 51.2558 23.985 51.0855 24.0423 50.887C24.6157 48.7309 24.845 46.5181 24.673 44.3052ZM29.9767 41.8655L25.3897 43.9648C25.6191 46.8869 25.2177 49.2699 24.8164 50.7451C27.6259 48.5607 29.4893 45.3833 29.9767 41.8655ZM25.3037 43.1988L30.0627 41.0144C30.2347 38.9434 29.9193 36.9008 29.1453 34.9717L23.7556 37.4398C24.5583 39.2838 25.0744 41.2413 25.3037 43.1988ZM19.226 46.0074L24.6157 43.5393C24.3863 41.5534 23.899 39.5959 23.1249 37.7519L16.7032 40.7023L19.226 46.0074ZM6.84126 35.9079C6.66925 33.6667 6.8986 31.3687 7.5293 29.2127C4.74847 31.3687 2.88502 34.4894 2.34032 37.9788C2.34032 37.9505 6.84126 35.9079 6.84126 35.9079ZM8.33202 42.2626C7.58664 40.4754 7.12795 38.5746 6.8986 36.6738L2.25431 38.8016C2.0823 40.7591 2.34032 42.7449 3.05703 44.674L8.33202 42.2626ZM12.6896 48.9862C11.3135 47.5394 10.1381 45.8939 9.19207 44.135L3.88842 46.5748L1.91029 47.4826C1.76695 47.2273 1.62361 46.972 1.50894 46.6883C-2.24663 38.7448 1.25092 29.2978 9.30674 25.6097C16.3592 22.3756 24.1283 24.1062 28.6006 29.9786L26.5938 30.9432C25.9058 30.0921 25.1317 29.3545 24.2717 28.702L19.398 30.9432C20.7741 32.3333 21.9208 33.8936 22.8382 35.5958L29.518 32.5319L30.206 32.2482C30.4067 32.5886 30.5787 32.9291 30.7507 33.2979C34.5063 41.2413 31.0087 50.6884 22.9529 54.3764C15.9005 57.6105 8.13134 55.9367 3.6304 50.0359L5.60852 49.0429C6.26789 49.8373 7.01327 50.5749 7.81599 51.2274C7.87332 51.199 12.6896 48.9862 12.6896 48.9862ZM18.9393 53.4686C16.8179 52.504 14.8971 51.1423 13.263 49.5252L8.56137 51.6813C11.5429 53.6955 15.2124 54.3197 18.9393 53.4686ZM13.951 49.2132C15.5851 50.7451 17.4486 52.0217 19.5127 52.9579C19.7134 53.043 19.9141 53.1281 20.0574 53.1849C20.5734 53.0147 21.0608 52.8445 21.5768 52.6459L18.882 46.972L13.951 49.2132ZM9.88011 43.823C10.8262 45.5819 12.0016 47.2273 13.4063 48.6741L18.5666 46.3195L16.0438 41.0144L9.88011 43.823ZM7.61531 36.3334C7.81599 38.2625 8.27468 40.1633 8.99139 41.9506L15.1551 39.142L12.7183 34.0071L7.61531 36.3334ZM8.5327 28.5034C8.47536 28.6736 8.38935 28.929 8.30335 29.2127C7.67264 31.2836 7.4433 33.4397 7.55797 35.5958L12.4029 33.383L9.76544 27.8226C9.33541 27.9928 8.93406 28.2481 8.5327 28.5034Z" fill="#6F6F6F"/>
</svg>
