<svg width="115" height="80" viewBox="0 0 115 80" fill="none" xmlns="http://www.w3.org/2000/svg">
<path d="M33.3097 45.0577V51.5183H32.259V37.4901H33.3097C33.3097 38.841 33.4183 40.1855 33.2802 41.5037C33.1343 42.8887 33.6806 43.8312 34.6211 44.741C37.9174 47.9332 41.7507 50.1721 46.2762 50.9298C51.0175 51.7232 55.5213 50.9547 59.4818 48.0047C60.8553 46.9815 61.892 45.6571 62.654 44.1324C62.772 43.8948 62.7068 43.4865 62.5842 43.221C62.024 42.0083 61.099 41.1187 59.9785 40.4091C55.4685 37.5523 50.9523 34.7032 46.4609 31.8152C43.3694 29.8278 40.2826 27.8327 37.2578 25.7459C35.3194 24.4076 33.665 22.7183 33.0489 20.3598C31.9889 16.2997 32.5973 12.4864 35.127 9.07055C36.9273 6.64066 39.398 5.15323 42.252 4.33809C48.255 2.62242 53.9709 3.37234 59.3437 6.56769C60.1538 7.049 60.8895 7.65764 61.7105 8.24299V3.68753H62.8558V15.3991C63.8149 15.3991 64.6995 15.3945 65.5841 15.4007C67.6622 15.4147 69.7155 15.6227 71.6911 16.3105C75.6176 17.6753 78.6532 20.0819 80.0453 24.1017C81.6547 28.7503 80.6831 32.989 77.5544 36.7433C76.4991 38.0103 75.1582 38.9294 73.7319 39.7322C73.5659 39.8253 73.4045 39.9231 73.1732 40.0567C73.78 40.375 74.3418 40.6436 74.8788 40.9572C78.1348 42.8561 79.7535 45.8015 80.0841 49.4641C80.2579 51.3894 80.1912 53.3364 80.2098 55.2741C80.2331 57.6792 80.2315 60.0858 80.2408 62.4924C80.2424 62.7998 80.2408 63.1072 80.2408 63.455C78.3862 63.6413 76.7024 63.3308 75.1752 62.379C72.7977 60.8978 71.4366 58.7319 71.0486 55.9604C70.9601 55.33 70.9105 54.6903 70.9089 54.0553C70.8965 49.8445 70.9027 45.6338 70.9027 41.4214V40.7212H68.775C67.6514 40.7212 66.5277 40.7321 65.4041 40.715C65.0673 40.7103 64.9401 40.8206 64.8702 41.1544C63.7885 46.3666 60.5511 49.6722 55.6113 51.3056C49.197 53.4265 43.1972 52.2434 37.635 48.6055C36.2211 47.6802 34.9966 46.4644 33.6852 45.3807C33.603 45.3124 33.5207 45.2394 33.3097 45.0577ZM41.5816 15.382H61.743C61.743 13.6167 61.7462 11.9119 61.7353 10.2071C61.7337 10.0704 61.6701 9.8919 61.5708 9.8034C60.9562 9.24444 60.3696 8.63581 59.6883 8.17001C53.8777 4.20922 47.6497 3.52295 41.0834 5.93731C38.4482 6.90616 36.426 8.65133 35.0696 11.1418C34.8476 11.5486 34.8306 11.8653 35.0463 12.314C35.74 13.7549 36.9614 14.6352 38.2294 15.4519C43.9887 19.1596 49.7666 22.8378 55.5337 26.5331C57.7328 27.9429 59.949 29.3248 61.8517 31.1507C63.4005 32.6366 64.5893 34.3181 64.9168 36.4825C65.0689 37.487 65.0875 38.5102 65.1698 39.5552H70.8422V37.914C70.8422 31.219 70.8391 24.524 70.8499 17.8306C70.8499 17.4548 70.7987 17.1924 70.3812 17.1303C69.104 16.9425 67.8298 16.6226 66.5479 16.5869C63.3928 16.5 60.233 16.5419 57.0748 16.5357C56.9072 16.5357 56.7411 16.5574 56.5269 16.5729V25.3888C55.4716 25.024 55.3692 24.892 55.3692 23.934V16.5636H48.6181V20.3521C47.7832 20.0679 47.3347 19.6378 47.4526 18.7218C47.5426 18.0215 47.4713 17.2996 47.4713 16.5326C46.3476 16.5326 45.2783 16.4534 44.2277 16.5543C43.1491 16.6599 42.3762 16.2251 41.5816 15.382ZM63.5325 42.4788C63.6954 41.2662 63.922 40.1545 63.9763 39.035C64.0989 36.5213 63.5216 34.197 61.622 32.4192C60.4689 31.3401 59.263 30.2812 57.9454 29.4211C51.8385 25.4339 45.6803 21.5274 39.5501 17.5759C37.6738 16.3664 35.6283 15.3525 34.3634 13.3791C34.351 13.359 34.2951 13.3683 34.1291 13.345C33.9941 14.3294 33.8032 15.3122 33.7333 16.3028C33.5549 18.8522 34.0484 21.2433 35.8983 23.1173C36.9381 24.17 38.0928 25.1513 39.3328 25.954C45.0968 29.6866 50.9135 33.3368 56.6992 37.0368C58.3598 38.0988 60.0204 39.1701 61.5987 40.347C62.3049 40.8718 62.8108 41.6668 63.5325 42.4788ZM71.9984 40.8966C71.9984 45.5235 71.972 50.1023 72.0124 54.681C72.0279 56.3532 72.5152 57.9276 73.4696 59.3265C74.8043 61.2813 76.6729 62.2672 79.0784 62.3961V61.7285C79.0784 59.1666 79.0924 56.6063 79.0738 54.0444C79.0629 52.4747 79.1234 50.8926 78.9418 49.3399C78.4716 45.3139 76.1514 42.2614 71.9984 40.8966ZM72.0077 39.3425C76.4044 37.7153 80.0236 33.0123 79.6371 27.325C79.3034 22.4155 75.6206 18.8646 72.0077 17.7607V39.3425Z" fill="#6F6F6F"/>
<path d="M10.7814 67.4236C11.902 67.4236 13.0038 67.3599 14.0949 67.4422C15.158 67.5214 15.9898 68.335 16.2086 69.3131C16.429 70.2929 16.0534 71.1049 15.0167 71.8362C15.6406 72.7787 16.2661 73.7227 16.9598 74.7722C16.1947 74.7722 15.5134 74.7924 14.8352 74.7552C14.6986 74.7474 14.5434 74.5347 14.4487 74.3841C13.9086 73.5286 13.3841 72.6622 12.7307 71.83V74.7567H10.7814L10.7814 67.4236ZM12.695 70.6733C13.2801 70.636 13.8854 70.8301 14.1942 70.2199C14.292 70.0258 14.2594 69.6594 14.1337 69.4808C13.7674 68.9622 13.2103 69.1998 12.695 69.1889C12.695 69.6889 12.695 70.1454 12.695 70.6733Z" fill="#6F6F6F"/>
<path d="M5.43185 72.3035C6.04332 72.9153 6.64237 73.2274 7.39197 73.0209C7.57045 72.9712 7.78617 72.8221 7.84669 72.6653C7.88549 72.5644 7.71012 72.3051 7.56889 72.2213C7.10641 71.948 6.6191 71.7135 6.13333 71.4791C4.80641 70.841 4.26633 69.5833 4.86694 68.5011C5.40236 67.5385 6.56943 67.1581 7.49595 67.245C8.61491 67.3491 9.09447 67.672 9.56316 68.4965C9.20466 68.8396 8.83529 69.1936 8.61026 69.4079C8.01431 69.265 7.55493 69.1206 7.08468 69.0663C6.9419 69.0492 6.67497 69.2619 6.63927 69.4094C6.60978 69.5336 6.80378 69.7821 6.95742 69.8643C7.51923 70.1593 8.13381 70.3612 8.67544 70.6857C9.61593 71.2462 9.98839 72.0675 9.80061 72.9603C9.60661 73.8903 8.84771 74.5968 7.84359 74.7722C6.71066 74.971 5.65223 74.8375 4.74123 74.058C4.35479 73.7273 4.27874 73.4478 4.75054 73.0969C5.02368 72.8951 5.20837 72.5722 5.43185 72.3035Z" fill="#6F6F6F"/>
<path d="M44.6234 74.9042C42.4926 74.9104 40.818 73.2553 40.8118 71.136C40.8041 68.9809 42.474 67.2932 44.6141 67.2916C46.7372 67.29 48.4707 69.0213 48.4552 71.1266C48.4397 73.2165 46.7325 74.8996 44.6234 74.9042ZM44.6234 73.7428C46.0978 73.7382 47.271 72.5489 47.254 71.0754C47.2369 69.6035 46.0435 68.4343 44.5737 68.4483C43.1491 68.4623 41.9711 69.6594 41.9665 71.094C41.9618 72.5628 43.1506 73.7475 44.6234 73.7428Z" fill="#6F6F6F"/>
<path d="M85.3499 67.4081C86.1569 67.4081 86.9111 67.3925 87.6638 67.4112C89.8924 67.4671 91.328 69.015 91.2333 71.2462C91.1433 73.3873 89.8614 74.6962 87.7321 74.7878C86.9468 74.8219 86.1584 74.7924 85.3499 74.7924V67.4081ZM86.5076 73.6295C87.8035 73.6807 89.0684 73.7227 89.7512 72.406C90.2587 71.4294 90.223 70.3984 89.5526 69.4964C88.7766 68.4499 87.6328 68.5368 86.5076 68.5943V73.6295Z" fill="#6F6F6F"/>
<path d="M98.8705 74.7862C98.8596 74.6729 98.8441 74.5968 98.8441 74.5207C98.8426 72.1747 98.8426 69.8286 98.8426 67.4112C100.124 67.4376 101.399 67.2248 102.629 67.6798C104.175 68.2527 105.035 69.9466 104.734 71.7819C104.436 73.5953 103.214 74.6977 101.365 74.78C100.537 74.8173 99.707 74.7862 98.8705 74.7862ZM100.053 68.5943V73.6031C102.311 73.8375 103.578 72.9712 103.607 71.1996C103.638 69.2992 102.46 68.425 100.053 68.5943Z" fill="#6F6F6F"/>
<path d="M68.7672 74.8064V67.4407C69.6099 67.4407 70.4728 67.3211 71.2891 67.4671C72.689 67.717 73.5628 69.3287 72.3864 70.5366C72.7666 70.8518 73.2586 71.1033 73.5022 71.507C73.7428 71.903 73.8592 72.4681 73.8049 72.9308C73.6714 74.0611 72.7325 74.7785 71.5064 74.8033C70.6001 74.8204 69.6922 74.8064 68.7672 74.8064ZM69.9172 73.7444C70.6125 73.6854 71.2721 73.6947 71.9006 73.5581C72.4717 73.4339 72.7464 72.923 72.6828 72.361C72.6192 71.7881 72.2296 71.4993 71.7128 71.448C71.1262 71.3906 70.5302 71.4356 69.9156 71.4356C69.9172 72.1824 69.9172 72.8935 69.9172 73.7444ZM69.9079 70.3689C70.5799 70.3162 71.3233 70.6143 71.6973 69.8597C71.8184 69.6144 71.764 69.1408 71.5964 68.9172C71.165 68.3427 70.51 68.5461 69.9079 68.5384V70.3689Z" fill="#6F6F6F"/>
<path d="M55.4328 74.9756C53.8219 73.291 52.3025 71.7027 50.6978 70.0258V74.7862H49.5431V67.2481C51.1416 68.9172 52.6688 70.5133 54.2828 72.2011V67.4174H55.4328C55.4328 69.9001 55.4328 72.3579 55.4328 74.9756Z" fill="#6F6F6F"/>
<path d="M107.018 73.6466H110.204V74.7831H105.874V67.4282H110.217V68.5446H107.023V70.4264H109.762V71.6111H107.017C107.018 72.2911 107.018 72.923 107.018 73.6466Z" fill="#6F6F6F"/>
<path d="M22.1759 73.6326V74.766H17.8227V67.4391H22.1681V68.5601H18.9882V70.4466H21.7352V71.5769H19.0006V73.6326H22.1759Z" fill="#6F6F6F"/>
<path d="M91.0424 74.7552C92.1955 72.2492 93.3362 69.7712 94.5312 67.1736C95.7278 69.7712 96.8638 72.2414 97.9999 74.7117C97.0516 74.9803 96.8654 74.8856 96.4355 74.0673C96.3455 73.8966 96.0786 73.7273 95.8861 73.7196C94.9767 73.6838 94.0657 73.6901 93.1562 73.7149C92.9886 73.7196 92.7108 73.8515 92.6813 73.9726C92.4687 74.853 91.865 74.9213 91.0424 74.7552ZM94.5343 69.7929C94.0703 70.827 93.6637 71.7322 93.2493 72.6544H95.8147C95.3926 71.712 94.9937 70.8208 94.5343 69.7929Z" fill="#6F6F6F"/>
<path d="M67.9338 74.8064C67.6436 74.8064 67.4667 74.7831 67.2975 74.8111C66.8226 74.8871 66.5184 74.7148 66.416 74.2381C66.3151 73.763 66.0156 73.6714 65.5686 73.6916C64.7368 73.7289 63.9018 73.6854 63.07 73.7164C62.8868 73.7227 62.6277 73.8577 62.5439 74.0099C62.0643 74.8856 62.0783 74.8934 60.9345 74.7536C62.0829 72.257 63.2221 69.7774 64.4202 67.1736C65.6121 69.7634 66.7543 72.243 67.9338 74.8064ZM64.4233 69.7898C63.9639 70.8146 63.5588 71.7166 63.1352 72.6622H65.7052C65.2908 71.7337 64.8858 70.827 64.4233 69.7898Z" fill="#6F6F6F"/>
<path d="M30.4447 68.5974C30.1576 68.7977 29.9062 68.9747 29.6206 69.1734C29.2435 68.6191 28.7407 68.3195 28.0609 68.4406C27.5907 68.5244 27.2043 68.7433 27.1251 69.2542C27.046 69.7634 27.4448 69.9622 27.8111 70.1423C28.3651 70.4155 28.9455 70.636 29.4856 70.9326C30.5596 71.5241 30.9367 72.2989 30.6977 73.3097C30.4975 74.1527 29.6082 74.808 28.5514 74.8887C27.0816 75.002 26.1505 74.572 25.5918 73.4913C25.8649 73.2941 26.1443 73.0923 26.4609 72.864C26.9559 73.5689 27.6404 73.8407 28.4722 73.7273C28.9502 73.6621 29.3956 73.5084 29.5431 72.9836C29.6936 72.4448 29.3289 72.139 28.9331 71.9185C28.3434 71.5909 27.7164 71.3316 27.122 71.0133C26.1753 70.5071 25.778 69.7914 25.9503 68.9638C26.1319 68.085 26.9125 67.4205 27.8933 67.3087C29.1395 67.1643 29.9512 67.5633 30.4447 68.5974Z" fill="#6F6F6F"/>
<path d="M48.6352 49.7855C48.1789 49.7514 47.8561 49.7265 47.5038 49.7001V34.8615C48.376 35.0323 48.6352 35.332 48.6352 36.172L48.6352 49.7855Z" fill="#6F6F6F"/>
<path d="M39.8806 72.8889C40.1026 73.2025 40.3028 73.4836 40.4983 73.7584C39.4445 75.1946 37.0545 75.3048 35.5088 74.0037C33.8358 72.5939 33.707 70.0662 35.2279 68.4716C36.7131 66.9143 39.0969 66.8833 40.5123 68.4328C40.3167 68.703 40.115 68.9793 39.8822 69.2992C39.1962 68.72 38.4575 68.3195 37.5574 68.484C36.8683 68.6098 36.2987 68.9716 35.8719 69.5321C35.054 70.6065 35.1767 72.0706 36.1668 73.0084C37.053 73.8484 38.4528 74.176 39.8806 72.8889Z" fill="#6F6F6F"/>
<path d="M59.5331 68.5306V74.766H58.3831V68.5819H56.4152V67.4298H61.4746V68.5306H59.5331Z" fill="#6F6F6F"/>
<path d="M81.7912 73.6388V74.7754H77.3681V67.422H78.4918V73.6388H81.7912Z" fill="#6F6F6F"/>
<path fill-rule="evenodd" clip-rule="evenodd" d="M15.9572 39.7104C16.2273 39.9216 16.5159 40.1126 16.7611 40.3501C17.0404 40.6203 17.281 40.9308 17.5386 41.2242C17.5107 43.2722 17.4533 45.3186 17.4704 47.3666C17.4813 48.3835 17.6303 49.4006 17.7141 50.4191C18.1859 53.4483 18.8935 56.4153 20.014 59.2737C20.2546 59.8855 20.523 60.4864 20.7713 61.095C21.0057 61.6695 20.8738 62.0995 20.4052 62.3215C19.8915 62.5637 19.3204 62.3465 19.0798 61.7534C18.5583 60.4616 18.0182 59.1728 17.5806 57.8515C16.5982 54.8906 16.0163 51.8397 15.7229 48.7329C15.7136 48.6366 15.726 48.5388 15.7291 48.4425H15.7305C15.4653 45.5225 15.5554 42.6133 15.9572 39.7104ZM16.7158 48.9973C16.8871 49.1858 17.0251 49.4038 17.0979 49.6209C17.1613 49.8078 17.1954 50.024 17.3014 50.185C17.1956 50.0242 17.1619 49.8083 17.0994 49.6225C17.0266 49.4053 16.8886 49.1873 16.7173 48.9988L16.7158 48.9973Z" fill="#6F6F6F"/>
<path d="M25.3342 18.6255C25.4738 18.7031 25.6507 18.7497 25.7438 18.8646C26.0185 19.2016 26.2591 19.5649 26.5136 19.9189C25.1665 21.8612 23.8194 23.8035 22.4723 25.7458L22.4739 25.7475C21.5505 27.783 20.6255 29.8201 19.7036 31.8572C19.6077 32.0645 19.5348 32.2841 19.4529 32.4977C18.9191 34.7025 18.369 36.9032 17.8584 39.1142C17.697 39.8051 17.6442 40.5209 17.5418 41.2242C17.2842 40.9308 17.0435 40.6203 16.7641 40.3501C16.5189 40.1141 16.2287 39.9231 15.9603 39.7104C16.2985 36.8294 16.9748 34.0307 18.0065 31.3188C18.9004 29.3144 19.789 27.3079 20.6922 25.3081C20.8257 25.01 21.0213 24.7399 21.1874 24.4573C21.3177 24.5815 21.4527 24.7026 21.5799 24.8314C21.8408 25.0951 22.0994 25.3623 22.3586 25.6289C22.0991 25.3618 21.8411 25.0941 21.5784 24.8299C21.4511 24.701 21.3176 24.5799 21.1857 24.4557C22.3698 22.3705 23.7341 20.4142 25.3342 18.6255Z" fill="#6F6F6F"/>
<path d="M30.2337 13.6897C30.2337 14.525 30.2414 15.2128 30.2258 15.9007C30.2227 16.0202 30.1498 16.1645 30.0629 16.2545C28.885 17.4796 27.6994 18.6985 26.5152 19.9189C26.2607 19.5664 26.0202 19.2015 25.7455 18.8646C25.6524 18.7497 25.4754 18.7032 25.3357 18.6255C26.4174 17.4704 27.4867 16.3027 28.5886 15.1662C29.0666 14.6724 29.6114 14.2439 30.2337 13.6897Z" fill="#6F6F6F"/>
<path d="M95.3342 40.2881C95.5638 40.6668 95.7651 41.0675 96.0304 41.4199C96.4324 41.954 96.881 42.4558 97.3078 42.9697C97.435 45.7892 97.4475 48.6043 96.8888 51.3896C96.459 53.2869 96.0258 55.1826 95.5943 57.0799C95.0139 58.6744 94.454 60.2772 93.841 61.8593C93.6391 62.3808 93.0461 62.545 92.5822 62.3183C92.1508 62.1072 92.0018 61.6876 92.1818 61.1924C92.8832 59.2704 93.5849 57.3501 94.2863 55.4297C94.3949 55.5243 94.5219 55.6035 94.6056 55.7168C94.7748 55.9404 94.9407 56.1666 95.1047 56.3945C94.9409 56.1664 94.776 55.9392 94.6076 55.7148C94.5238 55.6031 94.3943 55.5224 94.2873 55.4277C94.4828 54.5474 94.704 53.6736 94.8654 52.7871C95.0594 51.7328 95.2019 50.6688 95.3664 49.6084L95.4836 46.6836C95.5212 45.7084 95.5514 44.7329 95.5568 43.7578C95.5645 42.6012 95.4148 41.4446 95.3342 40.2881ZM65.3674 5.08203C66.3991 5.35521 67.3658 5.57694 68.3107 5.86719C71.4238 6.82357 74.4069 8.0876 77.2004 9.77832C77.2468 9.8093 77.2845 9.85624 77.3262 9.895L77.3254 9.89453C78.6414 10.7671 80.013 11.5674 81.2638 12.5254C86.5947 16.6026 90.7185 21.6784 93.5539 27.7724C94.1945 29.149 94.6687 30.6049 95.2209 32.0234H95.2248C96.308 35.0651 96.9867 38.1923 97.2258 41.414C97.2645 41.931 97.2828 42.4512 97.3107 42.9697C96.8824 42.4542 96.4353 41.954 96.0334 41.4199C95.7681 41.0675 95.5667 40.6668 95.3371 40.2881C95.1183 39.1143 94.9721 37.9214 94.6633 36.7724C94.1294 34.7837 93.5137 32.8165 92.8976 30.8525C92.6265 29.9937 92.2738 29.1616 91.9592 28.3183L91.9552 28.3154H91.9572C91.8749 28.1943 91.7906 28.0779 91.7052 27.9599C90.8812 26.5424 90.108 25.092 89.2218 23.7148C86.6953 19.7915 83.5355 16.4536 79.7892 13.6728C79.6185 13.5455 79.4629 13.3983 79.3 13.2617C77.5299 12.2032 75.7952 11.0763 73.9816 10.1016C71.4365 8.7353 68.7187 7.78826 65.9113 7.11133C65.5112 7.01506 65.3095 6.86067 65.3576 6.41211C65.3994 6.01323 65.3674 5.60503 65.3674 5.08203Z" fill="#6F6F6F"/>
<path d="M55.3924 48.6754V39.8657C56.229 40.0443 56.5347 40.4045 56.5347 41.201V47.1926C56.5347 47.9255 56.1539 48.4197 55.3924 48.6754Z" fill="#6F6F6F"/>
<path d="M24.538 74.7816H23.4175V67.4298H24.538V74.7816Z" fill="#6F6F6F"/>
<path d="M75.9016 74.7769H74.7857V67.4282H75.9016V74.7769Z" fill="#6F6F6F"/>
<path d="M83.8584 74.7847H82.786V67.4407H83.8584V74.7847Z" fill="#6F6F6F"/>
<path d="M60.2334 54.6162H64.9512V55.3125H55.9307V55.3145L45.2354 55.3086C43.8014 55.3101 42.3656 55.3109 40.9316 55.3125C39.5753 55.3125 38.2186 55.3109 36.8623 55.3125V54.6143C38.2171 54.6158 39.5738 54.6162 40.9316 54.6162C42.3656 54.6162 43.7999 54.6186 45.2354 54.6201C47.5988 54.6186 49.9627 54.6174 52.3262 54.6143V54.6162H55.9307V54.6143C57.3647 54.6158 58.7994 54.6162 60.2334 54.6162Z" fill="#6F6F6F"/>
<path d="M36.8605 55.313H32.8254C32.8115 55.0787 32.8006 54.892 32.7835 54.6143H36.8605V55.313Z" fill="#6F6F6F"/>
<path d="M91.7052 27.9599C91.7906 28.0764 91.8743 28.1945 91.9596 28.3109C91.8743 28.1945 91.7906 28.0779 91.7052 27.9599Z" fill="#6F6F6F"/>
</svg>
