<svg width="76" height="81" viewBox="0 0 76 81" fill="none" xmlns="http://www.w3.org/2000/svg">
<path d="M37.8861 2.74972L38.6605 4.09198L40.788 7.77367L55.5881 33.6814H45.5864L39.0789 22.1336L32.8866 11.4092L34.6772 8.30622L37.109 4.09741L37.8888 2.74972M37.8861 0L35.9162 3.40998L33.4871 7.61879L31.2998 11.4092L37.8888 22.8211L44.7957 35.0562H57.9737L41.9808 7.08624L39.856 3.40455L37.8888 0H37.8861Z" fill="#6F6F6F"/>
<path d="M16.5704 39.6728C16.8122 41.3058 17.3149 42.9361 18.2957 44.637C19.2522 46.2944 20.3608 47.4845 21.5644 48.4382H11.5111L12.2502 47.1585L13.7772 44.512L16.5704 39.6755M17.7795 34.8255L12.5871 43.8191L11.0601 46.4656L9.13092 49.8076H26.4308C23.4936 48.2426 21.2384 46.9791 19.4886 43.9441C17.736 40.9118 17.6681 38.1485 17.7822 34.8228L17.7795 34.8255Z" fill="#6F6F6F"/>
<path d="M29.0174 17.8869L34.0332 26.8507L32.5985 29.2363L32.5877 29.2553L32.5768 29.2743C31.3106 31.4643 31.3106 34.0836 32.5768 36.2736C33.843 38.4663 36.1091 39.776 38.6387 39.776H59.2643L61.9977 44.5092L63.5247 47.1557L64.2638 48.4354H36.9704C31.6557 48.4354 26.898 45.6884 24.2407 41.0856C21.5861 36.4855 21.5834 30.9943 24.2353 26.3942L29.0174 17.8869ZM29.031 15.1616L23.0479 25.7013C16.861 36.4176 24.5966 49.8103 36.9677 49.8103H66.644L64.7148 46.4682L63.1878 43.8218L60.0577 38.4011H38.6387C34.3076 38.4011 31.6014 33.7114 33.7669 29.9617L35.6363 26.8778L29.031 15.1643V15.1616Z" fill="#6F6F6F"/>
<path d="M0.518969 79.8785C0.173895 79.566 0 79.1476 0 78.6314V77.5554C0 77.0364 0.171178 76.6207 0.518969 76.3082C0.866759 75.9958 1.32052 75.8354 1.88296 75.8354C2.58126 75.8354 3.13012 76.0746 3.53497 76.5446V76.8625H3.08936C2.85025 76.4577 2.45084 76.2566 1.88568 76.2566C1.46452 76.2566 1.13032 76.3734 0.888496 76.6071C0.646673 76.8408 0.524403 77.1587 0.524403 77.5554V78.6314C0.524403 79.0281 0.646673 79.346 0.888496 79.5796C1.13032 79.8133 1.46452 79.9301 1.88568 79.9301C2.44812 79.9301 2.85025 79.7291 3.08936 79.3242H3.53497V79.6421C3.13012 80.1149 2.57854 80.3513 1.88296 80.3513C1.32052 80.3513 0.864042 80.1937 0.518969 79.8785Z" fill="#6F6F6F"/>
<path d="M4.74132 79.8623C4.38538 79.5362 4.21149 79.1096 4.21149 78.5798V77.6016C4.21149 77.0718 4.3881 76.6452 4.74132 76.3192C5.09727 75.9931 5.56733 75.8301 6.15694 75.8301C6.74655 75.8301 7.21662 75.9931 7.57256 76.3192C7.9285 76.6452 8.10239 77.0718 8.10239 77.6016V78.5798C8.10239 79.1096 7.92578 79.5362 7.57256 79.8623C7.21662 80.1883 6.74655 80.3514 6.15694 80.3514C5.56733 80.3514 5.09727 80.1883 4.74132 79.8623ZM7.18401 79.5498C7.44757 79.2944 7.57527 78.9656 7.57527 78.5608V77.6179C7.57527 77.2131 7.44485 76.8843 7.18401 76.6289C6.92045 76.3735 6.57809 76.2485 6.15694 76.2485C5.73579 76.2485 5.37985 76.3735 5.11629 76.6289C4.85273 76.8843 4.72502 77.2131 4.72502 77.6179V78.5608C4.72502 78.9656 4.85544 79.2971 5.11629 79.5498C5.37985 79.8052 5.72492 79.9302 6.15694 79.9302C6.58896 79.9302 6.92045 79.8052 7.18401 79.5498Z" fill="#6F6F6F"/>
<path d="M8.80069 79.8924L9.36314 79.7891V76.3873L8.80069 76.2868V75.9363H9.87667V76.4579H9.89297C10.344 76.0395 10.8412 75.833 11.3847 75.833C11.8683 75.833 12.2623 75.9797 12.5585 76.2705C12.8546 76.5639 13.0041 76.9688 13.0041 77.485V79.7946L13.5584 79.8978V80.2483H11.9172V79.8978L12.4797 79.7946V77.5068C12.4797 77.1128 12.3791 76.8085 12.1781 76.5884C11.977 76.3683 11.689 76.2596 11.314 76.2596C10.7679 76.2596 10.287 76.4851 9.87667 76.9389V79.7946L10.4391 79.8978V80.2483H8.79798L8.79254 79.8924H8.80069Z" fill="#6F6F6F"/>
<path d="M15.4821 80.3599C14.906 80.3599 14.4251 80.1833 14.0366 79.83V79.4958H14.4794C14.6914 79.792 15.0337 79.9387 15.5065 79.9387C15.8353 79.9387 16.0961 79.8626 16.2836 79.7186C16.4711 79.5719 16.5662 79.3627 16.5662 79.0937C16.5662 78.7649 16.3733 78.534 15.9956 78.4035L15.0011 78.0856C14.3708 77.8737 14.0529 77.5015 14.0529 76.9662C14.0529 76.6075 14.1779 76.3304 14.4251 76.1348C14.6724 75.9391 15.0256 75.8413 15.4902 75.8413C16.1287 75.8413 16.6097 76.0261 16.9303 76.3875V76.7135H16.4874C16.3162 76.4092 15.9874 76.2597 15.4929 76.2625C15.2104 76.2625 14.9876 76.325 14.8245 76.4472C14.6615 76.5695 14.5827 76.7352 14.5827 76.9472C14.5827 77.2678 14.7865 77.4933 15.1968 77.6237L16.2401 77.9661C16.8162 78.1509 17.1042 78.5204 17.1042 79.0855C17.1042 79.4768 16.9629 79.7866 16.6749 80.0121C16.3869 80.2376 15.9956 80.349 15.4929 80.349L15.4793 80.3572L15.4821 80.3599Z" fill="#6F6F6F"/>
<path d="M19.7236 80.3541C19.2427 80.3541 18.8541 80.2073 18.5579 79.9166C18.2618 79.6259 18.1151 79.2183 18.1151 78.6966V76.3871L17.5526 76.2865V75.936H19.1937V76.2865L18.6313 76.3871V78.6803C18.6313 79.077 18.7318 79.3868 18.9329 79.6041C19.134 79.8215 19.4247 79.9302 19.8051 79.9302C20.3485 79.9302 20.824 79.702 21.2316 79.2455V76.3898L20.6637 76.2893V75.9388H22.3076V76.2893L21.7533 76.3898V79.7916L22.3076 79.8949V80.2454H21.2316V79.7237H21.2153C20.7778 80.1421 20.2806 80.3486 19.7236 80.3486V80.3541Z" fill="#6F6F6F"/>
<path d="M22.9704 79.8951L23.5328 79.7918V74.5451L22.9704 74.4418V74.0913H24.0463V79.7945L24.6088 79.8978V80.2483H22.9677V79.8978L22.9704 79.8951Z" fill="#6F6F6F"/>
<path d="M26.6956 80.3459C26.3668 80.3459 26.1114 80.259 25.9321 80.0824C25.7528 79.9085 25.6604 79.6558 25.6604 79.3297V76.3518H24.9675V76.148L25.6604 75.917L25.8098 74.9062H26.1766V75.9333H27.4537V76.3518H26.1766V79.3297C26.1766 79.7264 26.356 79.9275 26.7146 79.9275C26.9537 79.9275 27.1276 79.8433 27.2418 79.6802H27.5515V80.0226C27.3341 80.24 27.0516 80.3486 26.6956 80.3486V80.3459Z" fill="#6F6F6F"/>
<path d="M28.7118 79.8623C28.3558 79.5362 28.1819 79.1096 28.1819 78.5798V77.6016C28.1819 77.0718 28.3586 76.6452 28.7118 76.3192C29.0677 75.9931 29.5378 75.8301 30.1274 75.8301C30.717 75.8301 31.1871 75.9931 31.543 76.3192C31.899 76.6452 32.0729 77.0718 32.0729 77.6016V78.5798C32.0729 79.1096 31.8962 79.5362 31.543 79.8623C31.1871 80.1883 30.717 80.3514 30.1274 80.3514C29.5378 80.3514 29.0677 80.1883 28.7118 79.8623ZM31.1545 79.5498C31.418 79.2944 31.5457 78.9656 31.5457 78.5608V77.6179C31.5457 77.2131 31.4153 76.8843 31.1545 76.6289C30.8909 76.3735 30.5486 76.2485 30.1274 76.2485C29.7062 76.2485 29.3503 76.3735 29.0867 76.6289C28.8232 76.8843 28.6955 77.2131 28.6955 77.6179V78.5608C28.6955 78.9656 28.8259 79.2971 29.0867 79.5498C29.3503 79.8052 29.6954 79.9302 30.1274 79.9302C30.5594 79.9302 30.8909 79.8052 31.1545 79.5498Z" fill="#6F6F6F"/>
<path d="M32.7683 79.8951L33.3308 79.7918V76.39L32.7683 76.2895V75.939H33.8552V76.7242H33.8715C33.9747 76.4851 34.1514 76.2949 34.3986 76.1536C34.6459 76.0123 34.9203 75.9417 35.23 75.9417H35.768V76.9687H35.3415L35.2029 76.3683C34.798 76.3683 34.472 76.4933 34.2247 76.7487C33.9775 77.0041 33.8579 77.3383 33.8579 77.754V79.7946L34.4122 79.8978V80.2483H32.7711L32.7656 79.8978L32.7683 79.8951Z" fill="#6F6F6F"/>
<path d="M36.5126 79.9004L37.075 79.7971V76.3953L36.5126 76.2948V75.9443H37.5886V79.7971L38.151 79.9004V80.2509H36.5099V79.9004H36.5126ZM37.2951 74.9226C37.1837 74.9226 37.0859 74.8819 37.0071 74.8004C36.9283 74.7188 36.8849 74.6265 36.8849 74.5123C36.8849 74.3982 36.9256 74.3031 37.0071 74.2243C37.0886 74.1455 37.1837 74.1021 37.2951 74.1021C37.4065 74.1021 37.5044 74.1428 37.5832 74.2243C37.6619 74.3058 37.7054 74.4009 37.7054 74.5123C37.7054 74.6237 37.6647 74.7216 37.5832 74.8004C37.5016 74.8791 37.4065 74.9172 37.2951 74.9172V74.9226Z" fill="#6F6F6F"/>
<path d="M40.2079 80.3544C39.7514 80.3544 39.3846 80.2295 39.102 79.9795C38.8194 79.7295 38.6754 79.3953 38.6754 78.9823C38.6754 78.5693 38.8058 78.284 39.064 78.0639C39.3221 77.8438 39.6998 77.7161 40.1861 77.689L41.7186 77.602V77.3819C41.7186 76.6347 41.3083 76.2625 40.4877 76.2625C39.9117 76.2625 39.5313 76.4391 39.3493 76.7923H38.9064V76.4581C39.265 76.0478 39.7921 75.844 40.4877 75.8413C41.0475 75.8413 41.4822 75.9745 41.7865 76.2434C42.0908 76.5124 42.2457 76.8901 42.2457 77.3792V79.7974L42.8 79.9007V80.2512H41.724V79.5502C41.4034 80.0882 40.898 80.3544 40.2079 80.3544ZM40.2622 79.9387C40.6915 79.9387 41.042 79.8001 41.3137 79.5257C41.5854 79.2513 41.724 78.8899 41.724 78.4525V78.034L40.2405 78.1101C39.5558 78.1481 39.2134 78.4443 39.2188 78.9986C39.2188 79.2866 39.3112 79.5176 39.4987 79.6833C39.6862 79.8491 39.9416 79.9333 40.2676 79.9333L40.2622 79.9387Z" fill="#6F6F6F"/>
<path d="M46.0741 79.8785C45.7291 79.566 45.5552 79.1476 45.5552 78.6314V77.5554C45.5552 77.0364 45.7264 76.6207 46.0741 76.3082C46.4219 75.9958 46.8757 75.8354 47.4381 75.8354C48.1364 75.8354 48.6853 76.0746 49.0901 76.5446V76.8625H48.6445C48.4054 76.4577 48.006 76.2566 47.4409 76.2566C47.0197 76.2566 46.6855 76.3734 46.4437 76.6071C46.2018 76.8408 46.0796 77.1587 46.0796 77.5554V78.6314C46.0796 79.0281 46.2018 79.346 46.4437 79.5796C46.6855 79.8133 47.0197 79.9301 47.4409 79.9301C48.0033 79.9301 48.4054 79.7291 48.6445 79.3242H49.0901V79.6421C48.6853 80.1149 48.1337 80.3513 47.4381 80.3513C46.8757 80.3513 46.4192 80.1937 46.0741 79.8785Z" fill="#6F6F6F"/>
<path d="M50.2965 79.8623C49.9406 79.5362 49.7667 79.1096 49.7667 78.5798V77.6016C49.7667 77.0718 49.9433 76.6452 50.2965 76.3192C50.6524 75.9931 51.1225 75.8301 51.7121 75.8301C52.3017 75.8301 52.7718 75.9931 53.1277 76.3192C53.4837 76.6452 53.6576 77.0718 53.6576 77.6016V78.5798C53.6576 79.1096 53.481 79.5362 53.1277 79.8623C52.7718 80.1883 52.3017 80.3514 51.7121 80.3514C51.1225 80.3514 50.6524 80.1883 50.2965 79.8623ZM52.7392 79.5498C53.0027 79.2944 53.1304 78.9656 53.1304 78.5608V77.6179C53.1304 77.2131 53 76.8843 52.7392 76.6289C52.4756 76.3735 52.1333 76.2485 51.7121 76.2485C51.291 76.2485 50.935 76.3735 50.6715 76.6289C50.4079 76.8843 50.2802 77.2131 50.2802 77.6179V78.5608C50.2802 78.9656 50.4106 79.2971 50.6715 79.5498C50.935 79.8052 51.2801 79.9302 51.7121 79.9302C52.1441 79.9302 52.4756 79.8052 52.7392 79.5498Z" fill="#6F6F6F"/>
<path d="M54.3558 79.8924L54.9182 79.7891V76.3873L54.3558 76.2868V75.9363H55.4318V76.4579H55.4481C55.8991 76.0395 56.3964 75.833 56.9398 75.833C57.4234 75.833 57.8174 75.9797 58.1136 76.2705C58.4097 76.5639 58.5592 76.9688 58.5592 77.485V79.7946L59.1135 79.8978V80.2483H57.4723V79.8978L58.0348 79.7946V77.5068C58.0348 77.1128 57.9342 76.8085 57.7332 76.5884C57.5321 76.3683 57.2441 76.2596 56.8691 76.2596C56.323 76.2596 55.8421 76.4851 55.4318 76.9389V79.7946L55.9942 79.8978V80.2483H54.3531L54.3477 79.8924H54.3558Z" fill="#6F6F6F"/>
<path d="M61.0046 80.3459C60.6759 80.3459 60.4205 80.259 60.2411 80.0824C60.0618 79.9085 59.9694 79.6558 59.9694 79.3297V76.3518H59.2766V76.148L59.9694 75.917L60.1189 74.9062H60.4857V75.9333H61.7627V76.3518H60.4857V79.3297C60.4857 79.7264 60.665 79.9275 61.0237 79.9275C61.2628 79.9275 61.4367 79.8433 61.5508 79.6802H61.8605V80.0226C61.6432 80.24 61.3606 80.3486 61.0046 80.3486V80.3459Z" fill="#6F6F6F"/>
<path d="M63.901 80.3541C63.4446 80.3541 63.0778 80.2291 62.7952 79.9792C62.5126 79.7292 62.3686 79.395 62.3686 78.982C62.3686 78.569 62.499 78.2837 62.7571 78.0636C63.0153 77.8435 63.3929 77.7158 63.8793 77.6886L65.4118 77.6017V77.3816C65.4118 76.6344 65.0015 76.2621 64.1809 76.2621C63.6049 76.2621 63.2245 76.4388 63.0424 76.792H62.5995V76.4578C62.9582 76.0475 63.4853 75.8437 64.1809 75.841C64.7406 75.841 65.1754 75.9741 65.4797 76.2431C65.784 76.5121 65.9389 76.8898 65.9389 77.3789V79.7971L66.4932 79.9004V80.2509H65.4172V79.5498C65.0966 80.0878 64.5912 80.3541 63.901 80.3541ZM63.9554 79.9384C64.3847 79.9384 64.7352 79.7998 65.0069 79.5254C65.2786 79.251 65.4172 78.8896 65.4172 78.4521V78.0337L63.9337 78.1098C63.2489 78.1478 62.9066 78.444 62.912 78.9983C62.912 79.2863 63.0044 79.5172 63.1919 79.683C63.3794 79.8487 63.6348 79.933 63.9608 79.933L63.9554 79.9384ZM63.6103 75.0313L64.7488 73.5151L65.1917 73.8901L63.901 75.2758L63.6076 75.0286L63.6103 75.0313Z" fill="#6F6F6F"/>
<path d="M68.9522 80.354C68.3626 80.354 67.9007 80.191 67.5611 79.8703C67.2242 79.5497 67.0503 79.1177 67.0503 78.5851V74.5475L66.496 74.4443V74.0938H67.572V76.5663H67.5883C67.8545 76.0827 68.3409 75.8409 69.0419 75.8409C69.6044 75.8409 70.0472 76.0039 70.3651 76.3245C70.683 76.6451 70.8406 77.0771 70.8406 77.6097V78.5879C70.8406 79.1313 70.6749 79.5606 70.3407 79.8785C70.0065 80.1964 69.5419 80.354 68.9495 80.354V80.3594L68.9522 80.354ZM68.974 79.9328C69.4033 79.9328 69.7375 79.8106 69.9766 79.566C70.2157 79.3188 70.3353 78.9846 70.3353 78.5634V77.6206C70.3353 77.1994 70.213 76.8652 69.9766 76.6234C69.7375 76.3816 69.406 76.2593 68.974 76.2593C68.542 76.2593 68.1969 76.3816 67.9469 76.6261C67.6969 76.8734 67.572 77.2076 67.572 77.6287V78.5716C67.572 78.99 67.6969 79.3188 67.9523 79.566C68.2078 79.8133 68.5501 79.9328 68.9794 79.9328H68.974Z" fill="#6F6F6F"/>
<path d="M71.5879 79.9004L72.1503 79.7971V76.3953L71.5879 76.2948V75.9443H72.6638V79.7971L73.2263 79.9004V80.2509H71.5851V79.9004H71.5879ZM72.3677 74.9226C72.2563 74.9226 72.1585 74.8819 72.0797 74.8004C72.0009 74.7188 71.9574 74.6265 71.9574 74.5123C71.9574 74.3982 71.9981 74.3031 72.0797 74.2243C72.1612 74.1455 72.2563 74.1021 72.3677 74.1021C72.4791 74.1021 72.5769 74.1428 72.6557 74.2243C72.7345 74.3058 72.778 74.4009 72.778 74.5123C72.778 74.6237 72.7372 74.7216 72.6557 74.8004C72.5742 74.8791 72.4791 74.9172 72.3677 74.9172V74.9226Z" fill="#6F6F6F"/>
<path d="M73.7779 79.8951L74.3404 79.7918V74.5451L73.7779 74.4418V74.0913H74.8539V79.7945L75.4163 79.8978V80.2483H73.7752V79.8978L73.7779 79.8951Z" fill="#6F6F6F"/>
<path d="M15.3787 65.3177C15.4358 65.3557 15.4901 65.4019 15.5417 65.4536C15.5907 65.5052 15.6368 65.5541 15.6803 65.6003C15.8732 65.8285 16.0227 66.0758 16.1314 66.3448C16.24 66.6138 16.2944 66.8991 16.2944 67.1952C16.2944 67.2659 16.2889 67.3202 16.2808 67.3583C16.2563 67.7957 16.1151 68.1924 15.8542 68.5429C15.6205 68.8717 15.3189 69.1325 14.9521 69.3227C14.5853 69.5157 14.175 69.6108 13.7267 69.6108H12.9007C12.4497 69.6108 12.0421 69.5157 11.6753 69.3227C11.3085 69.1298 11.0069 68.8717 10.7732 68.5429C10.7053 68.4478 10.6401 68.3391 10.5721 68.2142L11.7351 67.3691C11.7595 67.5186 11.8111 67.6571 11.8927 67.7849C11.9715 67.9126 12.0693 68.0267 12.1861 68.1245C12.3029 68.2223 12.4361 68.2984 12.5855 68.3527C12.735 68.4071 12.8953 68.4342 13.061 68.4342H13.561C13.9033 68.4342 14.1995 68.331 14.4495 68.1245C14.6994 67.918 14.8489 67.6599 14.9005 67.3555C14.9005 67.3257 14.9005 67.2931 14.9059 67.2604C14.9114 67.2306 14.9114 67.198 14.9114 67.1653C14.9114 66.9942 14.8788 66.8339 14.8108 66.6844C14.7429 66.535 14.6532 66.4046 14.5364 66.2904C14.4196 66.1763 14.281 66.0839 14.1234 66.0133C13.9658 65.9426 13.7974 65.9046 13.6235 65.8965H12.86C12.5502 65.8883 12.2622 65.8312 11.9905 65.7253C11.7188 65.6193 11.4742 65.478 11.2569 65.296C11.14 65.2172 11.0395 65.1248 10.9553 65.0134C10.7623 64.7879 10.6129 64.5379 10.5042 64.2689C10.3955 63.9999 10.3412 63.7146 10.3412 63.4184V63.2554C10.3819 62.8098 10.5287 62.4158 10.7786 62.0708C11.0123 61.742 11.3139 61.4811 11.6807 61.2909C12.0475 61.098 12.4578 61.0029 12.9061 61.0029H13.7186C14.1696 61.0029 14.5799 61.098 14.9521 61.2909C15.3244 61.4839 15.626 61.742 15.8596 62.0708C15.8841 62.1088 15.9113 62.1523 15.9412 62.2012C15.971 62.2474 15.9982 62.2908 16.0227 62.3289L14.8842 63.163C14.8081 62.8805 14.6505 62.6468 14.4087 62.4593C14.1669 62.2718 13.887 62.1767 13.5691 62.1767H13.0692C12.9034 62.1767 12.7404 62.2039 12.5882 62.2582C12.4334 62.3126 12.2975 62.3887 12.1807 62.4865C12.0638 62.5843 11.966 62.6984 11.8872 62.8316C11.8084 62.9647 11.7568 63.106 11.7296 63.2527C11.7215 63.2826 11.716 63.3152 11.716 63.3478V63.4429C11.716 63.6141 11.7487 63.7744 11.8166 63.9238C11.8845 64.0733 11.9742 64.2037 12.091 64.3178C12.2078 64.4319 12.3464 64.5243 12.504 64.5922C12.6616 64.6629 12.8301 64.7009 13.004 64.7091H13.7675C14.0772 64.7172 14.3652 64.7743 14.6369 64.8803C14.9087 64.9862 15.1532 65.1275 15.3706 65.3096L15.3787 65.3177Z" fill="#6F6F6F"/>
<path d="M23.1551 65.3177C23.2122 65.3557 23.2665 65.4019 23.3181 65.4536C23.367 65.5052 23.4132 65.5541 23.4567 65.6003C23.6496 65.8285 23.7991 66.0758 23.9078 66.3448C24.0164 66.6138 24.0708 66.8991 24.0708 67.1952C24.0708 67.2659 24.0653 67.3202 24.0572 67.3583C24.0327 67.7957 23.8915 68.1924 23.6306 68.5429C23.3969 68.8717 23.0953 69.1325 22.7285 69.3227C22.3617 69.5157 21.9514 69.6108 21.5031 69.6108H20.6771C20.2261 69.6108 19.8185 69.5157 19.4517 69.3227C19.0849 69.1298 18.7833 68.8717 18.5496 68.5429C18.4817 68.4478 18.4165 68.3391 18.3485 68.2142L19.5115 67.3691C19.5359 67.5186 19.5875 67.6571 19.6691 67.7849C19.7479 67.9126 19.8457 68.0267 19.9625 68.1245C20.0793 68.2223 20.2125 68.2984 20.3619 68.3527C20.5114 68.4071 20.6717 68.4342 20.8374 68.4342H21.3374C21.6797 68.4342 21.9759 68.331 22.2259 68.1245C22.4758 67.918 22.6253 67.6599 22.6769 67.3555C22.6769 67.3257 22.6769 67.2931 22.6823 67.2604C22.6878 67.2306 22.6878 67.198 22.6878 67.1653C22.6878 66.9942 22.6552 66.8339 22.5872 66.6844C22.5193 66.535 22.4296 66.4046 22.3128 66.2904C22.196 66.1763 22.0574 66.0839 21.8998 66.0133C21.7422 65.9426 21.5738 65.9046 21.3999 65.8965H20.6363C20.3266 65.8883 20.0386 65.8312 19.7669 65.7253C19.4952 65.6193 19.2506 65.478 19.036 65.296C18.9191 65.2172 18.8186 65.1248 18.7344 65.0134C18.5415 64.7879 18.392 64.5379 18.2833 64.2689C18.1746 63.9999 18.1203 63.7146 18.1203 63.4184V63.2554C18.1611 62.8098 18.3078 62.4158 18.5578 62.0708C18.7914 61.742 19.093 61.4811 19.4598 61.2909C19.8266 61.098 20.2369 61.0029 20.6853 61.0029H21.4977C21.9487 61.0029 22.359 61.098 22.7312 61.2909C23.1035 61.4839 23.4051 61.742 23.6388 62.0708C23.6632 62.1088 23.6904 62.1523 23.7203 62.2012C23.7502 62.2474 23.7773 62.2908 23.8018 62.3289L22.6633 63.163C22.5872 62.8805 22.4296 62.6468 22.1878 62.4593C21.946 62.2718 21.6661 62.1767 21.3482 62.1767H20.8483C20.6825 62.1767 20.5195 62.2039 20.3674 62.2582C20.2125 62.3126 20.0766 62.3887 19.9598 62.4865C19.8429 62.5843 19.7451 62.6984 19.6663 62.8316C19.5875 62.9647 19.5359 63.106 19.5087 63.2527C19.5006 63.2826 19.4952 63.3152 19.4952 63.3478V63.4429C19.4952 63.6141 19.5278 63.7744 19.5957 63.9238C19.6636 64.0733 19.7533 64.2037 19.8701 64.3178C19.987 64.4319 20.1255 64.5243 20.2831 64.5922C20.4407 64.6629 20.6092 64.7009 20.7831 64.7091H21.5466C21.8563 64.7172 22.1443 64.7743 22.4161 64.8803C22.6878 64.9862 22.9323 65.1275 23.1497 65.3096L23.1551 65.3177Z" fill="#6F6F6F"/>
<path d="M27.5188 68.3445H31.5999V69.5754H26.1929V61.0083H31.513V62.2174H27.5188V65.1274H31.1108V66.3012H27.5188V68.3418V68.3445Z" fill="#6F6F6F"/>
<path d="M38.7569 65.3177C38.8139 65.3557 38.8683 65.4019 38.9199 65.4536C38.9688 65.5052 39.015 65.5541 39.0585 65.6003C39.2514 65.8285 39.4008 66.0758 39.5095 66.3448C39.6182 66.6138 39.6725 66.8991 39.6725 67.1952C39.6725 67.2659 39.6671 67.3202 39.6589 67.3583C39.6345 67.7957 39.4932 68.1924 39.2324 68.5429C38.9987 68.8717 38.6971 69.1325 38.3303 69.3227C37.9635 69.5157 37.5532 69.6108 37.1049 69.6108H36.2789C35.8278 69.6108 35.4202 69.5157 35.0534 69.3227C34.6866 69.1298 34.385 68.8717 34.1514 68.5429C34.0834 68.4478 34.0182 68.3391 33.9503 68.2142L35.1132 67.3691C35.1377 67.5186 35.1893 67.6571 35.2708 67.7849C35.3496 67.9126 35.4474 68.0267 35.5642 68.1245C35.6811 68.2223 35.8142 68.2984 35.9637 68.3527C36.1131 68.4071 36.2734 68.4342 36.4392 68.4342H36.9391C37.2815 68.4342 37.5776 68.331 37.8276 68.1245C38.0776 67.918 38.227 67.6599 38.2786 67.3555C38.2786 67.3257 38.2786 67.2931 38.2841 67.2604C38.2895 67.2306 38.2895 67.198 38.2895 67.1653C38.2895 66.9942 38.2569 66.8339 38.189 66.6844C38.1211 66.535 38.0314 66.4046 37.9146 66.2904C37.7977 66.1763 37.6591 66.0839 37.5016 66.0133C37.344 65.9426 37.1755 65.9046 37.0016 65.8965H36.2381C35.9283 65.8883 35.6403 65.8312 35.3686 65.7253C35.0969 65.6193 34.8524 65.478 34.6377 65.296C34.5209 65.2172 34.4203 65.1248 34.3361 65.0134C34.1432 64.7879 33.9938 64.5379 33.8851 64.2689C33.7764 63.9999 33.722 63.7146 33.722 63.4184V63.2554C33.7628 62.8098 33.9095 62.4158 34.1595 62.0708C34.3932 61.742 34.6948 61.4811 35.0616 61.2909C35.4284 61.098 35.8387 61.0029 36.287 61.0029H37.0994C37.5505 61.0029 37.9607 61.098 38.333 61.2909C38.7052 61.4839 39.0068 61.742 39.2405 62.0708C39.265 62.1088 39.2921 62.1523 39.322 62.2012C39.3519 62.2474 39.3791 62.2908 39.4035 62.3289L38.2651 63.163C38.189 62.8805 38.0314 62.6468 37.7896 62.4593C37.5477 62.2718 37.2679 62.1767 36.95 62.1767H36.45C36.2843 62.1767 36.1213 62.2039 35.9691 62.2582C35.8142 62.3126 35.6784 62.3887 35.5615 62.4865C35.4447 62.5843 35.3469 62.6984 35.2681 62.8316C35.1893 62.9647 35.1377 63.106 35.1105 63.2527C35.1023 63.2826 35.0969 63.3152 35.0969 63.3478V63.4429C35.0969 63.6141 35.1295 63.7744 35.1974 63.9238C35.2654 64.0733 35.355 64.2037 35.4719 64.3178C35.5887 64.4319 35.7273 64.5243 35.8849 64.5922C36.0425 64.6629 36.2109 64.7009 36.3848 64.7091H37.1483C37.4581 64.7172 37.7461 64.7743 38.0178 64.8803C38.2895 64.9862 38.5341 65.1275 38.7514 65.3096L38.7569 65.3177Z" fill="#6F6F6F"/>
<path d="M45.6014 68.4151C46.1366 68.4151 46.6257 68.2955 47.0713 68.0564C47.5169 67.8173 47.8837 67.4994 48.1663 67.1L49.2559 67.8635C48.8374 68.3961 48.3158 68.8172 47.6854 69.1297C47.055 69.4422 46.3594 69.5998 45.6014 69.5998C44.9764 69.5998 44.3868 69.4856 43.8352 69.2601C43.2837 69.0346 42.8055 68.7276 42.3952 68.339C41.9876 67.9505 41.6643 67.4994 41.4252 66.9777C41.1861 66.4588 41.0692 65.899 41.0692 65.3067C41.0692 64.7144 41.1888 64.1547 41.4252 63.6357C41.6643 63.1167 41.9876 62.663 42.3952 62.2744C42.8027 61.8859 43.2837 61.5788 43.8352 61.3533C44.3868 61.1278 44.9737 61.0137 45.6014 61.0137C46.3594 61.0137 47.055 61.1713 47.6854 61.4837C48.3158 61.7962 48.8402 62.2201 49.2559 62.7499L48.1663 63.5134C47.8837 63.114 47.5169 62.7961 47.0713 62.557C46.6257 62.3179 46.1339 62.1983 45.6014 62.1983C45.1666 62.1983 44.7618 62.2798 44.3814 62.4456C44.001 62.6086 43.6695 62.8341 43.3869 63.114C43.1043 63.3966 42.8788 63.7254 42.7104 64.1003C42.5446 64.4753 42.4604 64.8801 42.4604 65.3094C42.4604 65.7387 42.5446 66.1436 42.7104 66.5185C42.8761 66.8935 43.1016 67.2223 43.3869 67.5049C43.6695 67.7874 44.001 68.0102 44.3814 68.1733C44.7618 68.3363 45.1666 68.4205 45.6014 68.4205V68.4151Z" fill="#6F6F6F"/>
<path d="M55.2278 60.9624C55.8609 60.9624 56.4586 61.0765 57.0184 61.302C57.5781 61.5303 58.0644 61.8373 58.4774 62.2286C58.8904 62.6198 59.2165 63.079 59.4529 63.6062C59.692 64.1333 59.8088 64.6984 59.8088 65.3016C59.8088 65.9048 59.6893 66.4564 59.4529 66.9808C59.2138 67.5052 58.8904 67.9617 58.4774 68.353C58.0644 68.7442 57.5781 69.054 57.0184 69.2795C56.4586 69.5077 55.8636 69.6191 55.2278 69.6191C54.592 69.6191 53.9996 69.505 53.4453 69.2795C52.8911 69.054 52.4074 68.7442 51.9944 68.353C51.5814 67.9617 51.2554 67.5052 51.019 66.9808C50.7799 66.4564 50.663 65.8967 50.663 65.3016C50.663 64.7066 50.7826 64.1333 51.019 63.6062C51.2581 63.079 51.5814 62.6198 51.9944 62.2286C52.4074 61.8373 52.8911 61.5276 53.4453 61.302C53.9996 61.0765 54.5947 60.9624 55.2278 60.9624ZM55.2278 68.4154C55.6625 68.4154 56.0728 68.3339 56.4613 68.1709C56.8499 68.0079 57.1868 67.7851 57.4748 67.5052C57.7628 67.2254 57.9911 66.8966 58.1568 66.5162C58.3226 66.1385 58.4068 65.7337 58.4068 65.3071C58.4068 64.8805 58.3226 64.4729 58.1568 64.0925C57.9911 63.7094 57.7628 63.3779 57.4748 63.0926C57.1868 62.8073 56.8499 62.5845 56.4613 62.4215C56.0728 62.2585 55.6625 62.177 55.2278 62.177C54.793 62.177 54.3855 62.2585 54.0024 62.4215C53.6192 62.5845 53.2823 62.81 52.9943 63.0926C52.7063 63.3779 52.4781 63.7094 52.3123 64.0925C52.1466 64.4756 52.0623 64.8805 52.0623 65.3071C52.0623 65.7337 52.1466 66.1385 52.3123 66.5162C52.4781 66.8939 52.7063 67.2226 52.9943 67.5052C53.2823 67.7851 53.6192 68.0079 54.0024 68.1709C54.3855 68.3339 54.7958 68.4154 55.2278 68.4154Z" fill="#6F6F6F"/>
<path d="M62.9093 69.6214H61.6459V60.856L67.5801 67.5102V61.0081H68.8435V69.6214H67.6181L62.912 64.1871V69.6214H62.9093Z" fill="#6F6F6F"/>
<path d="M70.5877 60.8101H75.7747V62.0735H73.8999V69.782H72.5141V62.0735H70.5904V60.8101H70.5877Z" fill="#6F6F6F"/>
<path d="M0.388306 69.3634L4.63244 61.0083L8.85212 69.3634H7.58051L6.55616 67.3419H2.6897L1.66263 69.3634H0.388306ZM3.36083 66.0241H5.89318L4.62157 63.5325L3.36083 66.0241Z" fill="#6F6F6F"/>
</svg>
