<svg width="65" height="80" viewBox="0 0 65 80" fill="none" xmlns="http://www.w3.org/2000/svg">
<path fill-rule="evenodd" clip-rule="evenodd" d="M2.21588 1.48145H2.24789C2.41039 2.44688 3.08255 3.41231 4.08709 3.60243C6.98501 4.10614 9.80906 2.69132 12.707 3.06416C13.7312 3.20243 14.8047 3.72589 15.2208 4.7333C15.9471 6.30614 15.2824 8.35058 13.7534 9.16787C12.7267 9.78021 11.4144 9.61231 10.4123 9.037C9.71304 8.63947 9.32403 7.87651 8.63709 7.46416C8.07081 7.14811 7.29524 7.51848 7.16474 8.15058C7.08596 8.69626 7.23368 9.24935 7.43558 9.75552C8.01664 11.1531 9.07043 12.2839 10.1636 13.3012C11.6433 14.6 13.2733 15.8 15.1617 16.4172C17.4392 17.1901 20.0367 17.237 22.2403 16.1975C24.1386 15.2839 25.5691 13.5876 26.4702 11.7037C27.9869 8.53083 28.499 4.9728 28.5778 1.48145H28.8831C29.1072 2.00984 29.2327 2.61478 29.6464 3.03947C30.2077 3.57774 30.9513 3.99749 31.7539 3.9333C33.2682 3.85429 34.871 3.67651 36.2966 4.32589C36.688 4.4691 36.8505 4.88638 37.045 5.21972C37.9216 5.42712 38.9015 5.40243 39.6574 5.95552C40.3763 6.57033 40.4231 7.58268 40.593 8.44688C39.4481 8.27404 38.2613 8.37527 37.1558 8.71848C36.4394 8.96293 36.2301 9.79256 36.1341 10.4617C35.8928 12.0074 36.6265 13.5358 37.6778 14.6271C39.3791 16.2839 41.7846 17.1012 44.136 17.0444C46.9822 16.9802 49.8333 16.2938 52.3348 14.9086C53.8712 13.9703 55.25 12.7654 56.3776 11.3605C56.9981 10.5259 57.5521 9.58021 57.6653 8.52836C57.7269 7.89873 57.1606 7.25922 56.513 7.3654C55.9369 7.42959 55.5824 7.94811 55.2032 8.33083C54.1986 9.53083 52.288 9.96046 50.9339 9.11108C49.4394 8.23206 48.846 6.16046 49.6363 4.61725C50.0771 3.72589 51.0324 3.21725 51.9852 3.08145C54.3144 2.72589 56.5746 3.62219 58.889 3.69873C59.7926 3.72342 60.7996 3.76787 61.5702 3.21478C62.1562 2.81725 62.3458 2.10367 62.5871 1.48145H62.6019V51.595C62.4812 53.7728 62.1833 56.0271 61.0532 57.9333C60.3613 59.1531 59.3297 60.1259 58.2365 60.9827C54.4719 63.9802 50.6877 66.9555 46.9009 69.9234C45.8594 69.1654 44.8007 68.4321 43.7789 67.6494C47.1865 64.9407 50.5719 62.2098 54.0091 59.5358C55.2574 58.5852 56.5623 57.6395 57.4757 56.3382C58.5024 54.8098 58.7092 52.9111 58.7708 51.1135C58.7757 39.0493 58.7659 26.9876 58.7757 14.9234C58.1356 15.516 57.488 16.0963 56.8454 16.6839C56.8307 26.8074 56.8454 36.9308 56.838 47.0518C56.811 49.3827 56.9513 51.7555 56.4195 54.0419C56.1289 55.4469 54.8905 56.2889 53.881 57.1679C49.4837 60.7802 44.9928 64.2839 40.524 67.8098C42.021 69.0197 43.5771 70.158 45.0986 71.3382C44.0227 72.2173 42.9147 73.0568 41.8314 73.9259C40.3024 72.7358 38.7562 71.5679 37.2174 70.3901C36.7151 70.8222 36.1882 71.2247 35.6687 71.6296C37.2297 72.7753 38.7464 73.9827 40.295 75.1456C39.2536 75.9555 38.2392 76.8024 37.1829 77.5926H36.8973C35.3807 76.4889 33.9083 75.3234 32.4113 74.195C30.8947 75.3086 29.4322 76.4987 27.8983 77.5926H27.6127C26.5761 76.7901 25.5593 75.9555 24.5153 75.158C26.0418 73.9654 27.588 72.7975 29.1293 71.6247C28.6197 71.2098 28.1002 70.8074 27.593 70.3901C26.0468 71.5506 24.5055 72.7259 22.9863 73.921C21.8932 73.0642 20.7827 72.2247 19.7191 71.3333C21.221 70.1506 22.7869 69.0494 24.2519 67.8197C19.6452 64.0716 14.8958 60.5037 10.3532 56.6765C9.7352 56.1284 9.01134 55.6271 8.67649 54.8395C8.19637 53.7234 8.10528 52.4889 8.02895 51.2889C7.90092 47.9555 7.96493 44.6172 7.95016 41.2839C7.96493 39.0691 7.91077 36.8518 7.99448 34.6395C7.99448 29.2024 7.98956 23.7679 7.99448 18.3308C7.98217 17.7876 8.04618 17.2345 7.93539 16.6987C7.34694 16.0493 6.6477 15.5086 6.00755 14.9111C6.02478 26.6049 6.01247 38.2987 6.01493 49.995C6.02971 51.7185 6.07649 53.4963 6.69694 55.1259C7.24107 56.558 8.37118 57.6469 9.54808 58.5728C13.421 61.5481 17.2274 64.6049 21.0314 67.6691C19.985 68.4098 18.946 69.1605 17.9168 69.9234C14.0218 66.8913 10.1464 63.8296 6.28823 60.7506C4.99562 59.7407 3.87781 58.4592 3.24259 56.9308C2.58274 55.4024 2.35376 53.7308 2.22573 52.0839V1.48145H2.21588ZM34.2308 5.86663C34.8045 5.93577 35.3634 5.79256 35.91 5.64688C35.3536 5.47651 34.7848 5.28391 34.381 4.84194C34.2727 5.1728 34.2259 5.51848 34.2333 5.8691L34.2308 5.86663ZM11.8772 36.6568C11.7615 40.1777 11.8428 43.6987 11.8182 47.2222C11.8428 49.0716 11.695 50.9753 12.249 52.7654C12.6159 53.9703 13.5096 54.9259 14.4994 55.6568C20.4257 60.1827 26.4111 64.6296 32.4064 69.0617C38.2096 64.7382 44.0325 60.4469 49.7791 56.0494C50.4439 55.5333 51.1382 55.0345 51.6676 54.3703C52.5096 53.3629 52.842 52.0345 52.911 50.7456C53.0341 48.4024 53.0316 46.0518 52.9405 43.7111C52.943 39.1407 52.9405 34.5703 52.9405 30C52.8494 26.5135 52.9159 23.0222 52.8937 19.5358C51.6331 20 50.4094 20.5876 49.0922 20.8765C46.6178 21.4271 44.0744 21.479 41.5507 21.5901C39.2068 21.6617 36.8456 22.121 34.7134 23.1308C33.7803 23.5703 32.8619 24.1876 32.3916 25.1407C31.9189 24.0913 30.87 23.5135 29.8852 23.0321C27.6939 22.0493 25.281 21.6271 22.8878 21.5851C20.4257 21.4666 17.939 21.4049 15.5261 20.8395C14.2655 20.5456 13.096 19.9703 11.8822 19.5358C11.8649 25.2444 11.8772 30.9531 11.8772 36.6617V36.6568ZM47.6469 29.8889C49.0085 29.5506 50.3528 29.1531 51.7144 28.8172C51.7094 29.195 51.707 29.5703 51.707 29.9481C50.8231 30.1629 49.9515 30.4197 49.07 30.6493C49.0651 31.1852 49.07 31.721 49.0627 32.2568C49.8727 32.0938 50.6581 31.8296 51.4632 31.6395C51.4632 32.0123 51.4632 32.3852 51.4632 32.7629C50.6655 32.9876 49.8628 33.195 49.0602 33.4148C49.0676 34.0296 49.07 34.6444 49.0676 35.2592C49.9638 35.0469 50.8526 34.7975 51.7414 34.558C51.7488 34.9259 51.7538 35.2963 51.7661 35.6642C50.3971 36.0543 49.0183 36.4197 47.6396 36.7777C47.6543 34.4814 47.6272 32.1827 47.6494 29.8864L47.6469 29.8889ZM41.4128 32.6938C42.4814 31.0444 44.5693 30.3531 46.4553 30.4197C46.4257 30.8098 46.3937 31.2024 46.3765 31.595C45.2784 31.4814 44.099 31.7135 43.2397 32.4419C42.4519 33.1061 42.0407 34.1777 42.1589 35.2024C42.2352 35.7654 42.506 36.3679 43.06 36.6024C43.7986 36.921 44.5914 36.6024 45.2932 36.3358C45.2932 35.7555 45.3005 35.1753 45.3055 34.5975C44.8253 34.7111 44.3502 34.8419 43.87 34.9629C43.8651 34.5901 43.8627 34.2148 43.8553 33.8419C44.786 33.5654 45.7339 33.3555 46.6596 33.0617C46.6818 34.3135 46.6596 35.5654 46.6695 36.8172C45.3449 37.5185 43.8307 38.2024 42.3017 37.8765C41.5236 37.7234 40.9204 37.0518 40.7801 36.2814C40.524 35.0666 40.7308 33.7333 41.4153 32.6913L41.4128 32.6938ZM35.9568 33.0419C37.3134 32.6814 38.6651 32.3086 40.0218 31.9506C40.0218 32.3308 40.0168 32.7135 40.0144 33.0913C39.1379 33.3086 38.2638 33.5531 37.3922 33.7901C37.3922 34.3259 37.3897 34.8592 37.3922 35.395C38.2146 35.2123 39.0271 34.9901 39.8346 34.7654C39.8346 35.1407 39.8346 35.5185 39.8346 35.8938C39.0197 36.1185 38.1998 36.3382 37.3799 36.5481C37.3947 37.1679 37.3897 37.7901 37.3922 38.4098C38.2933 38.1802 39.1896 37.9308 40.0858 37.6839C40.0784 38.0691 40.0735 38.4518 40.0735 38.8345C38.7045 39.1852 37.3405 39.5605 35.9765 39.9308C35.9642 37.6345 35.9814 35.3382 35.9617 33.0444L35.9568 33.0419ZM30.2348 34.5827C32.0075 34.1061 33.7753 33.6098 35.553 33.1629C35.5456 33.5382 35.5382 33.9185 35.5308 34.2938C34.8882 34.4493 34.2555 34.6345 33.6153 34.7926C33.5956 36.721 33.6178 38.6493 33.603 40.5777C33.1253 40.679 32.6526 40.8024 32.1774 40.921C32.1897 39.0123 32.1676 37.1061 32.1922 35.2C31.5373 35.3382 30.8947 35.5358 30.2447 35.6963C30.2397 35.3234 30.2348 34.9506 30.2324 34.5802L30.2348 34.5827ZM26.4825 35.4765C27.2901 35.2296 28.2331 35.0839 29.0062 35.521C29.6365 35.8469 29.964 36.5481 30.0945 37.2148C30.2545 38.3827 30.0822 39.6395 29.4199 40.637C28.5335 42.0469 26.7731 42.8469 25.1308 42.6C24.2593 42.4247 23.6511 41.6148 23.5206 40.7629C23.3433 39.7234 23.4418 38.6172 23.9022 37.6617C24.4045 36.6098 25.3844 35.8345 26.4825 35.479V35.4765ZM26.7952 36.521C25.0718 36.9827 24.5128 39.2469 25.1653 40.7456C25.4509 41.4592 26.3373 41.6 26.9799 41.3135C28.4522 40.8 28.9102 38.9432 28.5729 37.558C28.4227 36.7777 27.561 36.2074 26.7952 36.521ZM18.0966 37.8345C19.3744 37.5629 20.6301 36.9703 21.9621 37.1185C22.5604 37.1703 22.8263 37.8197 22.8066 38.3506C22.8928 39.2 22.3093 39.9333 21.6322 40.3629C22.4545 41.1629 22.7204 42.358 23.2276 43.3605C22.6983 43.4889 22.1714 43.6296 21.642 43.7605C21.3219 43.0049 21.056 42.2222 20.6449 41.5086C20.3494 41.1531 19.8422 41.4691 19.468 41.5086C19.4803 42.4642 19.4803 43.4222 19.468 44.3802C19.01 44.4839 18.5545 44.6024 18.099 44.716C18.0941 42.4222 18.0941 40.1259 18.099 37.8321L18.0966 37.8345ZM19.4803 38.5802C19.4754 39.1827 19.4778 39.7852 19.4852 40.3852C20.2632 40.2049 21.386 39.8963 21.3515 38.8963C21.2087 37.9382 20.0712 38.4864 19.4803 38.5802ZM13.0541 39.2074C14.268 38.9308 15.5113 38.3037 16.7719 38.6098C17.7765 38.8666 17.7913 40.1358 17.5401 40.9407C17.1216 42.2617 15.7058 42.8568 14.46 43.1061C14.4378 43.9777 14.4477 44.8493 14.4477 45.7234C13.9848 45.8345 13.5269 45.958 13.064 46.0642C13.064 43.7802 13.0861 41.4938 13.0566 39.2074H13.0541ZM14.4428 39.9506C14.4477 40.6296 14.4428 41.3086 14.4477 41.9901C14.9968 41.8148 15.6468 41.7111 15.989 41.1926C16.2968 40.7802 16.3337 40.0864 15.8314 39.8074C15.3759 39.6271 14.8958 39.8568 14.4452 39.9531L14.4428 39.9506Z" fill="#6F6F6F"/>
<path fill-rule="evenodd" clip-rule="evenodd" d="M13.0542 21.4619C13.9701 21.6644 14.8589 21.9854 15.7822 22.1631C18.1261 22.6249 20.5218 22.652 22.9027 22.6965C25.3648 22.7681 27.7801 23.4718 29.9591 24.6101C30.9316 25.1261 31.6826 25.9607 32.3203 26.8422C33.182 25.4076 34.6371 24.4471 36.1833 23.8965C38.1161 23.0915 40.204 22.6915 42.2943 22.6792C44.6703 22.6669 47.0561 22.5483 49.3877 22.0743C50.183 21.8965 50.9585 21.6298 51.7612 21.4693C51.771 23.4891 51.739 25.5088 51.7784 27.5311L13.0542 37.9187V21.4644V21.4619ZM37.215 40.8693C42.0654 39.5755 46.9059 38.2619 51.7538 36.9656C51.803 39.0298 51.6873 41.094 51.7119 43.1557C51.6996 45.4397 51.7538 47.7236 51.6307 50.0051C51.5888 52.1236 50.3972 54.0915 48.7476 55.3656C44.9534 58.3138 41.0559 61.1286 37.2248 64.0224C37.1756 56.3064 37.1953 48.5854 37.215 40.8669V40.8693ZM13.0517 47.3088C17.8922 45.9854 22.7599 44.7607 27.5955 43.415C27.6299 50.257 27.6226 57.1014 27.5955 63.9459C25.2663 62.4471 23.1218 60.6792 20.8714 59.0644C19.0544 57.6792 17.2102 56.3261 15.44 54.8792C14.6669 54.2348 13.8962 53.5138 13.5318 52.5508C12.8646 50.8866 13.096 49.0594 13.0493 47.3088H13.0517Z" fill="#6F6F6F"/>
</svg>
