<svg width="172" height="80" viewBox="0 0 172 80" fill="none" xmlns="http://www.w3.org/2000/svg">
<path d="M53.6095 37.2077C52.5255 37.2185 51.4568 37.4665 50.4776 37.9345V30.3029C49.2284 30.7806 48.0524 31.4331 46.9844 32.2411C46.7506 32.4291 46.5636 32.6693 46.4381 32.9426C46.3127 33.216 46.2523 33.515 46.2617 33.8159V52.4708C48.0482 53.0646 49.9214 53.3512 51.8026 53.3188C57.3436 53.3188 60.4755 49.927 60.4755 45.0815C60.4755 40.2361 58.3073 37.2077 53.6095 37.2077ZM52.0436 49.927C51.5105 49.9561 50.9773 49.8736 50.4776 49.6847V41.2052C51.2428 40.8912 52.0604 40.7268 52.8867 40.7206C55.055 40.7206 56.1391 42.1743 56.1391 44.9604C56.1391 47.7465 54.814 49.927 52.0436 49.927ZM25.9047 45.2027L24.2183 46.1717C23.9774 46.2929 23.9774 46.414 23.9774 46.6563V52.8342C23.9774 53.0765 24.0978 53.1976 24.2183 53.1976H25.9047V45.2027ZM71.196 37.3288C70.3696 37.3183 69.5533 37.5116 68.8184 37.8917C68.0834 38.2718 67.4523 38.8272 66.9801 39.5093C66.8624 38.8532 66.7014 38.2057 66.4982 37.5711L64.8119 37.3288L63.1255 37.5711V52.9554C63.7857 53.1702 64.4815 53.2525 65.1732 53.1976L67.3414 52.9554V45.4449C67.3414 42.4165 68.9074 40.8418 70.9551 40.8418H72.4006C72.5806 39.7184 72.5806 38.5733 72.4006 37.45L71.196 37.3288ZM29.0365 43.3856L26.8683 44.597H26.7479V52.9554H29.157C29.2848 52.9554 29.4073 52.9043 29.4977 52.8134C29.588 52.7226 29.6388 52.5993 29.6388 52.4708V43.749C29.6629 43.6712 29.6604 43.5876 29.6315 43.5114C29.6027 43.4353 29.5492 43.3711 29.4798 43.3292C29.4103 43.2872 29.3288 43.27 29.2484 43.2802C29.168 43.2905 29.0934 43.3276 29.0365 43.3856ZM25.6638 31.272C23.8855 31.2583 22.1103 31.4206 20.3637 31.7566C21.2987 30.5341 22.5038 29.5474 23.8837 28.8746C25.2636 28.2018 26.7804 27.8613 28.3138 27.8802C30.6595 27.8802 32.9419 28.6453 34.8184 30.0607C35.0593 30.3029 35.3002 30.4241 35.5411 30.1818C35.5924 30.1363 35.6335 30.0804 35.6616 30.0177C35.6897 29.9551 35.7043 29.8871 35.7043 29.8184C35.7043 29.7496 35.6897 29.6817 35.6616 29.619C35.6335 29.5564 35.5924 29.5004 35.5411 29.455C34.4634 28.1335 33.1007 27.0759 31.5564 26.3623C30.012 25.6487 28.3265 25.2979 26.6274 25.3363C24.3473 25.3777 22.1315 26.1032 20.2643 27.4198C18.397 28.7364 16.9636 30.5841 16.1478 32.7256L12.2932 34.3004C11.972 34.5427 11.8515 34.785 11.9318 35.0272C11.9561 35.097 11.996 35.1603 12.0484 35.2122C12.1008 35.264 12.1644 35.3032 12.2341 35.3266C12.3039 35.3499 12.378 35.357 12.4509 35.3471C12.5238 35.3372 12.5934 35.3106 12.6545 35.2695C13.6402 34.9565 14.6464 34.7137 15.6659 34.5427C15.561 35.1014 15.5206 35.6705 15.5455 36.2386C15.513 38.1645 15.9721 40.0665 16.8789 41.7631C17.7857 43.4597 19.1099 44.8942 20.7251 45.9295C20.966 46.0506 21.3274 46.0506 21.4478 45.8083C21.5683 45.5661 21.5683 45.3238 21.3274 45.0815C20.3196 44.1651 19.5187 43.0423 18.9785 41.7886C18.4383 40.5349 18.1713 39.1795 18.1955 37.8134C18.1581 36.5102 18.4481 35.2187 19.0387 34.0581L22.4115 33.8159C30.6024 33.8159 37.5889 36.602 37.5889 40.1149C37.5889 43.6279 35.3002 43.749 32.5297 44.9604C31.9275 45.2027 31.9275 45.4449 31.9275 45.6872C31.9275 45.9295 32.2888 46.0506 32.6502 45.9295C37.4684 44.4758 40.9616 41.8108 40.9616 38.7824C40.9616 35.754 34.2161 31.272 25.6638 31.272ZM97.8167 33.8159V37.45L95.6485 37.2077C90.9508 37.2077 87.8189 40.3572 87.8189 45.4449C87.8189 50.5326 90.8303 53.3188 95.6485 53.3188C97.817 53.3812 99.9791 53.053 102.033 52.3497V30.3029C100.783 30.7806 99.6075 31.4331 98.5395 32.2411C98.2892 32.4139 98.09 32.6514 97.9628 32.9285C97.8356 33.2057 97.7851 33.5123 97.8167 33.8159ZM97.8167 49.6847C97.2346 49.8775 96.6219 49.9596 96.0099 49.927C93.2394 49.927 92.1553 48.1099 92.1553 45.4449C92.1553 42.7799 93.2394 40.5995 96.0099 40.5995L97.8167 40.8418V49.6847ZM140.94 49.927C138.892 49.927 137.447 48.2311 137.447 45.3238C137.447 42.4165 138.651 40.7206 140.94 40.7206C141.886 40.695 142.828 40.8597 143.71 41.2052C143.968 40.1388 144.462 39.1448 145.156 38.2979C143.717 37.5132 142.093 37.1364 140.458 37.2077C135.76 37.2077 133.11 40.4784 133.11 45.3238C133.11 50.1692 135.881 53.3188 140.579 53.3188C142.201 53.399 143.817 53.0657 145.276 52.3497C144.568 51.4297 144 50.4091 143.59 49.3213C142.769 49.7366 141.859 49.9444 140.94 49.927ZM79.0256 37.2077C77.4857 37.1762 75.948 37.339 74.4483 37.6922C74.2071 38.8098 74.2071 39.9664 74.4483 41.084C75.7011 40.7258 77.001 40.5624 78.3029 40.5995C80.4711 40.5995 81.5552 41.4474 81.5552 43.2645V43.5068L79.5075 43.2645C76.0142 43.2645 72.8824 44.597 72.8824 48.1099C72.8824 51.6229 75.6529 53.3188 79.7484 53.3188C81.7028 53.2743 83.6445 52.9895 85.5302 52.4708V43.6279C85.5302 39.3881 83.2416 37.3288 79.0256 37.2077ZM81.5552 49.927H79.7484C77.8211 49.927 76.737 49.3213 76.737 47.9888C76.737 46.6563 77.8211 46.0506 79.7484 46.0506H81.5552V49.927ZM152.745 37.2077C148.047 37.2077 145.397 40.4784 145.397 45.3238C145.397 50.1692 148.167 53.3188 152.745 53.3188C157.322 53.3188 160.092 50.1692 160.092 45.3238C160.092 40.4784 157.442 37.2077 152.745 37.2077ZM152.745 49.927C150.335 49.927 149.733 47.9888 149.733 45.3238C149.733 42.6588 150.335 40.5995 152.745 40.5995C155.154 40.5995 155.876 42.5377 155.876 45.3238C155.876 48.1099 155.033 49.927 152.745 49.927ZM111.669 37.2077C107.212 37.2077 104.442 40.2361 104.442 45.3238C104.442 50.4115 107.333 53.3188 112.392 53.3188C114.039 53.374 115.68 53.0852 117.21 52.4708C117.449 51.3938 117.449 50.2771 117.21 49.2001C115.811 49.6671 114.348 49.9123 112.874 49.927C110.465 49.927 108.899 48.9579 108.537 46.5352H118.053C118.2 45.8173 118.28 45.0874 118.294 44.3547C118.294 39.7515 115.644 37.2077 111.669 37.2077ZM108.537 43.3856C108.553 42.9878 108.646 42.597 108.812 42.2355C108.978 41.874 109.213 41.549 109.504 41.279C109.795 41.0089 110.136 40.7992 110.507 40.6619C110.879 40.5245 111.274 40.4621 111.669 40.4784C113.596 40.4784 114.319 41.6897 114.319 43.3856H108.537ZM127.931 43.8702L126.124 43.1433C125.16 42.6588 124.678 42.4165 124.678 41.6897C124.678 40.9629 125.522 40.4784 126.606 40.4784C127.96 40.5149 129.3 40.76 130.581 41.2052C130.822 40.1693 130.822 39.0915 130.581 38.0556C129.142 37.4148 127.574 37.1243 126.003 37.2077C122.751 37.2077 120.342 38.9036 120.342 41.5686C120.342 44.2336 121.306 45.2027 124.197 46.414L125.522 46.8986C126.726 47.3831 127.087 47.7465 127.087 48.5945C127.087 49.4424 125.883 49.927 124.919 49.927C123.353 49.9494 121.798 49.6613 120.342 49.079C119.984 50.1395 119.984 51.2892 120.342 52.3497C121.969 53.0778 123.743 53.4098 125.522 53.3188C128.774 53.3188 131.424 51.6229 131.424 48.5945C131.424 45.5661 130.34 44.8392 127.931 43.8702Z" fill="#6F6F6F"/>
</svg>
