<svg width="172" height="80" viewBox="0 0 172 80" fill="none" xmlns="http://www.w3.org/2000/svg">
<path fill-rule="evenodd" clip-rule="evenodd" d="M11.5912 35.8305L15.9142 38.7463L21.1065 35.2474L18.9451 33.7853L21.7566 31.8962L27.8103 35.9784L17.8643 42.6806L20.0258 44.1426L32.3607 35.8305L21.976 28.8325L11.5912 35.8305ZM32.3607 42.8285L28.0297 39.9127L22.8373 43.4116L24.9988 44.8654L22.1873 46.7628L16.1336 42.6806L26.0795 35.9784L23.918 34.5164L11.5912 42.8285L21.976 49.8264L32.3607 42.8285ZM32.3607 31.7483L30.1911 33.2104L28.0297 31.7483L32.3607 28.8325V31.7483ZM11.5912 46.9106L13.7527 45.4486L15.9142 46.9106L11.5912 49.8264V46.9106Z" fill="#6F6F6F"/>
<path fill-rule="evenodd" clip-rule="evenodd" d="M42.1766 46.3192C43.5336 46.3192 46.9058 46.1631 46.9058 42.6231C46.9058 40.7012 46.3126 39.3623 44.0374 39.0749C45.7763 38.7299 46.6458 37.5635 46.6458 35.9537C46.6458 32.9722 44.6387 32.3315 42.1929 32.3315H36.5129V46.3192H42.1766ZM144.114 46.3192C146.016 46.3192 147.934 46.0646 147.934 43.0995C147.934 39.6745 143.026 40.0194 143.026 37.8428C143.026 37.0543 143.505 36.6272 144.309 36.6272H146.942V34.8613H143.245C140.214 34.8613 139.467 36.2494 139.467 38.04C139.467 41.4486 144.903 41.3664 144.903 43.2884C144.903 44.0605 144.488 44.5862 143.651 44.5862H139.759L136.874 34.8695H133.421L130.227 45.2925L128.22 40.8079C129.691 40.5369 130.276 39.5923 130.284 37.8675C130.284 35.9127 129.131 34.8695 127.351 34.8695H121.947V46.3192H124.897V36.6272H125.88C126.709 36.6272 127.432 37.2432 127.432 38.3685C127.432 39.3213 126.961 40.1098 126.205 40.0605L125.376 40.0689L128.066 46.3194H132.795L133.502 43.7814H136.557L137.256 46.3194L144.114 46.3192ZM136.111 42.0317H133.925L134.965 37.3418L136.111 42.0317ZM103.209 46.656C107.622 46.656 107.622 43.6909 107.622 40.6519C107.622 37.5718 107.622 34.6395 103.209 34.6395C98.797 34.6395 98.797 37.5718 98.797 40.6519C98.797 43.6909 98.797 46.656 103.209 46.656ZM103.209 44.9147C101.917 44.9147 101.747 43.6334 101.747 40.6519C101.747 37.6704 101.917 36.3808 103.209 36.3808C104.501 36.3808 104.664 37.6704 104.664 40.6519C104.664 43.6334 104.501 44.9147 103.209 44.9147ZM89.2005 46.3192H93.5071C98.025 46.3192 97.7244 42.2782 97.7244 40.5122C97.7244 36.9393 97.0743 34.8367 93.6128 34.8367H89.2005V46.3192ZM92.077 36.619H93.239C94.8235 36.619 94.8235 38.4835 94.8235 40.5944C94.8235 43.4774 94.5472 44.578 93.1658 44.578H92.077V36.619ZM114.967 40.2166H115.682C117.064 40.2166 117.503 40.9804 117.503 42.2124C117.503 44.1755 116.194 44.1919 115.609 44.1919H114.09V40.2412L114.967 40.2166ZM114.09 38.081V34.5081H115.78C116.706 34.5081 117.356 35.2556 117.356 36.2905C117.356 37.6457 116.519 38.0646 115.926 38.0646H114.967L114.09 38.081ZM116.259 46.3274C117.616 46.3274 120.988 46.1713 120.988 42.6231C120.988 40.7012 120.395 39.3705 118.128 39.0749C119.867 38.7299 120.737 37.5635 120.737 35.9537C120.737 32.9722 118.721 32.3315 116.284 32.3315H110.596V46.3274H116.259ZM159.822 46.319V44.586H156.457V34.8693H153.581V46.319H159.822ZM151.891 34.8693H149.006V46.319H151.891V34.8693ZM81.6597 46.6558C86.072 46.6558 86.072 43.6825 86.072 40.627C86.072 37.5305 86.072 34.5901 81.6597 34.5901C77.2556 34.5901 77.2556 37.5305 77.2556 40.627C77.2556 43.6825 77.2556 46.6558 81.6597 46.6558ZM81.6597 44.9145C80.3677 44.9145 80.2053 43.6167 80.2053 40.627C80.2053 37.6291 80.3677 36.3396 81.6597 36.3396C82.9517 36.3396 83.1224 37.6291 83.1224 40.627C83.1224 43.6167 82.9518 44.9145 81.6597 44.9145ZM53.1464 42.0233H50.9524L51.9925 37.3416L53.1464 42.0233ZM49.823 46.319L50.538 43.781H53.5933L54.2922 46.319H57.3068L53.9021 34.8693H50.4568L46.9789 46.319H49.823ZM72.4451 46.6558C74.9478 46.6558 76.4105 45.6537 76.4105 42.5326H73.5583C73.5259 43.4525 73.5097 44.9145 72.4451 44.9145C71.2344 44.9145 71.0556 44.167 71.0556 40.627C71.0556 36.9556 71.3319 36.3396 72.3882 36.3396C73.1439 36.3396 73.4852 36.9145 73.4852 38.4751H76.3211C76.4268 35.9617 75.0454 34.5901 72.3151 34.5901C68.2522 34.5901 68.1385 37.202 68.1385 40.627C68.1385 44.0685 68.0328 46.6558 72.4451 46.6558ZM60.4271 46.319V38.6886L63.5718 46.319H66.9765V34.8693H64.5225V42.2697L61.4591 34.8693H57.9731V46.319H60.4271ZM40.6896 40.1999H41.1365C42.8267 40.1999 43.363 40.9556 43.363 42.1958C43.363 44.1506 41.7622 44.1671 41.0471 44.1671H39.9989V40.2163L40.6896 40.1999ZM39.9989 38.0562V34.4833H41.2503C42.3879 34.4833 43.1842 35.2389 43.1842 36.2656C43.1842 37.6209 42.1603 38.048 41.429 38.048H40.2508L39.9989 38.0562Z" fill="#6F6F6F"/>
</svg>
