<svg width="172" height="80" viewBox="0 0 172 80" fill="none" xmlns="http://www.w3.org/2000/svg">
<path d="M114.739 11.8853C114.214 11.8859 113.695 11.9896 113.211 12.1904C112.727 12.3912 112.287 12.6852 111.917 13.0556C111.184 13.7864 110.744 14.8184 110.744 15.878V64.0588C110.744 65.1184 111.166 66.1322 111.917 66.8812C112.288 67.2513 112.728 67.5449 113.212 67.7452C113.697 67.9455 114.216 68.0486 114.741 68.0486C115.265 68.0486 115.784 67.9455 116.269 67.7452C116.753 67.5449 117.194 67.2513 117.564 66.8812C118.297 66.1505 118.738 65.1184 118.738 64.0588V15.878C118.738 14.8184 118.315 13.8046 117.564 13.0556C117.194 12.6848 116.753 12.3905 116.268 12.1897C115.784 11.9889 115.264 11.8854 114.739 11.8853ZM25.1211 23.7601C21.4205 23.6614 17.7438 24.4634 14.4125 26.1115C10.6052 27.995 7.40452 30.9118 5.16671 34.5181C2.92889 38.1244 1.74895 42.2864 1.75811 46.5285C1.76727 50.7705 2.96081 54.9292 5.20961 58.5282C7.45841 62.1272 10.6713 65.0266 14.484 66.8955C18.2967 68.7644 22.5595 69.5333 26.7843 69.1113C31.0119 68.6885 35.0363 67.0927 38.4014 64.5048C38.8581 64.1472 39.2295 63.6928 39.4887 63.1744C39.7479 62.6561 39.8884 62.0867 39.9 61.5076C39.9117 60.9276 39.7939 60.3524 39.5551 59.8235C39.3163 59.2946 38.9625 58.8253 38.5194 58.4497C37.8309 57.8541 36.9599 57.512 36.0479 57.4791C35.1359 57.4463 34.2444 57.7269 33.5156 58.2713C31.3181 59.9484 28.6926 60.9768 25.9402 61.2435C23.1878 61.5103 20.4168 61.0046 17.9391 59.7806C15.4614 58.5566 13.372 56.6688 11.9088 54.3249C10.4464 51.9799 9.66922 49.2742 9.66479 46.5124C9.66036 43.7506 10.4288 41.0425 11.8837 38.6928C13.3373 36.344 15.4197 34.447 17.8961 33.2157C20.372 31.9862 23.1412 31.4737 25.8936 31.7313C28.646 31.9889 31.2732 33.0106 33.4762 34.6822C34.1975 35.2365 35.0877 35.5269 35.9979 35.5048C36.9081 35.4827 37.783 35.1495 38.4765 34.5609C38.9251 34.1772 39.2828 33.701 39.5208 33.1657C39.7589 32.6305 39.8788 32.0448 39.8678 31.4566C39.8568 30.8683 39.7094 30.2932 39.4457 29.7688C39.182 29.2445 38.8038 28.7817 38.3405 28.4237C34.9661 25.8468 30.9354 24.2646 26.7055 23.8564C26.1768 23.8053 25.6497 23.7741 25.1211 23.7601ZM82.173 23.7601C81.5364 23.771 80.8928 23.8081 80.2452 23.8743C76.7515 24.2431 73.391 25.4143 70.4271 27.2961C67.462 29.1774 64.9733 31.7176 63.1557 34.7179C61.3386 37.721 60.2419 41.1024 59.951 44.5981C59.658 48.0948 60.1799 51.6152 61.4747 54.8744C62.7697 58.1348 64.803 61.0522 67.4156 63.3987C70.0264 65.7438 73.1454 67.4547 76.529 68.3977C79.9113 69.3404 83.4893 69.4854 86.9193 68.8259C90.3493 68.1664 93.6155 66.7205 96.4119 64.5976C96.8824 64.2373 97.2662 63.7764 97.5349 63.2488C97.8041 62.7227 97.9531 62.1423 97.9677 61.5504C97.9975 60.5007 97.6087 59.4821 96.8865 58.7182C96.1643 57.9542 95.1677 57.5073 94.1156 57.4756C93.2121 57.4468 92.326 57.7276 91.6048 58.2713C88.8384 60.4027 85.3992 61.4771 81.9083 61.3006C79.0699 61.1545 76.3324 60.1974 74.036 58.5496C71.7192 56.9019 69.9214 54.6294 68.8534 51.9985C68.7077 51.6437 68.6986 51.2477 68.8281 50.8867C68.9575 50.5257 69.2162 50.2252 69.5544 50.0431C69.7788 49.9231 70.0295 49.8606 70.2841 49.8611H98.0178C98.9041 49.8648 99.7833 49.6907 100.604 49.3545C101.424 49.0183 102.172 48.5235 102.8 47.8987C103.428 47.2739 103.926 46.5334 104.266 45.7149C104.607 44.8973 104.784 44.0207 104.785 43.1352C104.73 41.2352 104.309 39.3617 103.551 37.6188L103.526 37.6115C99.9274 29.483 91.7222 23.5919 82.173 23.7601ZM49.8719 24.8805C47.6688 24.8805 45.8803 26.6664 45.8803 28.8697V64.0553C45.8803 66.2585 47.6688 68.0444 49.8719 68.0444C52.0749 68.0444 53.8634 66.2585 53.8634 64.0553V28.8697C53.8634 26.6664 52.0749 24.8805 49.8719 24.8805ZM130.215 31.6207C128.259 33.8885 126.773 36.52 125.841 39.3636C124.905 42.206 124.541 45.2045 124.768 48.1877C124.995 51.171 125.813 54.0821 127.15 56.7512C128.505 59.4184 130.374 61.7926 132.651 63.7377C134.927 65.6833 137.566 67.161 140.416 68.0873C143.265 69.0132 146.27 69.3673 149.258 69.1292C152.243 68.8917 155.154 68.0658 157.82 66.6993C160.487 65.3341 162.857 63.457 164.795 61.1757L158.75 56.0305C157.36 57.6863 155.623 59.0176 153.66 59.9305C151.708 60.8388 149.586 61.3079 147.433 61.3113C144.601 61.3054 141.829 60.4894 139.447 58.9599C137.053 57.4217 135.152 55.2294 133.953 52.6407C132.772 50.0529 132.362 47.1811 132.771 44.3673C133.18 41.5536 134.391 38.9163 136.26 36.7696L130.215 31.6207ZM82.6022 31.6706C85.5715 31.6716 88.4721 32.5616 90.9288 34.2254C93.3874 35.8907 95.2887 38.2536 96.3868 41.0085C96.4791 41.2431 96.5135 41.4964 96.487 41.7471C96.4599 41.9983 96.3718 42.2391 96.2303 42.4486C96.0889 42.6582 95.8983 42.8301 95.6751 42.9495C95.4517 43.0683 95.2017 43.1315 94.949 43.1315H70.2555C70.002 43.1322 69.7524 43.0696 69.5294 42.9495C69.306 42.829 69.1143 42.6564 68.9714 42.45C68.8286 42.2435 68.7431 41.9992 68.7175 41.7471C68.691 41.4964 68.7254 41.2431 68.8177 41.0085C69.9158 38.2536 71.8171 35.8907 74.2757 34.2254C76.7333 32.5812 79.6337 31.6706 82.6022 31.6706Z" fill="#5A646E"/>
<path d="M49.8719 10.7681C48.5113 10.7681 47.2101 11.3076 46.2523 12.2667C45.2916 13.2268 44.7525 14.5282 44.7537 15.8848C44.7799 17.2229 45.3307 18.4975 46.2881 19.4351C47.2458 20.3705 48.5314 20.8981 49.8719 20.8981C51.2124 20.8981 52.5016 20.3723 53.4594 19.4351C54.4167 18.4975 54.9676 17.2229 54.9938 15.8848H54.9901C54.9912 14.5282 54.4522 13.2268 53.4915 12.2667C52.532 11.3076 51.2326 10.7681 49.8719 10.7681ZM147.473 23.7383C144.204 23.7347 140.972 24.4362 138.005 25.7936C135.032 27.1518 132.389 29.1345 130.255 31.6061L136.278 36.7549C138.845 33.8009 142.478 31.9785 146.382 31.6917C150.286 31.4049 154.147 32.6669 157.123 35.2099C160.099 37.753 161.947 41.3682 162.27 45.265C162.588 49.1621 161.352 53.0271 158.829 56.0194L164.856 61.1647C167.657 57.8543 169.458 53.8115 170.038 49.5147C170.618 45.218 169.955 40.8457 168.128 36.9119C166.304 32.9791 163.39 29.6488 159.73 27.3136C156.062 24.9953 151.813 23.7383 147.473 23.7383Z" fill="#00AEEF"/>
</svg>
