<svg width="172" height="80" viewBox="0 0 172 80" fill="none" xmlns="http://www.w3.org/2000/svg">
<path d="M146.828 44.9107H155.082C155.082 44.9107 155.34 48.6653 159.897 48.6653C164.454 48.6653 163.537 46.0571 163.537 46.0571C163.537 46.0571 163.68 44.5381 159.267 43.5637C154.824 42.6179 147.774 40.325 147.774 33.7044C147.774 27.0839 152.961 24.791 159.439 24.791C165.887 24.791 170.702 27.6857 170.702 33.9624H162.649C162.649 33.9624 162.563 31.0963 159.066 31.0963C155.569 31.0963 155.885 33.3605 156.114 33.7044C156.343 34.0484 157.002 34.8222 160.671 35.6534C164.34 36.4845 167.922 37.3443 170.731 41.0129C173.511 44.7101 171.419 51.1014 167.406 53.2796C163.394 55.4578 159.926 55.1999 159.926 55.1999C159.037 55.1425 147.287 55.3145 146.828 44.9107Z" fill="#6F6F6F"/>
<path d="M139.462 39.5799L149.293 54.856H138.86L129.947 40.2677L139.032 25.3643H149.064L139.462 39.5799Z" fill="#6F6F6F"/>
<path d="M93.5481 54.856H101.946V41.5001C101.946 41.5001 101.917 39.8952 102.777 41.4142L110.486 54.8846H119.113V25.3643H110.658V39.6372C110.658 39.6372 110.687 41.2422 109.827 39.7519L101.544 25.3643H93.4908V54.8273H93.5481V54.856Z" fill="#6F6F6F"/>
<path d="M121.406 25.3643H129.861V54.856H121.406V25.3643Z" fill="#6F6F6F"/>
<path d="M83.001 25.3643H91.1692V54.856H83.001V25.3643Z" fill="#6F6F6F"/>
<path d="M55.3723 54.856V25.3643H71.1356C71.1356 25.3643 80.5649 25.9661 80.5649 33.9624C80.5649 33.9624 80.7655 38.978 76.3518 41.0989C76.3518 41.0989 80.2496 42.4746 80.2496 49.2385V51.646C80.2496 51.646 80.049 53.4803 81.4247 54.856H73.1418C73.1418 54.856 72.3106 54.1681 72.2533 51.8466C72.2247 49.5538 72.11 46.7737 70.9636 45.6846C69.8172 44.6241 69.1293 44.4235 67.5243 44.4235H65.3175V38.2328H69.7025C69.7025 38.2328 72.4253 38.4621 72.4253 35.1662C72.4253 35.1662 72.5113 32.3861 69.4446 32.3861H64.7443C64.7443 32.3861 63.9704 32.3001 63.9704 33.2746V54.7986H55.3723V54.856Z" fill="#6F6F6F"/>
<path d="M21.8679 25.3643H27.1415V54.856H21.8679V25.3643Z" fill="#6F6F6F"/>
<path d="M16.1646 25.3643H19.9191V54.856H16.1646V25.3643Z" fill="#6F6F6F"/>
<path d="M10.7477 25.3643H13.5278V54.856H10.7477V25.3643Z" fill="#6F6F6F"/>
<path d="M5.61749 25.3643H7.56641V54.856H5.61749V25.3643Z" fill="#6F6F6F"/>
<path d="M0 25.3643H1.37571V54.856H0V25.3643Z" fill="#6F6F6F"/>
<path d="M49.7834 38.9492C52.9933 36.7996 52.6781 32.7298 52.6781 32.7298C52.6781 25.5074 43.9366 25.4214 43.9366 25.4214H28.8038V54.8844H43.7073C50.3566 54.8844 54.1111 50.8433 54.1111 45.8564C54.1111 40.8694 49.7834 38.9492 49.7834 38.9492ZM43.478 48.0059H38.1472C38.1472 48.0059 37.4307 48.0919 37.4307 47.1174V33.2457C37.4307 33.2457 37.316 32.4719 38.2332 32.4719H42.8188C42.8188 32.4719 45.2263 32.4432 45.2263 34.6214C45.2263 36.7996 43.2774 37.0289 42.7329 37.0289H39.2936C39.2936 37.0289 38.8637 36.9143 38.8637 37.5161V42.2165C38.8637 42.2165 38.749 42.675 39.4369 42.675H43.6787C43.6787 42.675 46.2295 42.6464 46.2295 45.3118C46.1721 48.0346 43.65 48.0059 43.478 48.0059Z" fill="#6F6F6F"/>
</svg>
