<svg width="172" height="80" viewBox="0 0 172 80" fill="none" xmlns="http://www.w3.org/2000/svg">
<path d="M61.2594 62.7238C60.8277 63.7486 60.1475 64.578 59.2579 65.186C58.3683 65.7939 57.3566 66.1109 56.2577 66.1109C55.1588 66.1109 54.3957 65.8634 53.5933 65.364C52.7866 64.8646 52.1368 64.1742 51.6484 63.3013C51.1644 62.4285 50.9245 61.4341 50.9245 60.3571C50.9245 59.2802 51.16 58.1989 51.631 57.313C52.1019 56.4272 52.756 55.7367 53.5628 55.2373C54.3826 54.738 55.2852 54.4904 56.2446 54.4904C57.204 54.4904 58.2985 54.7944 59.1881 55.3763C60.0777 55.9712 60.7449 56.7746 61.1722 57.769L61.242 57.934L65.2844 56.3577L65.2146 56.1797C64.5213 54.4904 63.3526 53.1225 61.7435 52.1281C60.1344 51.1337 58.2985 50.6213 56.2839 50.6213C54.2692 50.6213 52.8127 51.0208 51.3693 51.8111C49.9128 52.6015 48.7311 53.7479 47.8851 55.1983C47.0391 56.6486 46.6074 58.3813 46.6074 60.3311C46.6074 62.2809 47.0522 63.8702 47.9113 65.338C48.7703 66.8057 49.9521 67.9652 51.426 68.7816C52.8999 69.5979 54.5352 70.0105 56.3013 70.0105C58.0674 70.0105 60.178 69.485 61.7609 68.4602C63.3439 67.4354 64.5256 66.0545 65.2626 64.3652L65.3454 64.1698L61.3336 62.5501L61.2638 62.7151L61.2594 62.7238Z" fill="#6F6F6F"/>
<path d="M81.2446 54.9768C80.717 53.9259 79.9103 53.0661 78.8419 52.4191C77.5075 51.6027 76.0074 51.1901 74.3983 51.1901C72.7892 51.1901 71.3283 51.5636 70.0507 52.2975C68.773 53.0314 67.7438 54.1083 67.0112 55.4805C66.2743 56.8484 65.8992 58.4942 65.8992 60.3615C65.8992 62.2287 66.2743 63.5271 67.0243 64.8994C67.7744 66.2673 68.8166 67.3616 70.151 68.1649C71.4723 68.9683 72.9723 69.3808 74.6076 69.3808C76.2429 69.3808 77.6078 68.9379 78.9117 68.0824C79.9539 67.405 80.7301 66.5452 81.2446 65.5377V69.0508H85.5792V51.5419H81.2446V54.9855V54.9768ZM75.5757 65.7071C74.6294 65.7071 73.7442 65.4726 72.9244 65.0166C72.1046 64.5607 71.4374 63.9093 70.9533 63.1059C70.4693 62.2895 70.2164 61.3646 70.2164 60.3398C70.2164 58.6115 70.7309 57.2566 71.7426 56.2882C72.7543 55.3198 74.0494 54.8378 75.5757 54.8378C77.1019 54.8378 77.477 55.0593 78.3099 55.4892C79.1428 55.9191 79.81 56.5661 80.3114 57.3999C80.8129 58.2293 81.0615 59.2237 81.0615 60.3311C81.0615 61.4384 80.8129 62.2808 80.3114 63.0972C79.81 63.9136 79.1297 64.565 78.2837 65.0079C77.4377 65.4639 76.535 65.6984 75.5626 65.6984L75.5757 65.7114V65.7071Z" fill="#6F6F6F"/>
<path d="M102.425 52.558C101.103 51.7677 99.6338 51.3682 98.0203 51.3682C96.4069 51.3682 95.0332 51.8111 93.7425 52.6666C92.7133 53.344 91.9502 54.2038 91.4356 55.2113V51.6287H87.1011V75H91.4356V65.6246C91.9633 66.6624 92.77 67.5049 93.8253 68.1562C95.1466 68.9726 96.6293 69.3852 98.2122 69.3852C99.7952 69.3852 101.252 69.0117 102.516 68.2778C103.781 67.5439 104.793 66.48 105.53 65.1122C106.253 63.7573 106.628 62.1245 106.628 60.2703C106.628 58.416 106.253 57.1437 105.516 55.7888C104.779 54.434 103.737 53.3527 102.433 52.5537H102.42L102.425 52.558ZM97.0217 55.0332C97.9506 55.0332 98.8401 55.2547 99.6338 55.6976C100.427 56.1406 101.077 56.7746 101.553 57.5779C102.037 58.3813 102.276 59.2932 102.276 60.2877C102.276 61.9595 101.762 63.3013 100.763 64.2697C99.7646 65.2381 98.5 65.7201 97.013 65.7201C95.526 65.7201 95.1117 65.4986 94.2919 65.0687C93.4721 64.6388 92.818 64.0048 92.3209 63.1884C91.8368 62.372 91.5839 61.4037 91.5839 60.2833C91.5839 59.1629 91.8325 58.3466 92.3209 57.5606C92.8049 56.7702 93.4721 56.1362 94.305 55.6933C95.1379 55.2504 96.0406 55.0159 96.9999 55.0159L97.0261 55.0289L97.0217 55.0332Z" fill="#6F6F6F"/>
<path d="M112.132 51.5332H107.797V69.0421H112.132V51.5332Z" fill="#6F6F6F"/>
<path d="M111.534 46.4568C111.089 46.0703 110.562 45.8749 109.977 45.8749C109.393 45.8749 108.865 46.0703 108.408 46.4568C107.95 46.8563 107.714 47.3818 107.714 48.0201C107.714 48.6585 107.95 49.223 108.408 49.6225C108.852 50.009 109.38 50.2044 109.977 50.2044C110.575 50.2044 111.089 50.009 111.534 49.6225C111.992 49.223 112.228 48.6802 112.228 48.0201C112.228 47.3601 111.992 46.8563 111.534 46.4568Z" fill="#6F6F6F"/>
<path d="M125.755 64.8082C125.031 65.1122 124.35 65.2641 123.714 65.2641C122.741 65.2641 121.952 64.9602 121.324 64.3652C120.714 63.7703 120.395 62.9409 120.395 61.89V55.1679H125.397V51.5462H120.439L120.413 46.3613H116.078V48.2286C116.078 49.0189 116.021 49.6399 115.912 50.0828C115.816 50.4997 115.581 50.9817 115.232 51.2032C114.87 51.4377 114.303 51.5506 113.536 51.5506H113.357V55.1722H116.078V62.3373C116.078 63.8311 116.41 65.1035 117.051 66.1413C117.705 67.1662 118.577 67.9521 119.663 68.4776C120.731 68.99 121.913 69.2505 123.147 69.2505C124.381 69.2505 125.48 69.0161 126.579 68.5601L126.718 68.5036L125.968 64.73L125.759 64.8125L125.755 64.8082Z" fill="#6F6F6F"/>
<path d="M142.003 54.9768C141.475 53.9259 140.668 53.0661 139.6 52.4191C138.265 51.6027 136.765 51.1901 135.156 51.1901C133.547 51.1901 132.086 51.5636 130.809 52.2975C129.531 53.0314 128.502 54.1083 127.769 55.4805C127.032 56.8484 126.657 58.4942 126.657 60.3615C126.657 62.2287 127.032 63.5271 127.782 64.8994C128.532 66.2673 129.575 67.3616 130.909 68.1649C132.23 68.9683 133.73 69.3808 135.366 69.3808C137.001 69.3808 138.366 68.9379 139.67 68.0824C140.712 67.405 141.488 66.5452 142.003 65.5377V69.0508H146.337V51.5419H142.003V54.9855V54.9768ZM136.338 65.7071C135.392 65.7071 134.507 65.4726 133.687 65.0166C132.867 64.5607 132.2 63.9093 131.716 63.1059C131.232 62.2895 130.979 61.3646 130.979 60.3398C130.979 58.6115 131.493 57.2566 132.505 56.2882C133.517 55.3198 134.812 54.8378 136.338 54.8378C137.864 54.8378 138.239 55.0593 139.072 55.4892C139.905 55.9191 140.572 56.5661 141.074 57.3999C141.575 58.2293 141.824 59.2237 141.824 60.3311C141.824 61.4384 141.575 62.2808 141.074 63.0972C140.572 63.9136 139.892 64.565 139.046 65.0079C138.2 65.4639 137.297 65.6984 136.325 65.6984L136.338 65.7114V65.7071Z" fill="#6F6F6F"/>
<path d="M152.198 46.3613H147.863V69.0421H152.198V46.3613Z" fill="#6F6F6F"/>
<path d="M171.917 59.6102C171.751 57.8689 171.25 56.362 170.43 55.1027C169.597 53.8434 168.511 52.862 167.181 52.1976C165.86 51.5332 164.377 51.2032 162.764 51.2032C161.151 51.2032 159.528 51.5636 158.111 52.2671C156.694 52.9706 155.543 54.0388 154.697 55.4067C153.851 56.7746 153.419 58.4334 153.419 60.3441C153.419 62.2548 153.864 63.6618 154.723 65.047C155.582 66.4149 156.751 67.4962 158.168 68.2561C159.598 69.0161 161.142 69.3895 162.764 69.3895C164.386 69.3895 166.043 68.99 167.456 68.2127C168.873 67.4397 169.985 66.3454 170.775 64.9645L170.871 64.7995L167.552 63.1103L167.469 63.2623C167.038 64.0656 166.401 64.6736 165.581 65.1035C164.748 65.5334 163.832 65.7418 162.847 65.7418C161.861 65.7418 161.207 65.5464 160.431 65.173C159.655 64.7995 159.001 64.248 158.473 63.5706C157.989 62.9322 157.697 62.2157 157.583 61.3993L171.917 61.3733V61.2213C171.987 60.8478 172 60.5829 172 60.4179C172 60.2529 171.974 59.9489 171.93 59.6276L171.917 59.6146V59.6102ZM157.849 58.7678C158.072 57.5779 158.643 56.6226 159.546 55.9061C160.505 55.1461 161.617 54.7597 162.838 54.7597C164.059 54.7597 165.101 55.1461 166.074 55.9235C166.99 56.6443 167.561 57.5953 167.783 58.733L157.854 58.7591V58.7721L157.849 58.7678Z" fill="#6F6F6F"/>
<path d="M50.4056 28.1142C49.3852 27.098 47.7412 25.8821 46.4199 24.9051C46.1321 24.6923 45.8617 24.4925 45.6132 24.3015C45.478 24.2016 45.3384 24.093 45.2033 23.9888L45.164 23.9584C43.9735 23.0421 42.6304 22.0086 40.9559 21.8783H40.9123L28.8287 21.9131H27.6513C27.4638 21.9131 27.3025 22.0173 27.224 22.191C27.1499 22.3604 27.1804 22.5514 27.3068 22.6904L28.0176 23.4677L30.9262 26.3989C31.2359 26.7115 31.6676 26.8939 32.1124 26.8939L34.9817 26.9026H41.4574L42.1115 27.4975C40.6201 27.7103 39.2901 28.5267 38.4267 29.773L38.418 29.7904C37.0923 31.7097 36.6868 33.6117 37.1359 35.7787C37.2711 36.43 37.4194 37.0119 37.5633 37.5764C37.9296 39.0138 38.2479 40.2558 38.1432 41.9233C37.9732 44.5722 36.2769 46.4742 34.4672 48.133L34.4192 48.1765L33.2767 49.2881C34.0572 41.9189 31.6501 35.809 25.3838 29.0912C23.827 27.4237 22.3051 25.843 20.7265 24.2537L0.789291 5.12937C0.654108 4.9991 0.457876 4.96436 0.283447 5.03818C0.109018 5.112 0 5.27701 0 5.46374L0.0130822 11.756C0.0130822 12.1946 0.18315 12.6071 0.492762 12.9198L7.46992 19.985L22.135 34.4585C24.9085 37.1986 26.7618 40.7421 27.3461 44.4376C27.6121 46.1094 27.6295 47.7075 27.3941 49.1969C26.7705 53.1877 26.3213 54.5903 25.8416 56.0754C25.375 57.5215 24.891 59.0196 24.2107 62.8888C23.8793 65.4465 25.4361 68.2865 27.913 69.6457L28.5584 70.0018L31.1748 58.7721L41.0082 50.022L41.0213 50.009C43.8427 46.8042 44.7672 42.6311 43.6901 37.9412C43.5811 37.4679 43.4372 37.0076 43.2933 36.5603C43.0665 35.8525 42.8528 35.1837 42.8441 34.6236V34.5932C42.8441 34.3891 42.8703 34.211 42.9313 34.046C43.2802 32.9213 44.3747 32.6607 44.427 32.6521C46.5812 32.0832 48.2034 32.7519 49.1846 33.4163L50.144 34.0634L50.5495 32.9864C50.7588 32.4306 50.9245 31.8965 50.9725 31.7097C51.2167 30.7457 51.583 29.2866 50.4012 28.1142H50.4056Z" fill="#6F6F6F"/>
<path d="M24.3895 49.5183C25.3663 42.5964 21.9388 38.5709 17.3557 34.0286C16.7016 33.3773 16.1129 32.8084 15.5634 32.2786L0.776209 18.9211C0.636666 18.7952 0.444794 18.7648 0.274726 18.8386C0.104657 18.9124 0 19.0774 0 19.2598V25.0266C0 25.4783 0.187511 25.9169 0.514565 26.2295L15.389 40.4729C16.8498 41.8712 17.8877 43.6038 18.3848 45.4754C18.4197 45.61 18.4633 45.8749 18.5113 46.2223C18.5636 46.6218 18.6203 47.1386 18.6639 47.6423C18.6726 47.7943 18.677 47.955 18.677 48.1157L0.789291 30.9368C0.654108 30.8065 0.457876 30.7718 0.283447 30.8456C0.109018 30.9194 0 31.0844 0 31.2711V36.7036C0 37.1422 0.170068 37.5547 0.47968 37.8717L11.8524 49.4314L17.1333 54.1561C17.6042 54.5773 17.8615 55.1765 17.831 55.7975C17.6478 59.7796 19.4357 61.5426 19.7977 61.8553C20.0201 62.042 20.273 62.2418 20.5695 62.4676L21.2585 62.9974L24.3895 49.5357V49.5183Z" fill="#6F6F6F"/>
</svg>
