<?xml version="1.0" encoding="UTF-8"?>
<svg id="Camada_1" xmlns="http://www.w3.org/2000/svg" version="1.1" viewBox="0 0 1200 1200">
  <defs>
    <style>
      .st0 {
        fill: #1c1815;
      }
      .st1 {
        fill: none;
      }
      .st2 {
        fill: #daa500;
      }
      .st3 {
        fill: #ffcc1b;
      }
    </style>
  </defs>
  <path class="st3" d="M394.62,873.79v-365.13c0-66.48,17.86-128.76,48.9-182.45H167.92c-51.25,0-92.79,41.54-92.79,92.79v544.67c0,51.25,41.55,92.79,92.79,92.79h453.39c51.25,0,92.79-41.54,92.79-92.79v-89.88h-319.49Z"/>
  <path class="st0" d="M759.74,143.53c-201.65,0-365.13,163.47-365.13,365.13v365.13h365.11s.01,0,.02,0c201.65,0,365.13-163.47,365.13-365.13s-163.47-365.13-365.13-365.13ZM759.86,691.11c-100.83,0-182.56-81.74-182.56-182.56s81.74-182.56,182.56-182.56,182.56,81.74,182.56,182.56-81.74,182.56-182.56,182.56Z"/>
  <rect class="st1" x="75.13" y="326.21" width="638.97" height="730.25" rx="92.79" ry="92.79"/>
  <path class="st2" d="M713.33,873.79h-318.71l299.21,148.89c13.83-16.06,19.5-33.91,19.5-53.77v-95.12Z"/>
</svg>