<svg width="173" height="35" viewBox="0 0 173 35" fill="none" xmlns="http://www.w3.org/2000/svg">
<g clip-path="url(#clip0_8001_13202)">
<path d="M12.3731 28.0087V14.0043C12.3731 11.4548 13.0654 9.06663 14.2669 7.00633H3.59446C1.60818 7.00633 0 8.60065 0 10.5661V31.4569C0 33.4224 1.60818 35.0167 3.59446 35.0167H21.1534C23.138 35.0167 24.7478 33.424 24.7478 31.4569V28.0087H12.3748H12.3731Z" fill="#FFCC1B"/>
<path d="M26.514 0C18.705 0 12.3731 6.26908 12.3731 14.0043V28.0087H26.514C34.323 28.0087 40.6549 21.7379 40.6549 14.0043C40.6549 6.27075 34.323 0 26.514 0ZM26.5191 21.0023C22.6137 21.0023 19.4494 17.867 19.4494 14.001C19.4494 10.135 22.6154 6.99967 26.5191 6.99967C30.4227 6.99967 33.5887 10.135 33.5887 14.001C33.5887 17.867 30.4227 21.0023 26.5191 21.0023Z" fill="#1C1815"/>
<path d="M24.7159 28.0087H12.3731L23.9614 33.7186C24.4975 33.1028 24.7159 32.4188 24.7159 31.6566V28.0087Z" fill="#DAA500"/>
<path d="M50.672 32.5669V21.0623C50.672 19.2682 51.1761 17.9102 52.1861 16.9883C53.196 16.0663 54.6563 15.6036 56.572 15.6036C58.4877 15.6036 60.0606 16.048 61.0353 16.9367C62.0099 17.8254 62.4973 19.2 62.4973 21.0623V23.2906C62.4973 27.0151 60.7025 28.8757 57.1165 28.8757C55.2882 28.8757 54.0211 28.3215 53.3136 27.2098V32.5653C53.3136 33.0263 53.2363 33.3341 53.0817 33.4873C52.9271 33.6404 52.6163 33.7169 52.1508 33.7169H51.8399C51.3744 33.7169 51.0635 33.6404 50.9089 33.4873C50.7543 33.3341 50.677 33.0263 50.677 32.5653L50.672 32.5669ZM59.8304 23.3422V21.1388C59.8304 20.0121 59.5968 19.2166 59.1313 18.7557C58.6659 18.2947 57.8206 18.0633 56.5955 18.0633C55.3705 18.0633 54.5168 18.2947 54.0346 18.7557C53.5506 19.2166 53.3103 20.0105 53.3103 21.1388V23.3422C53.3103 24.4522 53.5523 25.2378 54.0346 25.6987C54.5168 26.1597 55.3705 26.3911 56.5955 26.3911C57.8206 26.3911 58.6659 26.1647 59.1313 25.7121C59.5968 25.2594 59.8304 24.4689 59.8304 23.3422Z" fill="#1D1D1B"/>
<path d="M75.1728 19.8058V24.7768C75.1728 26.1947 74.7325 27.2331 73.8537 27.8905C72.9731 28.5479 71.5767 28.8774 69.6627 28.8774C66.1606 28.8774 64.4096 27.5627 64.4096 24.9315C64.4096 23.5985 64.8448 22.6216 65.717 21.9975C66.5875 21.3735 67.9116 21.0623 69.6879 21.0623H72.5345V19.8074C72.5345 19.0902 72.2976 18.5859 71.8237 18.2963C71.3498 18.0051 70.5684 17.8603 69.4829 17.8603C68.3973 17.8603 67.5419 17.9369 66.7673 18.0916C66.3875 18.1599 66.1337 18.1382 66.0043 18.0267C65.8749 17.9152 65.8094 17.6639 65.8094 17.2712V16.9117C65.8094 16.5373 65.8733 16.276 66.0043 16.1312C66.1337 15.9864 66.3791 15.8799 66.7421 15.81C67.6562 15.6735 68.5183 15.6053 69.3299 15.6053C71.2961 15.6053 72.7614 15.9381 73.7276 16.6055C74.6939 17.2712 75.1762 18.3396 75.1762 19.8091L75.1728 19.8058ZM72.5345 24.6486V23.0593H69.6879C68.7905 23.0593 68.1301 23.2008 67.7083 23.482C67.2848 23.7633 67.0748 24.2292 67.0748 24.8783C67.0748 25.5273 67.2815 25.9634 67.6949 26.2363C68.1083 26.5092 68.7468 26.6457 69.6106 26.6457C70.6625 26.6457 71.412 26.5009 71.8607 26.2097C72.3094 25.9184 72.5329 25.3975 72.5329 24.647L72.5345 24.6486Z" fill="#1D1D1B"/>
<path d="M80.3721 20.3183V27.4412C80.3721 27.9022 80.2948 28.21 80.1402 28.3631C79.9839 28.5163 79.6747 28.5928 79.2093 28.5928H78.8732C78.4077 28.5928 78.0968 28.5163 77.9422 28.3631C77.7876 28.21 77.7086 27.9022 77.7086 27.4412V20.1386C77.7086 17.1147 79.3386 15.6036 82.5987 15.6036C82.8928 15.6036 83.0642 15.612 83.1163 15.6286C83.5465 15.6802 83.8372 15.7817 83.9834 15.9365C84.1296 16.0896 84.2035 16.3891 84.2035 16.8335V17.193C84.2035 17.6207 84.1346 17.8936 83.9968 18.0134C83.8574 18.1332 83.565 18.1599 83.1163 18.09C83.0642 18.0733 82.8928 18.0633 82.5987 18.0633C81.7702 18.0633 81.1922 18.2348 80.8645 18.5759C80.5368 18.9187 80.3721 19.4979 80.3721 20.3183Z" fill="#1D1D1B"/>
<path d="M85.8318 23.4953V20.984C85.8318 19.2582 86.3444 17.9302 87.3711 16.9999C88.3979 16.0696 89.8767 15.6036 91.8092 15.6036C92.5166 15.6036 93.1888 15.6885 93.8274 15.8599C94.2576 15.9631 94.5382 16.0946 94.6676 16.2577C94.797 16.4208 94.8625 16.7153 94.8625 17.1414V17.4742C94.8625 17.9186 94.7852 18.2015 94.6306 18.3196C94.4744 18.4395 94.1904 18.4395 93.777 18.3196C93.3115 18.1499 92.6729 18.0633 91.8629 18.0633C90.6211 18.0633 89.749 18.2863 89.2499 18.7307C88.7491 19.175 88.5004 19.9356 88.5004 21.0107V23.4188C88.5004 24.5288 88.7625 25.3027 89.2902 25.737C89.8162 26.173 90.7354 26.3894 92.0461 26.3894C92.5469 26.3894 93.2107 26.3128 94.0374 26.1597C94.4508 26.0749 94.7315 26.0915 94.8777 26.2113C95.0239 26.3311 95.0978 26.6041 95.0978 27.0318V27.3397C95.0978 27.7491 95.0239 28.0403 94.8777 28.2117C94.7315 28.3831 94.4424 28.5196 94.0106 28.6211C93.3384 28.7925 92.6393 28.8774 91.915 28.8774C87.8618 28.8774 85.8352 27.0834 85.8352 23.497L85.8318 23.4953Z" fill="#1D1D1B"/>
<path d="M107.978 20.9075C107.978 20.9757 107.962 21.3518 107.926 22.0341C107.874 22.5118 107.762 22.828 107.59 22.9811C107.417 23.1359 107.089 23.2124 106.607 23.2124H99.4149V23.7766C99.4149 24.7152 99.7039 25.3859 100.282 25.7886C100.86 26.1897 101.804 26.3911 103.115 26.3911C104.236 26.3911 105.357 26.2546 106.479 25.9817C106.893 25.8785 107.173 25.8918 107.32 26.0199C107.466 26.1481 107.54 26.4343 107.54 26.8787V27.2115C107.54 27.6375 107.474 27.9255 107.345 28.0702C107.215 28.215 106.926 28.3482 106.478 28.468C105.495 28.7409 104.374 28.8774 103.114 28.8774C100.922 28.8774 99.3141 28.438 98.289 27.5577C97.2622 26.6773 96.7497 25.2893 96.7497 23.3938V21.1654C96.7497 17.4592 98.6637 15.6053 102.493 15.6053C104.286 15.6053 105.649 16.053 106.582 16.95C107.513 17.847 107.98 19.1667 107.98 20.9091L107.978 20.9075ZM99.4149 20.4215V21.0623H105.47V20.4215C105.47 18.7307 104.451 17.8853 102.416 17.8853C100.381 17.8853 99.4149 18.7307 99.4149 20.4215Z" fill="#1D1D1B"/>
<path d="M110.541 25.0081V11.8126C110.541 11.3516 110.618 11.0437 110.773 10.8906C110.928 10.7358 111.238 10.6593 111.704 10.6593H112.04C112.505 10.6593 112.816 10.7358 112.971 10.8906C113.126 11.0437 113.203 11.3516 113.203 11.8126V24.4955C113.203 25.1612 113.297 25.6322 113.487 25.9051C113.677 26.178 113.988 26.3145 114.418 26.3145C114.848 26.3145 115.12 26.3744 115.233 26.4942C115.345 26.6141 115.401 26.8953 115.401 27.3397V27.596C115.401 28.0053 115.332 28.2833 115.194 28.4281C115.056 28.5745 114.771 28.6893 114.34 28.7742C114.288 28.7909 114.167 28.7992 113.979 28.7992C112.892 28.7992 112.047 28.4796 111.443 27.8373C110.84 27.1965 110.538 26.2529 110.538 25.0064L110.541 25.0081Z" fill="#1D1D1B"/>
<path d="M128.056 20.9075C128.056 20.9757 128.039 21.3518 128.004 22.0341C127.952 22.5118 127.84 22.828 127.668 22.9811C127.495 23.1359 127.167 23.2124 126.685 23.2124H119.493V23.7766C119.493 24.7152 119.782 25.3859 120.36 25.7886C120.938 26.1897 121.882 26.3911 123.193 26.3911C124.314 26.3911 125.435 26.2546 126.557 25.9817C126.971 25.8785 127.251 25.8918 127.398 26.0199C127.544 26.1481 127.618 26.4343 127.618 26.8787V27.2115C127.618 27.6375 127.552 27.9255 127.423 28.0702C127.293 28.215 127.004 28.3482 126.556 28.468C125.573 28.7409 124.452 28.8774 123.191 28.8774C121 28.8774 119.392 28.438 118.367 27.5577C117.34 26.6773 116.828 25.2893 116.828 23.3938V21.1654C116.828 17.4592 118.742 15.6053 122.571 15.6053C124.364 15.6053 125.727 16.053 126.66 16.95C127.591 17.847 128.058 19.1667 128.058 20.9091L128.056 20.9075ZM119.491 20.4215V21.0623H125.546V20.4215C125.546 18.7307 124.527 17.8853 122.492 17.8853C120.457 17.8853 119.491 18.7307 119.491 20.4215Z" fill="#1D1D1B"/>
<path d="M140.164 19.6527V24.8034C140.164 26.238 139.745 27.2681 138.909 27.8905C138.072 28.5146 136.714 28.8258 134.833 28.8258C133.435 28.8258 132.328 28.5063 131.51 27.8639C130.69 27.2232 130.281 26.2979 130.281 25.0847C130.281 23.8032 130.703 22.8729 131.548 22.2921C132.393 21.7113 133.729 21.4201 135.558 21.4201H138.793V19.6527C138.793 18.7307 138.495 18.0634 137.9 17.654C137.305 17.2446 136.386 17.0399 135.144 17.0399C133.988 17.0399 132.953 17.1597 132.039 17.3977C131.815 17.4659 131.664 17.4659 131.587 17.3977C131.51 17.3294 131.471 17.1763 131.471 16.9367V16.7569C131.471 16.5356 131.51 16.3808 131.587 16.296C131.664 16.2111 131.815 16.1429 132.039 16.0913C132.936 15.9032 133.945 15.81 135.065 15.81C138.463 15.81 140.162 17.0915 140.162 19.6527H140.164ZM138.793 24.7518V22.5484H135.61C134.195 22.5484 133.182 22.7415 132.57 23.1259C131.958 23.5103 131.651 24.1627 131.651 25.0863C131.651 26.7605 132.711 27.5976 134.833 27.5976C136.282 27.5976 137.304 27.3896 137.899 26.9702C138.493 26.5525 138.791 25.8136 138.791 24.7535L138.793 24.7518Z" fill="#1D1D1B"/>
<path d="M153.851 21.0356V33.1045C153.851 33.3441 153.807 33.5056 153.722 33.5921C153.634 33.677 153.471 33.7203 153.229 33.7203H153.073C152.831 33.7203 152.668 33.677 152.582 33.5921C152.495 33.5072 152.453 33.3441 152.453 33.1045V26.7755C151.798 28.1418 150.393 28.8258 148.237 28.8258C146.392 28.8258 145.042 28.3898 144.187 27.5194C143.333 26.649 142.906 25.3243 142.906 23.5486V21.0373C142.906 19.2782 143.342 17.9668 144.214 17.1048C145.084 16.2427 146.469 15.81 148.366 15.81C152.023 15.81 153.851 17.5524 153.851 21.0373V21.0356ZM144.278 21.0623V23.5736C144.278 24.9915 144.583 26.0083 145.197 26.6224C145.808 27.2365 146.865 27.5444 148.366 27.5444C149.867 27.5444 150.924 27.2365 151.535 26.6224C152.147 26.0083 152.455 24.9915 152.455 23.5736V21.0623C152.455 19.6444 152.149 18.6275 151.535 18.0134C150.924 17.3993 149.867 17.0915 148.366 17.0915C146.865 17.0915 145.808 17.3993 145.197 18.0134C144.585 18.6275 144.278 19.6444 144.278 21.0623Z" fill="#1D1D1B"/>
<path d="M158.455 16.6538V24.186C158.455 25.3642 158.744 26.2197 159.323 26.7489C159.901 27.2781 160.887 27.5427 162.285 27.5427C163.683 27.5427 164.67 27.2781 165.248 26.7489C165.826 26.2197 166.115 25.3642 166.115 24.186V16.6538C166.115 16.4141 166.159 16.2527 166.244 16.1662C166.33 16.0796 166.495 16.038 166.737 16.038H166.866C167.106 16.038 167.271 16.0813 167.358 16.1662C167.444 16.251 167.488 16.4141 167.488 16.6538V24.186C167.488 25.7404 167.069 26.902 166.233 27.6708C165.396 28.4397 164.082 28.8241 162.287 28.8241C158.82 28.8241 157.086 27.2781 157.086 24.186V16.6538C157.086 16.4141 157.128 16.2527 157.215 16.1662C157.303 16.0796 157.466 16.038 157.708 16.038H157.837C158.077 16.038 158.242 16.0813 158.329 16.1662C158.415 16.251 158.459 16.4141 158.459 16.6538H158.455Z" fill="#1D1D1B"/>
<path d="M170.59 12.0422C170.59 11.4281 170.918 11.1203 171.573 11.1203C171.832 11.1203 172.052 11.1935 172.232 11.3383C172.413 11.4831 172.504 11.6844 172.504 11.9407C172.504 12.2486 172.422 12.4999 172.259 12.6963C172.094 12.8926 171.865 12.9908 171.573 12.9908C171.297 12.9908 171.064 12.8976 170.874 12.7096C170.684 12.5215 170.59 12.3002 170.59 12.0439V12.0422ZM170.874 27.9804V16.6554C170.874 16.4158 170.916 16.2543 171.003 16.1678C171.091 16.0813 171.254 16.0397 171.496 16.0397H171.625C171.865 16.0397 172.03 16.0829 172.117 16.1678C172.203 16.2527 172.247 16.4158 172.247 16.6554V27.9804C172.247 28.22 172.203 28.3815 172.117 28.468C172.032 28.5545 171.867 28.5961 171.625 28.5961H171.496C171.254 28.5961 171.091 28.5545 171.003 28.468C170.918 28.3831 170.874 28.22 170.874 27.9804Z" fill="#1D1D1B"/>
</g>
<defs>
<clipPath id="clip0_8001_13202">
<rect width="172.504" height="35.015" fill="white"/>
</clipPath>
</defs>
</svg>
