<svg width="56" height="56" viewBox="0 0 56 56" fill="none" xmlns="http://www.w3.org/2000/svg">
<path d="M28.0001 51.3332C23.2556 51.3332 18.9135 49.9376 14.9736 47.1466C11.0338 44.3555 8.12161 40.8287 6.23706 36.5661V45.0513H4.44214V33.3846H16.1088V35.1795H7.62364C9.18814 39.2807 11.8827 42.6991 15.7075 45.4345C19.5322 48.1703 23.6297 49.5383 28.0001 49.5383C30.8537 49.5383 33.5423 49.0222 36.0658 47.9901C38.5889 46.958 40.8145 45.5304 42.7426 43.7073C44.6707 41.8838 46.2331 39.7254 47.4297 37.2323C48.6263 34.7387 49.3143 32.0501 49.4936 29.1665H51.2885C51.1387 32.2566 50.423 35.1478 49.1412 37.8401C47.8594 40.5324 46.1791 42.8807 44.1001 44.885C42.0211 46.8893 39.5979 48.4651 36.8306 49.6123C34.0636 50.7596 31.1201 51.3332 28.0001 51.3332ZM26.9816 43.6198V40.6943C25.4408 40.3171 24.0999 39.7104 22.9589 38.8743C21.8175 38.0382 20.8534 36.8455 20.0667 35.2962L21.7403 34.6183C22.3866 36.0362 23.2953 37.143 24.4662 37.9387C25.6376 38.7347 26.9366 39.1328 28.3635 39.1328C29.8891 39.1328 31.272 38.7386 32.5121 37.9503C33.7519 37.1621 34.3718 35.9513 34.3718 34.3179C34.3718 32.9448 33.938 31.8506 33.0704 31.0355C32.2032 30.2204 30.4816 29.2983 27.9056 28.2693C25.363 27.2971 23.5457 26.3068 22.4537 25.2984C21.3621 24.2904 20.8163 22.9233 20.8163 21.197C20.8163 19.7254 21.3547 18.4168 22.4316 17.2712C23.5084 16.1255 25.0639 15.4166 27.0982 15.1443V12.3933H29.0051V15.1443C30.2438 15.24 31.3776 15.6168 32.4066 16.2748C33.4356 16.9328 34.2806 17.8228 34.9417 18.9448L33.3533 19.6582C32.74 18.7489 32.0056 18.0369 31.1501 17.522C30.2945 17.0075 29.2834 16.7503 28.1167 16.7503C26.5102 16.7503 25.2022 17.1751 24.1926 18.0248C23.1831 18.8746 22.6783 19.9319 22.6783 21.197C22.6783 22.5013 23.0643 23.508 23.8362 24.2169C24.6078 24.9259 26.2709 25.762 28.8255 26.7253C31.5687 27.7935 33.4818 28.875 34.5649 29.9698C35.6476 31.0645 36.1889 32.5139 36.1889 34.3179C36.1889 35.38 35.9766 36.3044 35.5519 37.0911C35.1272 37.8778 34.5791 38.5403 33.9075 39.0785C33.2359 39.6171 32.4633 40.0338 31.5899 40.3286C30.7164 40.623 29.816 40.7838 28.8885 40.811V43.6198H26.9816ZM4.71164 26.8332C4.92086 23.5933 5.68133 20.6199 6.99306 17.9128C8.30517 15.2054 10.0157 12.8645 12.1246 10.8901C14.2336 8.9157 16.6492 7.38484 19.3714 6.29751C22.0936 5.21017 24.9698 4.6665 28.0001 4.6665C32.6547 4.6665 36.9968 6.06942 41.0265 8.87526C45.0557 11.6815 47.9679 15.2608 49.7631 19.6133V10.9484H51.558V22.6151H39.8913V20.8202H48.3765C46.9014 16.8687 44.2539 13.4877 40.4338 10.6772C36.6138 7.86667 32.4692 6.46142 28.0001 6.46142C25.2658 6.46142 22.6371 6.9625 20.114 7.96467C17.5905 8.96684 15.3573 10.3645 13.4144 12.1577C11.4715 13.9512 9.87939 16.0946 8.63806 18.5878C7.39633 21.0813 6.68583 23.8298 6.50656 26.8332H4.71164Z" fill="#371B01"/>
</svg>
