<svg width="56" height="56" viewBox="0 0 56 56" fill="none" xmlns="http://www.w3.org/2000/svg">
<path d="M13.5333 48.9998C12.3406 48.9998 11.3281 48.5839 10.4959 47.7521C9.66409 46.9198 9.24817 45.9144 9.24817 44.7356V39.936H16.4319V7.89697L19.3912 9.96139L22.4397 7.89697L25.4882 9.96139L28.5367 7.89697L31.5852 9.96139L34.6366 7.89697L37.688 9.96139L40.7388 7.89697L43.7903 9.96139L46.7518 7.89697V44.7146C46.7518 45.9074 46.3359 46.9198 45.5041 47.7521C44.6719 48.5839 43.6594 48.9998 42.4667 48.9998H13.5333ZM42.4888 47.2049C43.1919 47.2049 43.7792 46.9694 44.2505 46.4985C44.7215 46.0271 44.9569 45.4325 44.9569 44.7146V11.1281H18.2268V39.936H40.0213V44.7146C40.0213 45.4325 40.2568 46.0271 40.7278 46.4985C41.1991 46.9694 41.7861 47.2049 42.4888 47.2049ZM21.812 19.223V17.4281H34.2866V19.223H21.812ZM21.812 26.636V24.8411H34.2866V26.636H21.812ZM39.6667 19.8512C39.2599 19.8512 38.9039 19.6986 38.5986 19.3933C38.2937 19.0884 38.1413 18.7324 38.1413 18.3252C38.1413 17.9184 38.2937 17.5626 38.5986 17.2577C38.9039 16.9524 39.2599 16.7998 39.6667 16.7998C40.0734 16.7998 40.4295 16.9524 40.7348 17.2577C41.0396 17.5626 41.1921 17.9184 41.1921 18.3252C41.1921 18.7324 41.0396 19.0884 40.7348 19.3933C40.4295 19.6986 40.0734 19.8512 39.6667 19.8512ZM39.6667 27.1067C39.2599 27.1067 38.9039 26.9543 38.5986 26.6494C38.2937 26.3441 38.1413 25.9881 38.1413 25.5813C38.1413 25.1745 38.2937 24.8185 38.5986 24.5132C38.9039 24.2079 39.2599 24.0553 39.6667 24.0553C40.0734 24.0553 40.4295 24.2079 40.7348 24.5132C41.0396 24.8185 41.1921 25.1745 41.1921 25.5813C41.1921 25.9881 41.0396 26.3441 40.7348 26.6494C40.4295 26.9543 40.0734 27.1067 39.6667 27.1067ZM13.4878 47.2049H38.2264V41.7303H11.0431V44.7146C11.0431 45.4325 11.2815 46.0271 11.7583 46.4985C12.2354 46.9694 12.8119 47.2049 13.4878 47.2049Z" fill="#371B01"/>
</svg>
