<svg width="64" height="64" viewBox="0 0 64 64" fill="none" xmlns="http://www.w3.org/2000/svg">
<path d="M17.0253 56C16.028 56 15.1633 55.634 14.4313 54.902C13.6993 54.17 13.3333 53.3053 13.3333 52.308V27.8873C13.3333 26.8633 13.6993 25.992 14.4313 25.2733C15.1633 24.5542 16.028 24.1947 17.0253 24.1947H21.6413V18.3587C21.6413 15.4729 22.6473 13.0251 24.6593 11.0153C26.6713 9.00511 29.1218 8 32.0106 8C34.8991 8 37.346 9.00511 39.3513 11.0153C41.3562 13.0251 42.3586 15.4729 42.3586 18.3587V24.1947H46.9746C47.972 24.1947 48.8366 24.5542 49.5686 25.2733C50.3006 25.992 50.6666 26.8633 50.6666 27.8873V52.308C50.6666 53.3053 50.3006 54.17 49.5686 54.902C48.8366 55.634 47.972 56 46.9746 56H17.0253ZM17.0253 53.9487H46.9746C47.4529 53.9487 47.846 53.7949 48.154 53.4873C48.4615 53.1793 48.6153 52.7862 48.6153 52.308V27.8873C48.6153 27.4087 48.4615 27.0156 48.154 26.708C47.846 26.4 47.4529 26.246 46.9746 26.246H17.0253C16.5471 26.246 16.154 26.4 15.846 26.708C15.5384 27.0156 15.3846 27.4087 15.3846 27.8873V52.308C15.3846 52.7862 15.5384 53.1793 15.846 53.4873C16.154 53.7949 16.5471 53.9487 17.0253 53.9487ZM32.0113 44C33.0842 44 34.0009 43.6216 34.7613 42.8647C35.5222 42.1078 35.9026 41.1956 35.9026 40.128C35.9026 39.1027 35.5186 38.1907 34.7506 37.392C33.9822 36.5938 33.0615 36.1947 31.9886 36.1947C30.9158 36.1947 29.9991 36.5938 29.2386 37.392C28.4778 38.1907 28.0973 39.1138 28.0973 40.1613C28.0973 41.2093 28.4813 42.1111 29.2493 42.8667C30.0178 43.6222 30.9384 44 32.0113 44ZM23.692 24.1947H40.308V18.3587C40.308 16.0511 39.5013 14.0898 37.888 12.4747C36.2746 10.8591 34.3155 10.0513 32.0106 10.0513C29.7062 10.0513 27.7438 10.8591 26.1233 12.4747C24.5024 14.0898 23.692 16.0511 23.692 18.3587V24.1947Z" fill="#FFB800"/>
</svg>
