<svg width="64" height="64" viewBox="0 0 64 64" fill="none" xmlns="http://www.w3.org/2000/svg">
<path d="M31.946 48.6127H33.9586V45.946H38.564C38.8684 45.946 39.1171 45.8495 39.31 45.6567C39.5033 45.4633 39.6 45.2144 39.6 44.91V36.6027C39.6 36.3435 39.5033 36.116 39.31 35.92C39.1171 35.7235 38.8684 35.6253 38.564 35.6253H28.318V29.3307H39.6V27.318H33.9586V24.6513H31.946V27.318H27.282C26.9775 27.318 26.7386 27.416 26.5653 27.612C26.392 27.808 26.3053 28.0355 26.3053 28.2947V36.6027C26.3053 36.9067 26.392 37.1553 26.5653 37.3487C26.7386 37.542 26.9775 37.6387 27.282 37.6387H37.5873V43.9333H26.3053V45.946H31.946V48.6127ZM17.046 55.9233C16.0566 55.9233 15.2022 55.5633 14.4826 54.8433C13.7626 54.1233 13.4026 53.2691 13.4026 52.2807V11.7193C13.4026 10.7309 13.7626 9.87666 14.4826 9.15666C15.2022 8.43666 16.0602 8.07666 17.0566 8.07666H39.2973L50.5973 19.3433V52.2693C50.5973 53.2653 50.2373 54.1233 49.5173 54.8433C48.7978 55.5633 47.9433 55.9233 46.954 55.9233H17.046ZM37.7433 20.0873V10.09H17.0566C16.6464 10.09 16.2702 10.2609 15.928 10.6027C15.5862 10.9444 15.4153 11.3204 15.4153 11.7307V52.2693C15.4153 52.6796 15.5862 53.0555 15.928 53.3973C16.2702 53.7391 16.6464 53.91 17.0566 53.91H46.9433C47.3535 53.91 47.7298 53.7391 48.072 53.3973C48.4138 53.0555 48.5846 52.6796 48.5846 52.2693V20.0873H37.7433Z" fill="#FFB800"/>
</svg>
