<svg width="48" height="48" viewBox="0 0 48 48" fill="none" xmlns="http://www.w3.org/2000/svg">
<g clip-path="url(#clip0_2151_15756)">
<path d="M23.404 40.3461C23.6986 40.3461 23.9993 40.2853 24.306 40.1636C24.6123 40.042 24.8578 39.876 25.0425 39.6656L40.854 23.8426C41.364 23.3323 41.7658 22.7993 42.0595 22.2436C42.3531 21.6883 42.5 21.0815 42.5 20.4231C42.5 19.7538 42.3531 19.1038 42.0595 18.4731C41.7658 17.8425 41.364 17.272 40.854 16.7616L33.123 9.03114C32.6126 8.52081 32.0806 8.13798 31.527 7.88264C30.973 7.62764 30.3615 7.50014 29.6925 7.50014C29.0341 7.50014 28.4208 7.62764 27.8525 7.88264C27.2841 8.13798 26.7576 8.52081 26.273 9.03114L24.373 10.9311L28.231 14.8001C28.5873 15.1641 28.8873 15.6033 29.131 16.1176C29.3743 16.6316 29.496 17.1655 29.496 17.7191C29.496 18.7038 29.1453 19.5385 28.444 20.2231C27.743 20.9078 26.913 21.2501 25.954 21.2501C25.3513 21.2501 24.8198 21.1636 24.3595 20.9906C23.8991 20.8176 23.4795 20.5516 23.1005 20.1926L19.319 16.3811L10.5385 25.1616C10.3205 25.3796 10.1525 25.6385 10.0345 25.9381C9.91648 26.2375 9.85748 26.531 9.85748 26.8186C9.85748 27.368 10.0313 27.8098 10.379 28.1441C10.7263 28.4788 11.1623 28.6461 11.687 28.6461C12.0006 28.6461 12.307 28.577 12.606 28.4386C12.9046 28.3003 13.1463 28.1388 13.331 27.9541L19.731 21.5541L20.831 22.6541L14.4425 29.0041C14.2245 29.2475 14.0565 29.5141 13.9385 29.8041C13.8205 30.0938 13.7615 30.39 13.7615 30.6926C13.7615 31.195 13.9435 31.6283 14.3075 31.9926C14.6718 32.3566 15.1051 32.5386 15.6075 32.5386C15.9101 32.5386 16.2108 32.4778 16.5095 32.3561C16.8081 32.2341 17.0498 32.068 17.2345 31.8576L24.096 24.9961L25.196 26.0961L18.346 32.9076C18.1613 33.118 18.0018 33.3736 17.8675 33.6746C17.7328 33.9753 17.6655 34.2825 17.6655 34.5961C17.6655 35.0988 17.8475 35.5321 18.2115 35.8961C18.5755 36.2605 19.0088 36.4426 19.5115 36.4426C19.8141 36.4426 20.1065 36.3836 20.3885 36.2656C20.6705 36.1476 20.9205 35.9796 21.1385 35.7616L28 28.9001L29.1 30.0001L22.2385 36.8616C22.0205 37.0796 21.8525 37.3463 21.7345 37.6616C21.6165 37.977 21.5575 38.2693 21.5575 38.5386C21.5575 39.0823 21.7358 39.5195 22.0925 39.8501C22.4488 40.1808 22.886 40.3461 23.404 40.3461ZM23.407 41.8846C22.433 41.8846 21.6025 41.5148 20.9155 40.7751C20.2281 40.0355 19.9293 39.1021 20.019 37.9751C18.8856 38.0175 17.9421 37.6938 17.1885 37.0041C16.4345 36.3141 16.0768 35.3385 16.1155 34.0771C14.8795 34.0898 13.9056 33.743 13.194 33.0366C12.4826 32.3303 12.159 31.3758 12.223 30.1731C11.1436 30.2118 10.2231 29.9298 9.46148 29.3271C8.69981 28.7245 8.31898 27.8783 8.31898 26.7886C8.31898 26.299 8.41831 25.8085 8.61698 25.3171C8.81531 24.8255 9.08531 24.4031 9.42698 24.0501L19.319 14.1576L24.0115 18.8501C24.2525 19.0911 24.5413 19.2931 24.878 19.4561C25.215 19.6188 25.5775 19.7001 25.9655 19.7001C26.4758 19.7001 26.9353 19.5021 27.344 19.1061C27.753 18.7098 27.9575 18.2411 27.9575 17.7001C27.9575 17.3771 27.88 17.065 27.725 16.7636C27.57 16.4623 27.372 16.1783 27.131 15.9116L20.25 9.03114C19.7396 8.52081 19.2011 8.13798 18.6345 7.88264C18.0678 7.62764 17.45 7.50014 16.781 7.50014C16.1226 7.50014 15.5221 7.62764 14.9795 7.88264C14.4368 8.13798 13.9113 8.51831 13.403 9.02364L7.06898 15.3616C6.55131 15.8796 6.16231 16.4546 5.90198 17.0866C5.64165 17.7186 5.52048 18.4238 5.53848 19.2021C5.53081 19.7495 5.62381 20.2801 5.81748 20.7941C6.01081 21.3085 6.25631 21.7771 6.55398 22.2001L5.36548 23.3501C5.00648 22.8218 4.69548 22.1821 4.43248 21.4311C4.16981 20.6798 4.02565 19.9118 3.99998 19.1271C3.97431 18.1785 4.13398 17.2841 4.47898 16.4441C4.82365 15.6045 5.32031 14.8603 5.96898 14.2116L12.25 7.93114C12.9063 7.27448 13.6145 6.78398 14.3745 6.45964C15.1341 6.13531 15.9495 5.97314 16.8205 5.97314C17.6915 5.97314 18.502 6.13531 19.252 6.45964C20.002 6.78398 20.7051 7.27448 21.3615 7.93114L23.2615 9.83114L25.1615 7.93114C25.8178 7.27448 26.5195 6.78398 27.2665 6.45964C28.0135 6.13531 28.8225 5.97314 29.6935 5.97314C30.5645 5.97314 31.3813 6.13531 32.144 6.45964C32.907 6.78398 33.6166 7.27448 34.273 7.93114L41.954 15.6116C42.6103 16.268 43.1218 17.0185 43.4885 17.8631C43.8551 18.7078 44.0385 19.5616 44.0385 20.4246C44.0385 21.2876 43.8551 22.0941 43.4885 22.8441C43.1218 23.5941 42.6103 24.2975 41.954 24.9541L26.1425 40.7656C25.7601 41.1733 25.3385 41.4618 24.8775 41.6311C24.4161 41.8001 23.926 41.8846 23.407 41.8846Z" fill="#009F44"/>
</g>
<defs>
<clipPath id="clip0_2151_15756">
<rect width="48" height="48" fill="white"/>
</clipPath>
</defs>
</svg>
