<svg width="48" height="48" viewBox="0 0 48 48" fill="none" xmlns="http://www.w3.org/2000/svg">
<g clip-path="url(#clip0_2151_15767)">
<path d="M24 44C19.9333 44 16.2115 42.8038 12.8345 40.4115C9.4575 38.0192 6.96133 34.9962 5.34599 31.3425V38.6155H3.8075V28.6155H13.8075V30.154H6.5345C7.8755 33.6693 10.1852 36.5993 13.4635 38.944C16.7418 41.289 20.254 42.4615 24 42.4615C26.446 42.4615 28.7505 42.0192 30.9135 41.1345C33.0762 40.2498 34.9838 39.0262 36.6365 37.4635C38.2892 35.9005 39.6283 34.0505 40.654 31.9135C41.6797 29.7762 42.2693 27.4717 42.423 25H43.9615C43.8332 27.6487 43.2197 30.1268 42.121 32.4345C41.0223 34.7422 39.582 36.755 37.8 38.473C36.018 40.191 33.941 41.5417 31.569 42.525C29.1973 43.5083 26.6743 44 24 44ZM23.127 37.3885V34.881C21.8063 34.5577 20.657 34.0377 19.679 33.321C18.7007 32.6043 17.8743 31.582 17.2 30.254L18.6345 29.673C19.1885 30.8883 19.9673 31.837 20.971 32.519C21.975 33.2013 23.0885 33.5425 24.3115 33.5425C25.6192 33.5425 26.8045 33.2047 27.8675 32.529C28.9302 31.8533 29.4615 30.8155 29.4615 29.4155C29.4615 28.2385 29.0897 27.3007 28.346 26.602C27.6027 25.9033 26.127 25.113 23.919 24.231C21.7397 23.3977 20.182 22.5488 19.246 21.6845C18.3103 20.8205 17.8425 19.6487 17.8425 18.169C17.8425 16.9077 18.304 15.786 19.227 14.804C20.15 13.822 21.4833 13.2143 23.227 12.981V10.623H24.8615V12.981C25.9232 13.063 26.895 13.386 27.777 13.95C28.659 14.514 29.3833 15.2768 29.95 16.2385L28.5885 16.85C28.0628 16.0707 27.4333 15.4603 26.7 15.019C25.9667 14.578 25.1 14.3575 24.1 14.3575C22.723 14.3575 21.6018 14.7217 20.7365 15.45C19.8712 16.1783 19.4385 17.0847 19.4385 18.169C19.4385 19.287 19.7693 20.1498 20.431 20.7575C21.0923 21.3652 22.5178 22.0818 24.7075 22.9075C27.0588 23.8232 28.6987 24.7502 29.627 25.6885C30.555 26.6268 31.019 27.8692 31.019 29.4155C31.019 30.3258 30.837 31.1182 30.473 31.7925C30.109 32.4668 29.6392 33.0347 29.0635 33.496C28.4878 33.9577 27.8257 34.3148 27.077 34.5675C26.3283 34.8198 25.5565 34.9577 24.7615 34.981V37.3885H23.127ZM4.03849 23C4.21783 20.223 4.86966 17.6743 5.99399 15.354C7.11866 13.0333 8.58483 11.0268 10.3925 9.3345C12.2002 7.64217 14.2707 6.33 16.604 5.398C18.9373 4.466 21.4027 4 24 4C27.9897 4 31.7115 5.2025 35.1655 7.6075C38.6192 10.0128 41.1153 13.0808 42.654 16.8115V9.3845H44.1925V19.3845H34.1925V17.846H41.4655C40.2012 14.459 37.9318 11.561 34.6575 9.152C31.3832 6.743 27.8307 5.5385 24 5.5385C21.6563 5.5385 19.4032 5.968 17.2405 6.827C15.0775 7.686 13.1633 8.884 11.498 10.421C9.83266 11.9583 8.468 13.7955 7.404 15.9325C6.33966 18.0698 5.73066 20.4257 5.577 23H4.03849Z" fill="#009F44"/>
</g>
<defs>
<clipPath id="clip0_2151_15767">
<rect width="48" height="48" fill="white"/>
</clipPath>
</defs>
</svg>
