<svg width="48" height="48" viewBox="0 0 48 48" fill="none" xmlns="http://www.w3.org/2000/svg">
<path d="M17.4385 39.1384L6.8615 28.5614C6.58717 28.2801 6.375 27.9579 6.225 27.5949C6.075 27.2316 6 26.8716 6 26.5149C6 26.1069 6.075 25.7319 6.225 25.3899C6.375 25.0479 6.58717 24.7269 6.8615 24.4269L18.4385 12.8499L12.5075 7.03443L13.619 5.96143L32.077 24.4679C32.3903 24.7663 32.618 25.0871 32.76 25.4304C32.902 25.7741 32.973 26.1506 32.973 26.5599C32.973 26.9183 32.902 27.2779 32.76 27.6389C32.618 27.9999 32.389 28.3203 32.073 28.5999L21.573 39.1384C21.273 39.4128 20.952 39.6249 20.61 39.7749C20.268 39.9249 19.893 39.9999 19.485 39.9999C19.1283 39.9999 18.7683 39.9249 18.405 39.7749C18.042 39.6249 17.7198 39.4128 17.4385 39.1384ZM19.473 13.8844L7.7425 25.6539C7.5885 25.8076 7.48583 25.9614 7.4345 26.1154C7.38317 26.2691 7.3575 26.4229 7.3575 26.5769H31.627C31.627 26.4229 31.6013 26.2691 31.55 26.1154C31.4987 25.9614 31.3962 25.8076 31.2425 25.6539L19.473 13.8844ZM38.7905 39.9999C37.9098 39.9999 37.1668 39.6846 36.5615 39.0539C35.9565 38.4229 35.654 37.6613 35.654 36.7689C35.654 36.0469 35.7822 35.3608 36.0385 34.7104C36.2948 34.0598 36.664 33.4653 37.146 32.9269L38.8075 30.8459L40.546 32.9269C41.0203 33.4653 41.3877 34.0598 41.648 34.7104C41.9083 35.3608 42.0385 36.0469 42.0385 36.7689C42.0385 37.6869 41.7237 38.4549 41.094 39.0729C40.4647 39.6909 39.6968 39.9999 38.7905 39.9999Z" fill="#FFB800"/>
</svg>
